M48
; DRILL file KiCad 10.0.6-10.0.6~ubuntu26.04.1 date 2026-10-03T22:38:09
; FORMAT={-:-/ absolute / metric / decimal}
; #@! TF.CreationDate,2026-10-03T22:38:09-07:00
; #@! TF.GenerationSoftware,Kicad,Pcbnew,10.0.6-10.0.6~ubuntu26.04.1
; #@! TF.FileFunction,Plated,1,2,PTH
FMAT,2
METRIC
; #@! TA.AperFunction,Plated,PTH,ViaDrill
T1C0.300
; #@! TA.AperFunction,Plated,PTH,ComponentDrill
T2C0.600
; #@! TA.AperFunction,Plated,PTH,ComponentDrill
T3C0.700
; #@! TA.AperFunction,Plated,PTH,ComponentDrill
T4C0.800
; #@! TA.AperFunction,Plated,PTH,ComponentDrill
T5C1.000
; #@! TA.AperFunction,Plated,PTH,ComponentDrill
T6C1.100
%
G90
G05
T1
X170.8Y-125.627
X175.935Y-131.135
X176.4Y-126.0
X176.989Y-120.889
X180.182Y-128.018
X182.099Y-126.3
T3
X180.12Y-103.7
X185.9Y-103.7
T4
X164.6Y-120.5
X164.6Y-125.5
X165.332Y-139.968
X168.868Y-136.432
T5
X159.835Y-101.825
X159.835Y-104.365
X159.835Y-106.905
X159.835Y-109.445
X159.835Y-111.985
X159.835Y-114.525
X159.835Y-117.065
X159.835Y-119.605
X159.835Y-122.145
X159.835Y-124.685
X159.835Y-127.225
X159.835Y-129.765
X159.835Y-132.305
X159.835Y-134.845
X159.835Y-137.385
X159.835Y-139.925
X159.835Y-142.465
X159.835Y-145.005
X159.835Y-147.545
X159.835Y-150.085
X162.375Y-101.825
X162.375Y-104.365
X162.375Y-106.905
X162.375Y-109.445
X162.375Y-111.985
X162.375Y-114.525
X162.375Y-117.065
X162.375Y-119.605
X162.375Y-122.145
X162.375Y-124.685
X162.375Y-127.225
X162.375Y-129.765
X162.375Y-132.305
X162.375Y-134.845
X162.375Y-137.385
X162.375Y-139.925
X162.375Y-142.465
X162.375Y-145.005
X162.375Y-147.545
X162.375Y-150.085
X165.42Y-101.35
X167.96Y-101.35
X170.5Y-101.35
X173.04Y-101.35
X174.1Y-150.7
X175.58Y-101.35
X176.64Y-150.7
X179.18Y-150.7
X181.72Y-150.7
X190.46Y-101.84
X190.46Y-104.38
X190.46Y-106.92
X190.46Y-109.46
X190.46Y-112.0
X190.46Y-114.54
X190.46Y-117.08
X190.46Y-119.62
X190.46Y-122.16
X190.46Y-124.7
X190.46Y-127.24
X190.46Y-129.78
X190.46Y-132.32
X190.46Y-134.86
X190.46Y-137.4
X190.46Y-139.94
X190.46Y-142.48
X190.46Y-145.02
X190.46Y-147.56
X190.46Y-150.1
X193.0Y-101.84
X193.0Y-104.38
X193.0Y-106.92
X193.0Y-109.46
X193.0Y-112.0
X193.0Y-114.54
X193.0Y-117.08
X193.0Y-119.62
X193.0Y-122.16
X193.0Y-124.7
X193.0Y-127.24
X193.0Y-129.78
X193.0Y-132.32
X193.0Y-134.86
X193.0Y-137.4
X193.0Y-139.94
X193.0Y-142.48
X193.0Y-145.02
X193.0Y-147.56
X193.0Y-150.1
T6
X172.104Y-110.854
X175.286Y-107.672
X176.7Y-115.45
X179.882Y-112.268
T2
G00X178.69Y-100.22
M15
G01X178.69Y-99.82
M16
G05
G00X178.69Y-104.58
M15
G01X178.69Y-103.88
M16
G05
G00X187.33Y-100.22
M15
G01X187.33Y-99.82
M16
G05
G00X187.33Y-104.58
M15
G01X187.33Y-103.88
M16
G05
M30
