%TF.GenerationSoftware,KiCad,Pcbnew,10.0.6*%
%TF.CreationDate,2026-10-01T11:39:38-07:00*%
%TF.ProjectId,stm-module,73746d2d-6d6f-4647-956c-652e6b696361,rev?*%
%TF.SameCoordinates,Original*%
%TF.FileFunction,Legend,Bot*%
%TF.FilePolarity,Positive*%
%FSLAX46Y46*%
G04 Gerber Fmt 4.6, Leading zero omitted, Abs format (unit mm)*
G04 Created by KiCad (PCBNEW 10.0.6) date 2026-10-01 11:39:38*
%MOMM*%
%LPD*%
G01*
G04 APERTURE LIST*
%ADD10C,0.150000*%
%ADD11C,0.120000*%
G04 APERTURE END LIST*
D10*
X161438333Y-98899819D02*
X161438333Y-99614104D01*
X161438333Y-99614104D02*
X161485952Y-99756961D01*
X161485952Y-99756961D02*
X161581190Y-99852200D01*
X161581190Y-99852200D02*
X161724047Y-99899819D01*
X161724047Y-99899819D02*
X161819285Y-99899819D01*
X161009761Y-98995057D02*
X160962142Y-98947438D01*
X160962142Y-98947438D02*
X160866904Y-98899819D01*
X160866904Y-98899819D02*
X160628809Y-98899819D01*
X160628809Y-98899819D02*
X160533571Y-98947438D01*
X160533571Y-98947438D02*
X160485952Y-98995057D01*
X160485952Y-98995057D02*
X160438333Y-99090295D01*
X160438333Y-99090295D02*
X160438333Y-99185533D01*
X160438333Y-99185533D02*
X160485952Y-99328390D01*
X160485952Y-99328390D02*
X161057380Y-99899819D01*
X161057380Y-99899819D02*
X160438333Y-99899819D01*
X192063333Y-98914819D02*
X192063333Y-99629104D01*
X192063333Y-99629104D02*
X192110952Y-99771961D01*
X192110952Y-99771961D02*
X192206190Y-99867200D01*
X192206190Y-99867200D02*
X192349047Y-99914819D01*
X192349047Y-99914819D02*
X192444285Y-99914819D01*
X191682380Y-98914819D02*
X191063333Y-98914819D01*
X191063333Y-98914819D02*
X191396666Y-99295771D01*
X191396666Y-99295771D02*
X191253809Y-99295771D01*
X191253809Y-99295771D02*
X191158571Y-99343390D01*
X191158571Y-99343390D02*
X191110952Y-99391009D01*
X191110952Y-99391009D02*
X191063333Y-99486247D01*
X191063333Y-99486247D02*
X191063333Y-99724342D01*
X191063333Y-99724342D02*
X191110952Y-99819580D01*
X191110952Y-99819580D02*
X191158571Y-99867200D01*
X191158571Y-99867200D02*
X191253809Y-99914819D01*
X191253809Y-99914819D02*
X191539523Y-99914819D01*
X191539523Y-99914819D02*
X191634761Y-99867200D01*
X191634761Y-99867200D02*
X191682380Y-99819580D01*
%TO.C,J2*%
D11*
X158455000Y-100445000D02*
X158455000Y-151465000D01*
X161105000Y-100445000D02*
X158455000Y-100445000D01*
X161105000Y-103095000D02*
X161105000Y-100445000D01*
X163755000Y-100445000D02*
X162375000Y-100445000D01*
X163755000Y-101825000D02*
X163755000Y-100445000D01*
X163755000Y-103095000D02*
X161105000Y-103095000D01*
X163755000Y-103095000D02*
X163755000Y-151465000D01*
X163755000Y-151465000D02*
X158455000Y-151465000D01*
%TO.C,J3*%
X189080000Y-100460000D02*
X189080000Y-151480000D01*
X191730000Y-100460000D02*
X189080000Y-100460000D01*
X191730000Y-103110000D02*
X191730000Y-100460000D01*
X194380000Y-100460000D02*
X193000000Y-100460000D01*
X194380000Y-101840000D02*
X194380000Y-100460000D01*
X194380000Y-103110000D02*
X191730000Y-103110000D01*
X194380000Y-103110000D02*
X194380000Y-151480000D01*
X194380000Y-151480000D02*
X189080000Y-151480000D01*
%TD*%
M02*
