%TF.GenerationSoftware,KiCad,Pcbnew,10.0.6*%
%TF.CreationDate,2026-10-01T11:39:38-07:00*%
%TF.ProjectId,stm-module,73746d2d-6d6f-4647-956c-652e6b696361,rev?*%
%TF.SameCoordinates,Original*%
%TF.FileFunction,Legend,Top*%
%TF.FilePolarity,Positive*%
%FSLAX46Y46*%
G04 Gerber Fmt 4.6, Leading zero omitted, Abs format (unit mm)*
G04 Created by KiCad (PCBNEW 10.0.6) date 2026-10-01 11:39:38*
%MOMM*%
%LPD*%
G01*
G04 APERTURE LIST*
%ADD10C,0.150000*%
%ADD11C,0.120000*%
G04 APERTURE END LIST*
D10*
X166699693Y-138908830D02*
X166699693Y-138976174D01*
X166699693Y-138976174D02*
X166632349Y-139110861D01*
X166632349Y-139110861D02*
X166565006Y-139178204D01*
X166565006Y-139178204D02*
X166430319Y-139245548D01*
X166430319Y-139245548D02*
X166295632Y-139245548D01*
X166295632Y-139245548D02*
X166194617Y-139211876D01*
X166194617Y-139211876D02*
X166026258Y-139110861D01*
X166026258Y-139110861D02*
X165925243Y-139009846D01*
X165925243Y-139009846D02*
X165824227Y-138841487D01*
X165824227Y-138841487D02*
X165790556Y-138740472D01*
X165790556Y-138740472D02*
X165790556Y-138605785D01*
X165790556Y-138605785D02*
X165857899Y-138471098D01*
X165857899Y-138471098D02*
X165925243Y-138403754D01*
X165925243Y-138403754D02*
X166059930Y-138336411D01*
X166059930Y-138336411D02*
X166127273Y-138336411D01*
X167440471Y-138302739D02*
X167036410Y-138706800D01*
X167238441Y-138504769D02*
X166531334Y-137797663D01*
X166531334Y-137797663D02*
X166565006Y-137966021D01*
X166565006Y-137966021D02*
X166565006Y-138100708D01*
X166565006Y-138100708D02*
X166531334Y-138201724D01*
X168113907Y-137629304D02*
X167709846Y-138033365D01*
X167911876Y-137831334D02*
X167204769Y-137124227D01*
X167204769Y-137124227D02*
X167238441Y-137292586D01*
X167238441Y-137292586D02*
X167238441Y-137427273D01*
X167238441Y-137427273D02*
X167204769Y-137528288D01*
X188859580Y-151742857D02*
X188907200Y-151790476D01*
X188907200Y-151790476D02*
X188954819Y-151933333D01*
X188954819Y-151933333D02*
X188954819Y-152028571D01*
X188954819Y-152028571D02*
X188907200Y-152171428D01*
X188907200Y-152171428D02*
X188811961Y-152266666D01*
X188811961Y-152266666D02*
X188716723Y-152314285D01*
X188716723Y-152314285D02*
X188526247Y-152361904D01*
X188526247Y-152361904D02*
X188383390Y-152361904D01*
X188383390Y-152361904D02*
X188192914Y-152314285D01*
X188192914Y-152314285D02*
X188097676Y-152266666D01*
X188097676Y-152266666D02*
X188002438Y-152171428D01*
X188002438Y-152171428D02*
X187954819Y-152028571D01*
X187954819Y-152028571D02*
X187954819Y-151933333D01*
X187954819Y-151933333D02*
X188002438Y-151790476D01*
X188002438Y-151790476D02*
X188050057Y-151742857D01*
X188954819Y-150790476D02*
X188954819Y-151361904D01*
X188954819Y-151076190D02*
X187954819Y-151076190D01*
X187954819Y-151076190D02*
X188097676Y-151171428D01*
X188097676Y-151171428D02*
X188192914Y-151266666D01*
X188192914Y-151266666D02*
X188240533Y-151361904D01*
X188050057Y-150409523D02*
X188002438Y-150361904D01*
X188002438Y-150361904D02*
X187954819Y-150266666D01*
X187954819Y-150266666D02*
X187954819Y-150028571D01*
X187954819Y-150028571D02*
X188002438Y-149933333D01*
X188002438Y-149933333D02*
X188050057Y-149885714D01*
X188050057Y-149885714D02*
X188145295Y-149838095D01*
X188145295Y-149838095D02*
X188240533Y-149838095D01*
X188240533Y-149838095D02*
X188383390Y-149885714D01*
X188383390Y-149885714D02*
X188954819Y-150457142D01*
X188954819Y-150457142D02*
X188954819Y-149838095D01*
X168459580Y-127866666D02*
X168507200Y-127914285D01*
X168507200Y-127914285D02*
X168554819Y-128057142D01*
X168554819Y-128057142D02*
X168554819Y-128152380D01*
X168554819Y-128152380D02*
X168507200Y-128295237D01*
X168507200Y-128295237D02*
X168411961Y-128390475D01*
X168411961Y-128390475D02*
X168316723Y-128438094D01*
X168316723Y-128438094D02*
X168126247Y-128485713D01*
X168126247Y-128485713D02*
X167983390Y-128485713D01*
X167983390Y-128485713D02*
X167792914Y-128438094D01*
X167792914Y-128438094D02*
X167697676Y-128390475D01*
X167697676Y-128390475D02*
X167602438Y-128295237D01*
X167602438Y-128295237D02*
X167554819Y-128152380D01*
X167554819Y-128152380D02*
X167554819Y-128057142D01*
X167554819Y-128057142D02*
X167602438Y-127914285D01*
X167602438Y-127914285D02*
X167650057Y-127866666D01*
X167554819Y-127533332D02*
X167554819Y-126914285D01*
X167554819Y-126914285D02*
X167935771Y-127247618D01*
X167935771Y-127247618D02*
X167935771Y-127104761D01*
X167935771Y-127104761D02*
X167983390Y-127009523D01*
X167983390Y-127009523D02*
X168031009Y-126961904D01*
X168031009Y-126961904D02*
X168126247Y-126914285D01*
X168126247Y-126914285D02*
X168364342Y-126914285D01*
X168364342Y-126914285D02*
X168459580Y-126961904D01*
X168459580Y-126961904D02*
X168507200Y-127009523D01*
X168507200Y-127009523D02*
X168554819Y-127104761D01*
X168554819Y-127104761D02*
X168554819Y-127390475D01*
X168554819Y-127390475D02*
X168507200Y-127485713D01*
X168507200Y-127485713D02*
X168459580Y-127533332D01*
X187639580Y-148416666D02*
X187687200Y-148464285D01*
X187687200Y-148464285D02*
X187734819Y-148607142D01*
X187734819Y-148607142D02*
X187734819Y-148702380D01*
X187734819Y-148702380D02*
X187687200Y-148845237D01*
X187687200Y-148845237D02*
X187591961Y-148940475D01*
X187591961Y-148940475D02*
X187496723Y-148988094D01*
X187496723Y-148988094D02*
X187306247Y-149035713D01*
X187306247Y-149035713D02*
X187163390Y-149035713D01*
X187163390Y-149035713D02*
X186972914Y-148988094D01*
X186972914Y-148988094D02*
X186877676Y-148940475D01*
X186877676Y-148940475D02*
X186782438Y-148845237D01*
X186782438Y-148845237D02*
X186734819Y-148702380D01*
X186734819Y-148702380D02*
X186734819Y-148607142D01*
X186734819Y-148607142D02*
X186782438Y-148464285D01*
X186782438Y-148464285D02*
X186830057Y-148416666D01*
X187734819Y-147464285D02*
X187734819Y-148035713D01*
X187734819Y-147749999D02*
X186734819Y-147749999D01*
X186734819Y-147749999D02*
X186877676Y-147845237D01*
X186877676Y-147845237D02*
X186972914Y-147940475D01*
X186972914Y-147940475D02*
X187020533Y-148035713D01*
X186336411Y-124672112D02*
X186336411Y-124739456D01*
X186336411Y-124739456D02*
X186269067Y-124874143D01*
X186269067Y-124874143D02*
X186201724Y-124941486D01*
X186201724Y-124941486D02*
X186067037Y-125008830D01*
X186067037Y-125008830D02*
X185932350Y-125008830D01*
X185932350Y-125008830D02*
X185831335Y-124975158D01*
X185831335Y-124975158D02*
X185662976Y-124874143D01*
X185662976Y-124874143D02*
X185561961Y-124773128D01*
X185561961Y-124773128D02*
X185460945Y-124604769D01*
X185460945Y-124604769D02*
X185427274Y-124503754D01*
X185427274Y-124503754D02*
X185427274Y-124369067D01*
X185427274Y-124369067D02*
X185494617Y-124234380D01*
X185494617Y-124234380D02*
X185561961Y-124167036D01*
X185561961Y-124167036D02*
X185696648Y-124099693D01*
X185696648Y-124099693D02*
X185763991Y-124099693D01*
X186336411Y-123392586D02*
X185999693Y-123729303D01*
X185999693Y-123729303D02*
X186302739Y-124099693D01*
X186302739Y-124099693D02*
X186302739Y-124032349D01*
X186302739Y-124032349D02*
X186336411Y-123931334D01*
X186336411Y-123931334D02*
X186504770Y-123762975D01*
X186504770Y-123762975D02*
X186605785Y-123729303D01*
X186605785Y-123729303D02*
X186673128Y-123729303D01*
X186673128Y-123729303D02*
X186774144Y-123762975D01*
X186774144Y-123762975D02*
X186942502Y-123931334D01*
X186942502Y-123931334D02*
X186976174Y-124032349D01*
X186976174Y-124032349D02*
X186976174Y-124099693D01*
X186976174Y-124099693D02*
X186942502Y-124200708D01*
X186942502Y-124200708D02*
X186774144Y-124369067D01*
X186774144Y-124369067D02*
X186673128Y-124402738D01*
X186673128Y-124402738D02*
X186605785Y-124402738D01*
X165292429Y-132334135D02*
X164955711Y-132670853D01*
X165427116Y-131728044D02*
X165292429Y-132334135D01*
X165292429Y-132334135D02*
X165898520Y-132199448D01*
X165797505Y-133512646D02*
X165393444Y-133108585D01*
X165595475Y-133310616D02*
X166302581Y-132603509D01*
X166302581Y-132603509D02*
X166134223Y-132637181D01*
X166134223Y-132637181D02*
X165999536Y-132637181D01*
X165999536Y-132637181D02*
X165898520Y-132603509D01*
X169689580Y-122391666D02*
X169737200Y-122439285D01*
X169737200Y-122439285D02*
X169784819Y-122582142D01*
X169784819Y-122582142D02*
X169784819Y-122677380D01*
X169784819Y-122677380D02*
X169737200Y-122820237D01*
X169737200Y-122820237D02*
X169641961Y-122915475D01*
X169641961Y-122915475D02*
X169546723Y-122963094D01*
X169546723Y-122963094D02*
X169356247Y-123010713D01*
X169356247Y-123010713D02*
X169213390Y-123010713D01*
X169213390Y-123010713D02*
X169022914Y-122963094D01*
X169022914Y-122963094D02*
X168927676Y-122915475D01*
X168927676Y-122915475D02*
X168832438Y-122820237D01*
X168832438Y-122820237D02*
X168784819Y-122677380D01*
X168784819Y-122677380D02*
X168784819Y-122582142D01*
X168784819Y-122582142D02*
X168832438Y-122439285D01*
X168832438Y-122439285D02*
X168880057Y-122391666D01*
X168784819Y-122058332D02*
X168784819Y-121391666D01*
X168784819Y-121391666D02*
X169784819Y-121820237D01*
X180737028Y-113972730D02*
X180164609Y-113871715D01*
X180332967Y-114376791D02*
X179625861Y-113669684D01*
X179625861Y-113669684D02*
X179895235Y-113400310D01*
X179895235Y-113400310D02*
X179996250Y-113366638D01*
X179996250Y-113366638D02*
X180063593Y-113366638D01*
X180063593Y-113366638D02*
X180164609Y-113400310D01*
X180164609Y-113400310D02*
X180265624Y-113501325D01*
X180265624Y-113501325D02*
X180299296Y-113602341D01*
X180299296Y-113602341D02*
X180299296Y-113669684D01*
X180299296Y-113669684D02*
X180265624Y-113770699D01*
X180265624Y-113770699D02*
X179996250Y-114040073D01*
X181410463Y-113299295D02*
X181006402Y-113703356D01*
X181208433Y-113501325D02*
X180501326Y-112794219D01*
X180501326Y-112794219D02*
X180534998Y-112962577D01*
X180534998Y-112962577D02*
X180534998Y-113097264D01*
X180534998Y-113097264D02*
X180501326Y-113198280D01*
X164959580Y-123442857D02*
X165007200Y-123490476D01*
X165007200Y-123490476D02*
X165054819Y-123633333D01*
X165054819Y-123633333D02*
X165054819Y-123728571D01*
X165054819Y-123728571D02*
X165007200Y-123871428D01*
X165007200Y-123871428D02*
X164911961Y-123966666D01*
X164911961Y-123966666D02*
X164816723Y-124014285D01*
X164816723Y-124014285D02*
X164626247Y-124061904D01*
X164626247Y-124061904D02*
X164483390Y-124061904D01*
X164483390Y-124061904D02*
X164292914Y-124014285D01*
X164292914Y-124014285D02*
X164197676Y-123966666D01*
X164197676Y-123966666D02*
X164102438Y-123871428D01*
X164102438Y-123871428D02*
X164054819Y-123728571D01*
X164054819Y-123728571D02*
X164054819Y-123633333D01*
X164054819Y-123633333D02*
X164102438Y-123490476D01*
X164102438Y-123490476D02*
X164150057Y-123442857D01*
X165054819Y-122490476D02*
X165054819Y-123061904D01*
X165054819Y-122776190D02*
X164054819Y-122776190D01*
X164054819Y-122776190D02*
X164197676Y-122871428D01*
X164197676Y-122871428D02*
X164292914Y-122966666D01*
X164292914Y-122966666D02*
X164340533Y-123061904D01*
X164054819Y-121871428D02*
X164054819Y-121776190D01*
X164054819Y-121776190D02*
X164102438Y-121680952D01*
X164102438Y-121680952D02*
X164150057Y-121633333D01*
X164150057Y-121633333D02*
X164245295Y-121585714D01*
X164245295Y-121585714D02*
X164435771Y-121538095D01*
X164435771Y-121538095D02*
X164673866Y-121538095D01*
X164673866Y-121538095D02*
X164864342Y-121585714D01*
X164864342Y-121585714D02*
X164959580Y-121633333D01*
X164959580Y-121633333D02*
X165007200Y-121680952D01*
X165007200Y-121680952D02*
X165054819Y-121776190D01*
X165054819Y-121776190D02*
X165054819Y-121871428D01*
X165054819Y-121871428D02*
X165007200Y-121966666D01*
X165007200Y-121966666D02*
X164959580Y-122014285D01*
X164959580Y-122014285D02*
X164864342Y-122061904D01*
X164864342Y-122061904D02*
X164673866Y-122109523D01*
X164673866Y-122109523D02*
X164435771Y-122109523D01*
X164435771Y-122109523D02*
X164245295Y-122061904D01*
X164245295Y-122061904D02*
X164150057Y-122014285D01*
X164150057Y-122014285D02*
X164102438Y-121966666D01*
X164102438Y-121966666D02*
X164054819Y-121871428D01*
X181880006Y-131410856D02*
X181812662Y-131410856D01*
X181812662Y-131410856D02*
X181677975Y-131343512D01*
X181677975Y-131343512D02*
X181610632Y-131276169D01*
X181610632Y-131276169D02*
X181543288Y-131141482D01*
X181543288Y-131141482D02*
X181543288Y-131006795D01*
X181543288Y-131006795D02*
X181576960Y-130905780D01*
X181576960Y-130905780D02*
X181677975Y-130737421D01*
X181677975Y-130737421D02*
X181778990Y-130636406D01*
X181778990Y-130636406D02*
X181947349Y-130535390D01*
X181947349Y-130535390D02*
X182048364Y-130501719D01*
X182048364Y-130501719D02*
X182183051Y-130501719D01*
X182183051Y-130501719D02*
X182317738Y-130569062D01*
X182317738Y-130569062D02*
X182385082Y-130636406D01*
X182385082Y-130636406D02*
X182452425Y-130771093D01*
X182452425Y-130771093D02*
X182452425Y-130838436D01*
X182486097Y-132151634D02*
X182082036Y-131747573D01*
X182284067Y-131949604D02*
X182991173Y-131242497D01*
X182991173Y-131242497D02*
X182822815Y-131276169D01*
X182822815Y-131276169D02*
X182688128Y-131276169D01*
X182688128Y-131276169D02*
X182587112Y-131242497D01*
X183428906Y-131680230D02*
X183866639Y-132117963D01*
X183866639Y-132117963D02*
X183361563Y-132151635D01*
X183361563Y-132151635D02*
X183462578Y-132252650D01*
X183462578Y-132252650D02*
X183496250Y-132353665D01*
X183496250Y-132353665D02*
X183496250Y-132421009D01*
X183496250Y-132421009D02*
X183462578Y-132522024D01*
X183462578Y-132522024D02*
X183294219Y-132690383D01*
X183294219Y-132690383D02*
X183193204Y-132724054D01*
X183193204Y-132724054D02*
X183125861Y-132724054D01*
X183125861Y-132724054D02*
X183024845Y-132690383D01*
X183024845Y-132690383D02*
X182822815Y-132488352D01*
X182822815Y-132488352D02*
X182789143Y-132387337D01*
X182789143Y-132387337D02*
X182789143Y-132319993D01*
X174557142Y-148259580D02*
X174509523Y-148307200D01*
X174509523Y-148307200D02*
X174366666Y-148354819D01*
X174366666Y-148354819D02*
X174271428Y-148354819D01*
X174271428Y-148354819D02*
X174128571Y-148307200D01*
X174128571Y-148307200D02*
X174033333Y-148211961D01*
X174033333Y-148211961D02*
X173985714Y-148116723D01*
X173985714Y-148116723D02*
X173938095Y-147926247D01*
X173938095Y-147926247D02*
X173938095Y-147783390D01*
X173938095Y-147783390D02*
X173985714Y-147592914D01*
X173985714Y-147592914D02*
X174033333Y-147497676D01*
X174033333Y-147497676D02*
X174128571Y-147402438D01*
X174128571Y-147402438D02*
X174271428Y-147354819D01*
X174271428Y-147354819D02*
X174366666Y-147354819D01*
X174366666Y-147354819D02*
X174509523Y-147402438D01*
X174509523Y-147402438D02*
X174557142Y-147450057D01*
X175509523Y-148354819D02*
X174938095Y-148354819D01*
X175223809Y-148354819D02*
X175223809Y-147354819D01*
X175223809Y-147354819D02*
X175128571Y-147497676D01*
X175128571Y-147497676D02*
X175033333Y-147592914D01*
X175033333Y-147592914D02*
X174938095Y-147640533D01*
X176414285Y-147354819D02*
X175938095Y-147354819D01*
X175938095Y-147354819D02*
X175890476Y-147831009D01*
X175890476Y-147831009D02*
X175938095Y-147783390D01*
X175938095Y-147783390D02*
X176033333Y-147735771D01*
X176033333Y-147735771D02*
X176271428Y-147735771D01*
X176271428Y-147735771D02*
X176366666Y-147783390D01*
X176366666Y-147783390D02*
X176414285Y-147831009D01*
X176414285Y-147831009D02*
X176461904Y-147926247D01*
X176461904Y-147926247D02*
X176461904Y-148164342D01*
X176461904Y-148164342D02*
X176414285Y-148259580D01*
X176414285Y-148259580D02*
X176366666Y-148307200D01*
X176366666Y-148307200D02*
X176271428Y-148354819D01*
X176271428Y-148354819D02*
X176033333Y-148354819D01*
X176033333Y-148354819D02*
X175938095Y-148307200D01*
X175938095Y-148307200D02*
X175890476Y-148259580D01*
X175433333Y-145859580D02*
X175385714Y-145907200D01*
X175385714Y-145907200D02*
X175242857Y-145954819D01*
X175242857Y-145954819D02*
X175147619Y-145954819D01*
X175147619Y-145954819D02*
X175004762Y-145907200D01*
X175004762Y-145907200D02*
X174909524Y-145811961D01*
X174909524Y-145811961D02*
X174861905Y-145716723D01*
X174861905Y-145716723D02*
X174814286Y-145526247D01*
X174814286Y-145526247D02*
X174814286Y-145383390D01*
X174814286Y-145383390D02*
X174861905Y-145192914D01*
X174861905Y-145192914D02*
X174909524Y-145097676D01*
X174909524Y-145097676D02*
X175004762Y-145002438D01*
X175004762Y-145002438D02*
X175147619Y-144954819D01*
X175147619Y-144954819D02*
X175242857Y-144954819D01*
X175242857Y-144954819D02*
X175385714Y-145002438D01*
X175385714Y-145002438D02*
X175433333Y-145050057D01*
X175814286Y-145050057D02*
X175861905Y-145002438D01*
X175861905Y-145002438D02*
X175957143Y-144954819D01*
X175957143Y-144954819D02*
X176195238Y-144954819D01*
X176195238Y-144954819D02*
X176290476Y-145002438D01*
X176290476Y-145002438D02*
X176338095Y-145050057D01*
X176338095Y-145050057D02*
X176385714Y-145145295D01*
X176385714Y-145145295D02*
X176385714Y-145240533D01*
X176385714Y-145240533D02*
X176338095Y-145383390D01*
X176338095Y-145383390D02*
X175766667Y-145954819D01*
X175766667Y-145954819D02*
X176385714Y-145954819D01*
X167394819Y-103933333D02*
X168109104Y-103933333D01*
X168109104Y-103933333D02*
X168251961Y-103980952D01*
X168251961Y-103980952D02*
X168347200Y-104076190D01*
X168347200Y-104076190D02*
X168394819Y-104219047D01*
X168394819Y-104219047D02*
X168394819Y-104314285D01*
X168394819Y-102933333D02*
X168394819Y-103504761D01*
X168394819Y-103219047D02*
X167394819Y-103219047D01*
X167394819Y-103219047D02*
X167537676Y-103314285D01*
X167537676Y-103314285D02*
X167632914Y-103409523D01*
X167632914Y-103409523D02*
X167680533Y-103504761D01*
X180547574Y-118683275D02*
X180547574Y-118750619D01*
X180547574Y-118750619D02*
X180480230Y-118885306D01*
X180480230Y-118885306D02*
X180412887Y-118952649D01*
X180412887Y-118952649D02*
X180278200Y-119019993D01*
X180278200Y-119019993D02*
X180143513Y-119019993D01*
X180143513Y-119019993D02*
X180042498Y-118986321D01*
X180042498Y-118986321D02*
X179874139Y-118885306D01*
X179874139Y-118885306D02*
X179773124Y-118784291D01*
X179773124Y-118784291D02*
X179672108Y-118615932D01*
X179672108Y-118615932D02*
X179638437Y-118514917D01*
X179638437Y-118514917D02*
X179638437Y-118380230D01*
X179638437Y-118380230D02*
X179705780Y-118245543D01*
X179705780Y-118245543D02*
X179773124Y-118178199D01*
X179773124Y-118178199D02*
X179907811Y-118110856D01*
X179907811Y-118110856D02*
X179975154Y-118110856D01*
X180513902Y-117437421D02*
X180379215Y-117572108D01*
X180379215Y-117572108D02*
X180345543Y-117673123D01*
X180345543Y-117673123D02*
X180345543Y-117740466D01*
X180345543Y-117740466D02*
X180379215Y-117908825D01*
X180379215Y-117908825D02*
X180480230Y-118077184D01*
X180480230Y-118077184D02*
X180749604Y-118346558D01*
X180749604Y-118346558D02*
X180850620Y-118380230D01*
X180850620Y-118380230D02*
X180917963Y-118380230D01*
X180917963Y-118380230D02*
X181018978Y-118346558D01*
X181018978Y-118346558D02*
X181153665Y-118211871D01*
X181153665Y-118211871D02*
X181187337Y-118110856D01*
X181187337Y-118110856D02*
X181187337Y-118043512D01*
X181187337Y-118043512D02*
X181153665Y-117942497D01*
X181153665Y-117942497D02*
X180985307Y-117774138D01*
X180985307Y-117774138D02*
X180884291Y-117740466D01*
X180884291Y-117740466D02*
X180816948Y-117740466D01*
X180816948Y-117740466D02*
X180715933Y-117774138D01*
X180715933Y-117774138D02*
X180581246Y-117908825D01*
X180581246Y-117908825D02*
X180547574Y-118009840D01*
X180547574Y-118009840D02*
X180547574Y-118077184D01*
X180547574Y-118077184D02*
X180581246Y-118178199D01*
X177867354Y-107950833D02*
X177934697Y-108085520D01*
X177934697Y-108085520D02*
X178103056Y-108253878D01*
X178103056Y-108253878D02*
X178204071Y-108287550D01*
X178204071Y-108287550D02*
X178271415Y-108287550D01*
X178271415Y-108287550D02*
X178372430Y-108253878D01*
X178372430Y-108253878D02*
X178439774Y-108186535D01*
X178439774Y-108186535D02*
X178473445Y-108085520D01*
X178473445Y-108085520D02*
X178473445Y-108018176D01*
X178473445Y-108018176D02*
X178439774Y-107917161D01*
X178439774Y-107917161D02*
X178338758Y-107748802D01*
X178338758Y-107748802D02*
X178305087Y-107647787D01*
X178305087Y-107647787D02*
X178305087Y-107580443D01*
X178305087Y-107580443D02*
X178338758Y-107479428D01*
X178338758Y-107479428D02*
X178406102Y-107412085D01*
X178406102Y-107412085D02*
X178507117Y-107378413D01*
X178507117Y-107378413D02*
X178574461Y-107378413D01*
X178574461Y-107378413D02*
X178675476Y-107412085D01*
X178675476Y-107412085D02*
X178843835Y-107580443D01*
X178843835Y-107580443D02*
X178911178Y-107715130D01*
X179180552Y-107917161D02*
X178641804Y-108792627D01*
X178641804Y-108792627D02*
X179281568Y-108422237D01*
X179281568Y-108422237D02*
X178911178Y-109062001D01*
X178911178Y-109062001D02*
X179786644Y-108523253D01*
X179719300Y-109870122D02*
X179315239Y-109466061D01*
X179517270Y-109668092D02*
X180224376Y-108960985D01*
X180224376Y-108960985D02*
X180056018Y-108994657D01*
X180056018Y-108994657D02*
X179921331Y-108994657D01*
X179921331Y-108994657D02*
X179820315Y-108960985D01*
X181638095Y-144154819D02*
X181638095Y-144964342D01*
X181638095Y-144964342D02*
X181685714Y-145059580D01*
X181685714Y-145059580D02*
X181733333Y-145107200D01*
X181733333Y-145107200D02*
X181828571Y-145154819D01*
X181828571Y-145154819D02*
X182019047Y-145154819D01*
X182019047Y-145154819D02*
X182114285Y-145107200D01*
X182114285Y-145107200D02*
X182161904Y-145059580D01*
X182161904Y-145059580D02*
X182209523Y-144964342D01*
X182209523Y-144964342D02*
X182209523Y-144154819D01*
X182638095Y-144250057D02*
X182685714Y-144202438D01*
X182685714Y-144202438D02*
X182780952Y-144154819D01*
X182780952Y-144154819D02*
X183019047Y-144154819D01*
X183019047Y-144154819D02*
X183114285Y-144202438D01*
X183114285Y-144202438D02*
X183161904Y-144250057D01*
X183161904Y-144250057D02*
X183209523Y-144345295D01*
X183209523Y-144345295D02*
X183209523Y-144440533D01*
X183209523Y-144440533D02*
X183161904Y-144583390D01*
X183161904Y-144583390D02*
X182590476Y-145154819D01*
X182590476Y-145154819D02*
X183209523Y-145154819D01*
X186927888Y-129436411D02*
X186860544Y-129436411D01*
X186860544Y-129436411D02*
X186725857Y-129369067D01*
X186725857Y-129369067D02*
X186658514Y-129301724D01*
X186658514Y-129301724D02*
X186591170Y-129167037D01*
X186591170Y-129167037D02*
X186591170Y-129032350D01*
X186591170Y-129032350D02*
X186624842Y-128931335D01*
X186624842Y-128931335D02*
X186725857Y-128762976D01*
X186725857Y-128762976D02*
X186826872Y-128661961D01*
X186826872Y-128661961D02*
X186995231Y-128560945D01*
X186995231Y-128560945D02*
X187096246Y-128527274D01*
X187096246Y-128527274D02*
X187230933Y-128527274D01*
X187230933Y-128527274D02*
X187365620Y-128594617D01*
X187365620Y-128594617D02*
X187432964Y-128661961D01*
X187432964Y-128661961D02*
X187500307Y-128796648D01*
X187500307Y-128796648D02*
X187500307Y-128863991D01*
X187668666Y-129503754D02*
X187634994Y-129402739D01*
X187634994Y-129402739D02*
X187634994Y-129335396D01*
X187634994Y-129335396D02*
X187668666Y-129234380D01*
X187668666Y-129234380D02*
X187702338Y-129200709D01*
X187702338Y-129200709D02*
X187803353Y-129167037D01*
X187803353Y-129167037D02*
X187870697Y-129167037D01*
X187870697Y-129167037D02*
X187971712Y-129200709D01*
X187971712Y-129200709D02*
X188106399Y-129335396D01*
X188106399Y-129335396D02*
X188140071Y-129436411D01*
X188140071Y-129436411D02*
X188140071Y-129503754D01*
X188140071Y-129503754D02*
X188106399Y-129604770D01*
X188106399Y-129604770D02*
X188072727Y-129638441D01*
X188072727Y-129638441D02*
X187971712Y-129672113D01*
X187971712Y-129672113D02*
X187904368Y-129672113D01*
X187904368Y-129672113D02*
X187803353Y-129638441D01*
X187803353Y-129638441D02*
X187668666Y-129503754D01*
X187668666Y-129503754D02*
X187567651Y-129470083D01*
X187567651Y-129470083D02*
X187500307Y-129470083D01*
X187500307Y-129470083D02*
X187399292Y-129503754D01*
X187399292Y-129503754D02*
X187264605Y-129638441D01*
X187264605Y-129638441D02*
X187230933Y-129739457D01*
X187230933Y-129739457D02*
X187230933Y-129806800D01*
X187230933Y-129806800D02*
X187264605Y-129907815D01*
X187264605Y-129907815D02*
X187399292Y-130042502D01*
X187399292Y-130042502D02*
X187500307Y-130076174D01*
X187500307Y-130076174D02*
X187567651Y-130076174D01*
X187567651Y-130076174D02*
X187668666Y-130042502D01*
X187668666Y-130042502D02*
X187803353Y-129907815D01*
X187803353Y-129907815D02*
X187837025Y-129806800D01*
X187837025Y-129806800D02*
X187837025Y-129739457D01*
X187837025Y-129739457D02*
X187803353Y-129638441D01*
X185891168Y-133199693D02*
X185823824Y-133199693D01*
X185823824Y-133199693D02*
X185689137Y-133132349D01*
X185689137Y-133132349D02*
X185621794Y-133065006D01*
X185621794Y-133065006D02*
X185554450Y-132930319D01*
X185554450Y-132930319D02*
X185554450Y-132795632D01*
X185554450Y-132795632D02*
X185588122Y-132694617D01*
X185588122Y-132694617D02*
X185689137Y-132526258D01*
X185689137Y-132526258D02*
X185790152Y-132425243D01*
X185790152Y-132425243D02*
X185958511Y-132324227D01*
X185958511Y-132324227D02*
X186059526Y-132290556D01*
X186059526Y-132290556D02*
X186194213Y-132290556D01*
X186194213Y-132290556D02*
X186328900Y-132357899D01*
X186328900Y-132357899D02*
X186396244Y-132425243D01*
X186396244Y-132425243D02*
X186463587Y-132559930D01*
X186463587Y-132559930D02*
X186463587Y-132627273D01*
X186497259Y-133940471D02*
X186093198Y-133536410D01*
X186295229Y-133738441D02*
X187002335Y-133031334D01*
X187002335Y-133031334D02*
X186833977Y-133065006D01*
X186833977Y-133065006D02*
X186699290Y-133065006D01*
X186699290Y-133065006D02*
X186598274Y-133031334D01*
X187574755Y-134075159D02*
X187103351Y-134546563D01*
X187675771Y-133637426D02*
X187002336Y-133974143D01*
X187002336Y-133974143D02*
X187440068Y-134411876D01*
X171174819Y-151033333D02*
X171889104Y-151033333D01*
X171889104Y-151033333D02*
X172031961Y-151080952D01*
X172031961Y-151080952D02*
X172127200Y-151176190D01*
X172127200Y-151176190D02*
X172174819Y-151319047D01*
X172174819Y-151319047D02*
X172174819Y-151414285D01*
X171508152Y-150128571D02*
X172174819Y-150128571D01*
X171127200Y-150366666D02*
X171841485Y-150604761D01*
X171841485Y-150604761D02*
X171841485Y-149985714D01*
X174129580Y-135366666D02*
X174177200Y-135414285D01*
X174177200Y-135414285D02*
X174224819Y-135557142D01*
X174224819Y-135557142D02*
X174224819Y-135652380D01*
X174224819Y-135652380D02*
X174177200Y-135795237D01*
X174177200Y-135795237D02*
X174081961Y-135890475D01*
X174081961Y-135890475D02*
X173986723Y-135938094D01*
X173986723Y-135938094D02*
X173796247Y-135985713D01*
X173796247Y-135985713D02*
X173653390Y-135985713D01*
X173653390Y-135985713D02*
X173462914Y-135938094D01*
X173462914Y-135938094D02*
X173367676Y-135890475D01*
X173367676Y-135890475D02*
X173272438Y-135795237D01*
X173272438Y-135795237D02*
X173224819Y-135652380D01*
X173224819Y-135652380D02*
X173224819Y-135557142D01*
X173224819Y-135557142D02*
X173272438Y-135414285D01*
X173272438Y-135414285D02*
X173320057Y-135366666D01*
X173558152Y-134509523D02*
X174224819Y-134509523D01*
X173177200Y-134747618D02*
X173891485Y-134985713D01*
X173891485Y-134985713D02*
X173891485Y-134366666D01*
X167404819Y-117866666D02*
X166928628Y-118199999D01*
X167404819Y-118438094D02*
X166404819Y-118438094D01*
X166404819Y-118438094D02*
X166404819Y-118057142D01*
X166404819Y-118057142D02*
X166452438Y-117961904D01*
X166452438Y-117961904D02*
X166500057Y-117914285D01*
X166500057Y-117914285D02*
X166595295Y-117866666D01*
X166595295Y-117866666D02*
X166738152Y-117866666D01*
X166738152Y-117866666D02*
X166833390Y-117914285D01*
X166833390Y-117914285D02*
X166881009Y-117961904D01*
X166881009Y-117961904D02*
X166928628Y-118057142D01*
X166928628Y-118057142D02*
X166928628Y-118438094D01*
X166500057Y-117485713D02*
X166452438Y-117438094D01*
X166452438Y-117438094D02*
X166404819Y-117342856D01*
X166404819Y-117342856D02*
X166404819Y-117104761D01*
X166404819Y-117104761D02*
X166452438Y-117009523D01*
X166452438Y-117009523D02*
X166500057Y-116961904D01*
X166500057Y-116961904D02*
X166595295Y-116914285D01*
X166595295Y-116914285D02*
X166690533Y-116914285D01*
X166690533Y-116914285D02*
X166833390Y-116961904D01*
X166833390Y-116961904D02*
X167404819Y-117533332D01*
X167404819Y-117533332D02*
X167404819Y-116914285D01*
X170278679Y-120959475D02*
X170851099Y-121531895D01*
X170851099Y-121531895D02*
X170952114Y-121565567D01*
X170952114Y-121565567D02*
X171019458Y-121565567D01*
X171019458Y-121565567D02*
X171120473Y-121531895D01*
X171120473Y-121531895D02*
X171255160Y-121397208D01*
X171255160Y-121397208D02*
X171288832Y-121296193D01*
X171288832Y-121296193D02*
X171288832Y-121228849D01*
X171288832Y-121228849D02*
X171255160Y-121127834D01*
X171255160Y-121127834D02*
X170682740Y-120555414D01*
X172096954Y-120555414D02*
X171692893Y-120959475D01*
X171894923Y-120757445D02*
X171187817Y-120050338D01*
X171187817Y-120050338D02*
X171221488Y-120218697D01*
X171221488Y-120218697D02*
X171221488Y-120353384D01*
X171221488Y-120353384D02*
X171187817Y-120454399D01*
X188636411Y-128372112D02*
X188636411Y-128439456D01*
X188636411Y-128439456D02*
X188569067Y-128574143D01*
X188569067Y-128574143D02*
X188501724Y-128641486D01*
X188501724Y-128641486D02*
X188367037Y-128708830D01*
X188367037Y-128708830D02*
X188232350Y-128708830D01*
X188232350Y-128708830D02*
X188131335Y-128675158D01*
X188131335Y-128675158D02*
X187962976Y-128574143D01*
X187962976Y-128574143D02*
X187861961Y-128473128D01*
X187861961Y-128473128D02*
X187760945Y-128304769D01*
X187760945Y-128304769D02*
X187727274Y-128203754D01*
X187727274Y-128203754D02*
X187727274Y-128069067D01*
X187727274Y-128069067D02*
X187794617Y-127934380D01*
X187794617Y-127934380D02*
X187861961Y-127867036D01*
X187861961Y-127867036D02*
X187996648Y-127799693D01*
X187996648Y-127799693D02*
X188063991Y-127799693D01*
X189040472Y-128102738D02*
X189175159Y-127968051D01*
X189175159Y-127968051D02*
X189208831Y-127867036D01*
X189208831Y-127867036D02*
X189208831Y-127799693D01*
X189208831Y-127799693D02*
X189175159Y-127631334D01*
X189175159Y-127631334D02*
X189074144Y-127462975D01*
X189074144Y-127462975D02*
X188804770Y-127193601D01*
X188804770Y-127193601D02*
X188703754Y-127159929D01*
X188703754Y-127159929D02*
X188636411Y-127159929D01*
X188636411Y-127159929D02*
X188535396Y-127193601D01*
X188535396Y-127193601D02*
X188400709Y-127328288D01*
X188400709Y-127328288D02*
X188367037Y-127429303D01*
X188367037Y-127429303D02*
X188367037Y-127496647D01*
X188367037Y-127496647D02*
X188400709Y-127597662D01*
X188400709Y-127597662D02*
X188569067Y-127766021D01*
X188569067Y-127766021D02*
X188670083Y-127799693D01*
X188670083Y-127799693D02*
X188737426Y-127799693D01*
X188737426Y-127799693D02*
X188838441Y-127766021D01*
X188838441Y-127766021D02*
X188973128Y-127631334D01*
X188973128Y-127631334D02*
X189006800Y-127530319D01*
X189006800Y-127530319D02*
X189006800Y-127462975D01*
X189006800Y-127462975D02*
X188973128Y-127361960D01*
%TO.C,C11*%
D11*
X164278644Y-139083884D02*
X167983883Y-135378644D01*
X164516939Y-139322179D02*
X164278644Y-139083884D01*
X166216116Y-141021356D02*
X165977821Y-140783061D01*
X167983883Y-135378644D02*
X168222178Y-135616939D01*
X169683061Y-137077822D02*
X169921356Y-137316117D01*
X169921356Y-137316117D02*
X166216116Y-141021356D01*
%TO.C,C12*%
X186361252Y-150365000D02*
X185838748Y-150365000D01*
X186361252Y-151835000D02*
X185838748Y-151835000D01*
%TO.C,C3*%
X167490000Y-125159419D02*
X167490000Y-125440581D01*
X168510000Y-125159419D02*
X168510000Y-125440581D01*
%TO.C,C1*%
X184865000Y-147988748D02*
X184865000Y-148511252D01*
X186335000Y-147988748D02*
X186335000Y-148511252D01*
%TO.C,C5*%
X184438781Y-125839970D02*
X184239970Y-126038781D01*
X185160030Y-126561219D02*
X184961219Y-126760030D01*
%TO.C,Y1*%
X163973547Y-129716117D02*
X168689949Y-134432519D01*
X168689949Y-134432519D02*
X171532519Y-131589949D01*
X171532519Y-131589949D02*
X166816117Y-126873547D01*
%TO.C,C7*%
X167390000Y-122084420D02*
X167390000Y-122365580D01*
X168410000Y-122084420D02*
X168410000Y-122365580D01*
%TO.C,R1*%
X181019718Y-114340835D02*
X181340835Y-114019718D01*
X182059165Y-115380282D02*
X182380282Y-115059165D01*
%TO.C,C10*%
X163230000Y-120380000D02*
X163567000Y-120380000D01*
X163230000Y-125620000D02*
X163230000Y-120380000D01*
X163567000Y-125620000D02*
X163230000Y-125620000D01*
X165633000Y-120380000D02*
X165970000Y-120380000D01*
X165970000Y-120380000D02*
X165970000Y-125620000D01*
X165970000Y-125620000D02*
X165633000Y-125620000D01*
%TO.C,C13*%
X183338781Y-131060030D02*
X183139970Y-130861219D01*
X184060030Y-130338781D02*
X183861219Y-130139970D01*
%TO.C,C15*%
X178561252Y-147065000D02*
X178038748Y-147065000D01*
X178561252Y-148535000D02*
X178038748Y-148535000D01*
%TO.C,C2*%
X178561252Y-144965000D02*
X178038748Y-144965000D01*
X178561252Y-146435000D02*
X178038748Y-146435000D01*
%TO.C,J1*%
X168940000Y-104980000D02*
X168940000Y-103600000D01*
X170320000Y-104980000D02*
X168940000Y-104980000D01*
X171590000Y-102220000D02*
X181860000Y-102220000D01*
X171590000Y-104980000D02*
X171590000Y-102220000D01*
X171590000Y-104980000D02*
X181860000Y-104980000D01*
X181860000Y-104980000D02*
X181860000Y-102220000D01*
%TO.C,C6*%
X179138781Y-116839970D02*
X178939970Y-117038781D01*
X179860030Y-117561219D02*
X179661219Y-117760030D01*
%TO.C,SW1*%
X172203805Y-112318019D02*
X175385786Y-115500000D01*
X174148349Y-108605708D02*
X173087689Y-109666369D01*
X178037436Y-114616116D02*
X179098097Y-113555456D01*
X179981980Y-110903806D02*
X176800000Y-107721825D01*
%TO.C,U2*%
X181490000Y-145540000D02*
X183310000Y-145540000D01*
X181490000Y-145590000D02*
X181490000Y-145540000D01*
X181490000Y-148660000D02*
X181490000Y-148610000D01*
X183310000Y-145540000D02*
X183310000Y-145590000D01*
X183310000Y-146710000D02*
X183310000Y-147490000D01*
X183310000Y-148610000D02*
X183310000Y-148660000D01*
X183310000Y-148660000D02*
X181490000Y-148660000D01*
X180950000Y-145590000D02*
X180710000Y-145260000D01*
X181190000Y-145260000D01*
X180950000Y-145590000D01*
G36*
X180950000Y-145590000D02*
G01*
X180710000Y-145260000D01*
X181190000Y-145260000D01*
X180950000Y-145590000D01*
G37*
%TO.C,C8*%
X184738781Y-128239970D02*
X184539970Y-128438781D01*
X185460030Y-128961219D02*
X185261219Y-129160030D01*
%TO.C,C14*%
X186065010Y-131604457D02*
X185695543Y-131234990D01*
X187104457Y-130565010D02*
X186734990Y-130195543D01*
%TO.C,J4*%
X172720000Y-152080000D02*
X172720000Y-150700000D01*
X174100000Y-152080000D02*
X172720000Y-152080000D01*
X175370000Y-149320000D02*
X183100000Y-149320000D01*
X175370000Y-152080000D02*
X175370000Y-149320000D01*
X175370000Y-152080000D02*
X183100000Y-152080000D01*
X183100000Y-152080000D02*
X183100000Y-149320000D01*
%TO.C,C4*%
X174690000Y-135340580D02*
X174690000Y-135059420D01*
X175710000Y-135340580D02*
X175710000Y-135059420D01*
%TO.C,R2*%
X164565000Y-117472936D02*
X164565000Y-117927064D01*
X166035000Y-117472936D02*
X166035000Y-117927064D01*
%TO.C,U1*%
X169208888Y-126038819D02*
X169880639Y-125367068D01*
X169880639Y-126710570D02*
X169208888Y-126038819D01*
X175763768Y-119483939D02*
X176435519Y-118812188D01*
X176435519Y-118812188D02*
X177107270Y-119483939D01*
X176435519Y-133265450D02*
X175763768Y-132593699D01*
X177107270Y-132593699D02*
X176435519Y-133265450D01*
X182990399Y-125367068D02*
X183662150Y-126038819D01*
X183662150Y-126038819D02*
X182990399Y-126710570D01*
X169428091Y-127163119D02*
X168855334Y-127071195D01*
X169336167Y-126590362D01*
X169428091Y-127163119D01*
G36*
X169428091Y-127163119D02*
G01*
X168855334Y-127071195D01*
X169336167Y-126590362D01*
X169428091Y-127163119D01*
G37*
%TO.C,C9*%
X186695543Y-126265010D02*
X187065010Y-125895543D01*
X187734990Y-127304457D02*
X188104457Y-126934990D01*
%TD*%
M02*
