M48
; DRILL file KiCad 10.0.6 date 2026-10-01T11:39:36
; FORMAT={-:-/ absolute / metric / decimal}
; #@! TF.CreationDate,2026-10-01T11:39:36-07:00
; #@! TF.GenerationSoftware,Kicad,Pcbnew,10.0.6
; #@! TF.FileFunction,Plated,1,2,PTH
FMAT,2
METRIC
; #@! TA.AperFunction,Plated,PTH,ViaDrill
T1C0.300
; #@! TA.AperFunction,Plated,PTH,ComponentDrill
T2C0.800
; #@! TA.AperFunction,Plated,PTH,ComponentDrill
T3C1.000
; #@! TA.AperFunction,Plated,PTH,ComponentDrill
T4C1.100
%
G90
G05
T1
X170.8Y-125.627
X175.935Y-131.135
X176.4Y-126.0
X176.989Y-120.889
X180.182Y-128.018
X182.099Y-126.3
T2
X164.6Y-120.5
X164.6Y-125.5
X165.332Y-139.968
X168.868Y-136.432
T3
X159.835Y-101.825
X159.835Y-104.365
X159.835Y-106.905
X159.835Y-109.445
X159.835Y-111.985
X159.835Y-114.525
X159.835Y-117.065
X159.835Y-119.605
X159.835Y-122.145
X159.835Y-124.685
X159.835Y-127.225
X159.835Y-129.765
X159.835Y-132.305
X159.835Y-134.845
X159.835Y-137.385
X159.835Y-139.925
X159.835Y-142.465
X159.835Y-145.005
X159.835Y-147.545
X159.835Y-150.085
X162.375Y-101.825
X162.375Y-104.365
X162.375Y-106.905
X162.375Y-109.445
X162.375Y-111.985
X162.375Y-114.525
X162.375Y-117.065
X162.375Y-119.605
X162.375Y-122.145
X162.375Y-124.685
X162.375Y-127.225
X162.375Y-129.765
X162.375Y-132.305
X162.375Y-134.845
X162.375Y-137.385
X162.375Y-139.925
X162.375Y-142.465
X162.375Y-145.005
X162.375Y-147.545
X162.375Y-150.085
X170.32Y-103.6
X172.86Y-103.6
X174.1Y-150.7
X175.4Y-103.6
X176.64Y-150.7
X177.94Y-103.6
X179.18Y-150.7
X180.48Y-103.6
X181.72Y-150.7
X190.46Y-101.84
X190.46Y-104.38
X190.46Y-106.92
X190.46Y-109.46
X190.46Y-112.0
X190.46Y-114.54
X190.46Y-117.08
X190.46Y-119.62
X190.46Y-122.16
X190.46Y-124.7
X190.46Y-127.24
X190.46Y-129.78
X190.46Y-132.32
X190.46Y-134.86
X190.46Y-137.4
X190.46Y-139.94
X190.46Y-142.48
X190.46Y-145.02
X190.46Y-147.56
X190.46Y-150.1
X193.0Y-101.84
X193.0Y-104.38
X193.0Y-106.92
X193.0Y-109.46
X193.0Y-112.0
X193.0Y-114.54
X193.0Y-117.08
X193.0Y-119.62
X193.0Y-122.16
X193.0Y-124.7
X193.0Y-127.24
X193.0Y-129.78
X193.0Y-132.32
X193.0Y-134.86
X193.0Y-137.4
X193.0Y-139.94
X193.0Y-142.48
X193.0Y-145.02
X193.0Y-147.56
X193.0Y-150.1
T4
X172.204Y-110.904
X175.386Y-107.722
X176.8Y-115.5
X179.982Y-112.318
M30
