%TF.GenerationSoftware,KiCad,Pcbnew,10.0.6*%
%TF.CreationDate,2026-10-01T11:39:38-07:00*%
%TF.ProjectId,stm-module,73746d2d-6d6f-4647-956c-652e6b696361,rev?*%
%TF.SameCoordinates,Original*%
%TF.FileFunction,Soldermask,Bot*%
%TF.FilePolarity,Negative*%
%FSLAX46Y46*%
G04 Gerber Fmt 4.6, Leading zero omitted, Abs format (unit mm)*
G04 Created by KiCad (PCBNEW 10.0.6) date 2026-10-01 11:39:38*
%MOMM*%
%LPD*%
G01*
G04 APERTURE LIST*
%ADD10C,1.600000*%
%ADD11R,1.700000X1.700000*%
%ADD12C,1.700000*%
%ADD13C,2.000000*%
G04 APERTURE END LIST*
D10*
%TO.C,C11*%
X165332233Y-139967767D03*
X168867767Y-136432233D03*
%TD*%
%TO.C,C10*%
X164600000Y-120500000D03*
X164600000Y-125500000D03*
%TD*%
D11*
%TO.C,J1*%
X170320000Y-103600000D03*
D12*
X172860000Y-103600000D03*
X175400000Y-103600000D03*
X177940000Y-103600000D03*
X180480000Y-103600000D03*
%TD*%
D13*
%TO.C,SW1*%
X175385786Y-107721825D03*
X179981980Y-112318019D03*
X172203805Y-110903806D03*
X176800000Y-115500000D03*
%TD*%
D11*
%TO.C,J4*%
X174100000Y-150700000D03*
D12*
X176640000Y-150700000D03*
X179180000Y-150700000D03*
X181720000Y-150700000D03*
%TD*%
D11*
%TO.C,J2*%
X162375000Y-101825000D03*
D12*
X159835000Y-101825000D03*
X162375000Y-104365000D03*
X159835000Y-104365000D03*
X162375000Y-106905000D03*
X159835000Y-106905000D03*
X162375000Y-109445000D03*
X159835000Y-109445000D03*
X162375000Y-111985000D03*
X159835000Y-111985000D03*
X162375000Y-114525000D03*
X159835000Y-114525000D03*
X162375000Y-117065000D03*
X159835000Y-117065000D03*
X162375000Y-119605000D03*
X159835000Y-119605000D03*
X162375000Y-122145000D03*
X159835000Y-122145000D03*
X162375000Y-124685000D03*
X159835000Y-124685000D03*
X162375000Y-127225000D03*
X159835000Y-127225000D03*
X162375000Y-129765000D03*
X159835000Y-129765000D03*
X162375000Y-132305000D03*
X159835000Y-132305000D03*
X162375000Y-134845000D03*
X159835000Y-134845000D03*
X162375000Y-137385000D03*
X159835000Y-137385000D03*
X162375000Y-139925000D03*
X159835000Y-139925000D03*
X162375000Y-142465000D03*
X159835000Y-142465000D03*
X162375000Y-145005000D03*
X159835000Y-145005000D03*
X162375000Y-147545000D03*
X159835000Y-147545000D03*
X162375000Y-150085000D03*
X159835000Y-150085000D03*
%TD*%
D11*
%TO.C,J3*%
X193000000Y-101840000D03*
D12*
X190460000Y-101840000D03*
X193000000Y-104380000D03*
X190460000Y-104380000D03*
X193000000Y-106920000D03*
X190460000Y-106920000D03*
X193000000Y-109460000D03*
X190460000Y-109460000D03*
X193000000Y-112000000D03*
X190460000Y-112000000D03*
X193000000Y-114540000D03*
X190460000Y-114540000D03*
X193000000Y-117080000D03*
X190460000Y-117080000D03*
X193000000Y-119620000D03*
X190460000Y-119620000D03*
X193000000Y-122160000D03*
X190460000Y-122160000D03*
X193000000Y-124700000D03*
X190460000Y-124700000D03*
X193000000Y-127240000D03*
X190460000Y-127240000D03*
X193000000Y-129780000D03*
X190460000Y-129780000D03*
X193000000Y-132320000D03*
X190460000Y-132320000D03*
X193000000Y-134860000D03*
X190460000Y-134860000D03*
X193000000Y-137400000D03*
X190460000Y-137400000D03*
X193000000Y-139940000D03*
X190460000Y-139940000D03*
X193000000Y-142480000D03*
X190460000Y-142480000D03*
X193000000Y-145020000D03*
X190460000Y-145020000D03*
X193000000Y-147560000D03*
X190460000Y-147560000D03*
X193000000Y-150100000D03*
X190460000Y-150100000D03*
%TD*%
M02*
