%TF.GenerationSoftware,KiCad,Pcbnew,10.0.6-10.0.6~ubuntu26.04.1*%
%TF.CreationDate,2026-10-03T22:38:11-07:00*%
%TF.ProjectId,stm-module,73746d2d-6d6f-4647-956c-652e6b696361,rev?*%
%TF.SameCoordinates,Original*%
%TF.FileFunction,Copper,L1,Top*%
%TF.FilePolarity,Positive*%
%FSLAX46Y46*%
G04 Gerber Fmt 4.6, Leading zero omitted, Abs format (unit mm)*
G04 Created by KiCad (PCBNEW 10.0.6-10.0.6~ubuntu26.04.1) date 2026-10-03 22:38:11*
%MOMM*%
%LPD*%
G01*
G04 APERTURE LIST*
G04 Aperture macros list*
%AMRoundRect*
0 Rectangle with rounded corners*
0 $1 Rounding radius*
0 $2 $3 $4 $5 $6 $7 $8 $9 X,Y pos of 4 corners*
0 Add a 4 corners polygon primitive as box body*
4,1,4,$2,$3,$4,$5,$6,$7,$8,$9,$2,$3,0*
0 Add four circle primitives for the rounded corners*
1,1,$1+$1,$2,$3*
1,1,$1+$1,$4,$5*
1,1,$1+$1,$6,$7*
1,1,$1+$1,$8,$9*
0 Add four rect primitives between the rounded corners*
20,1,$1+$1,$2,$3,$4,$5,0*
20,1,$1+$1,$4,$5,$6,$7,0*
20,1,$1+$1,$6,$7,$8,$9,0*
20,1,$1+$1,$8,$9,$2,$3,0*%
G04 Aperture macros list end*
%TA.AperFunction,ComponentPad*%
%ADD10C,1.600000*%
%TD*%
%TA.AperFunction,SMDPad,CuDef*%
%ADD11RoundRect,0.250000X0.250000X0.475000X-0.250000X0.475000X-0.250000X-0.475000X0.250000X-0.475000X0*%
%TD*%
%TA.AperFunction,SMDPad,CuDef*%
%ADD12RoundRect,0.225000X-0.250000X0.225000X-0.250000X-0.225000X0.250000X-0.225000X0.250000X0.225000X0*%
%TD*%
%TA.AperFunction,SMDPad,CuDef*%
%ADD13RoundRect,0.250000X-0.475000X0.250000X-0.475000X-0.250000X0.475000X-0.250000X0.475000X0.250000X0*%
%TD*%
%TA.AperFunction,SMDPad,CuDef*%
%ADD14RoundRect,0.225000X-0.017678X0.335876X-0.335876X0.017678X0.017678X-0.335876X0.335876X-0.017678X0*%
%TD*%
%TA.AperFunction,SMDPad,CuDef*%
%ADD15RoundRect,0.250000X1.202082X0.212132X0.212132X1.202082X-1.202082X-0.212132X-0.212132X-1.202082X0*%
%TD*%
%TA.AperFunction,SMDPad,CuDef*%
%ADD16RoundRect,0.243750X0.456250X-0.243750X0.456250X0.243750X-0.456250X0.243750X-0.456250X-0.243750X0*%
%TD*%
%TA.AperFunction,SMDPad,CuDef*%
%ADD17RoundRect,0.250000X0.132583X-0.503814X0.503814X-0.132583X-0.132583X0.503814X-0.503814X0.132583X0*%
%TD*%
%TA.AperFunction,SMDPad,CuDef*%
%ADD18RoundRect,0.250000X0.450000X-0.262500X0.450000X0.262500X-0.450000X0.262500X-0.450000X-0.262500X0*%
%TD*%
%TA.AperFunction,ComponentPad*%
%ADD19C,0.700000*%
%TD*%
%TA.AperFunction,ComponentPad*%
%ADD20O,1.100000X1.900000*%
%TD*%
%TA.AperFunction,ComponentPad*%
%ADD21O,1.200000X1.600000*%
%TD*%
%TA.AperFunction,SMDPad,CuDef*%
%ADD22R,0.550000X1.100000*%
%TD*%
%TA.AperFunction,SMDPad,CuDef*%
%ADD23R,0.300000X1.100000*%
%TD*%
%TA.AperFunction,SMDPad,CuDef*%
%ADD24RoundRect,0.225000X0.335876X0.017678X0.017678X0.335876X-0.335876X-0.017678X-0.017678X-0.335876X0*%
%TD*%
%TA.AperFunction,SMDPad,CuDef*%
%ADD25RoundRect,0.250000X-0.450000X0.262500X-0.450000X-0.262500X0.450000X-0.262500X0.450000X0.262500X0*%
%TD*%
%TA.AperFunction,ComponentPad*%
%ADD26R,1.700000X1.700000*%
%TD*%
%TA.AperFunction,ComponentPad*%
%ADD27C,1.700000*%
%TD*%
%TA.AperFunction,SMDPad,CuDef*%
%ADD28RoundRect,0.250000X0.262500X0.450000X-0.262500X0.450000X-0.262500X-0.450000X0.262500X-0.450000X0*%
%TD*%
%TA.AperFunction,ComponentPad*%
%ADD29C,2.000000*%
%TD*%
%TA.AperFunction,SMDPad,CuDef*%
%ADD30RoundRect,0.250000X-0.262500X-0.450000X0.262500X-0.450000X0.262500X0.450000X-0.262500X0.450000X0*%
%TD*%
%TA.AperFunction,SMDPad,CuDef*%
%ADD31RoundRect,0.150000X-0.512500X-0.150000X0.512500X-0.150000X0.512500X0.150000X-0.512500X0.150000X0*%
%TD*%
%TA.AperFunction,SMDPad,CuDef*%
%ADD32RoundRect,0.250000X0.512652X0.159099X0.159099X0.512652X-0.512652X-0.159099X-0.159099X-0.512652X0*%
%TD*%
%TA.AperFunction,SMDPad,CuDef*%
%ADD33RoundRect,0.225000X0.250000X-0.225000X0.250000X0.225000X-0.250000X0.225000X-0.250000X-0.225000X0*%
%TD*%
%TA.AperFunction,SMDPad,CuDef*%
%ADD34RoundRect,0.075000X-0.441942X-0.548008X0.548008X0.441942X0.441942X0.548008X-0.548008X-0.441942X0*%
%TD*%
%TA.AperFunction,SMDPad,CuDef*%
%ADD35RoundRect,0.075000X0.441942X-0.548008X0.548008X-0.441942X-0.441942X0.548008X-0.548008X0.441942X0*%
%TD*%
%TA.AperFunction,SMDPad,CuDef*%
%ADD36RoundRect,0.250000X0.159099X-0.512652X0.512652X-0.159099X-0.159099X0.512652X-0.512652X0.159099X0*%
%TD*%
%TA.AperFunction,ViaPad*%
%ADD37C,0.600000*%
%TD*%
%TA.AperFunction,Conductor*%
%ADD38C,0.300000*%
%TD*%
%TA.AperFunction,Conductor*%
%ADD39C,0.250000*%
%TD*%
G04 APERTURE END LIST*
D10*
%TO.P,C11,1*%
%TO.N,GND*%
X165332233Y-139967767D03*
%TO.P,C11,2*%
%TO.N,Net-(U1-PF1)*%
X168867767Y-136432233D03*
%TD*%
D11*
%TO.P,C12,1*%
%TO.N,+3.3V*%
X187050000Y-151100000D03*
%TO.P,C12,2*%
%TO.N,GND*%
X185150000Y-151100000D03*
%TD*%
D12*
%TO.P,C3,1*%
%TO.N,GND*%
X168000000Y-124525000D03*
%TO.P,C3,2*%
%TO.N,+3.3V*%
X168000000Y-126075000D03*
%TD*%
D13*
%TO.P,C1,1*%
%TO.N,+3.3V*%
X185600000Y-147300000D03*
%TO.P,C1,2*%
%TO.N,GND*%
X185600000Y-149200000D03*
%TD*%
D14*
%TO.P,C5,1*%
%TO.N,GND*%
X185248008Y-125751992D03*
%TO.P,C5,2*%
%TO.N,+3.3V*%
X184151992Y-126848008D03*
%TD*%
D15*
%TO.P,Y1,1,1_1*%
%TO.N,Net-(U1-PF1)*%
X169255635Y-132155635D03*
%TO.P,Y1,2,2_2*%
%TO.N,Net-(U1-PF0)*%
X166144365Y-129044365D03*
%TD*%
D16*
%TO.P,D4,1,K_1*%
%TO.N,GND*%
X182300000Y-142037500D03*
%TO.P,D4,2,A_2*%
%TO.N,Net-(D4-A)*%
X182300000Y-140162500D03*
%TD*%
D12*
%TO.P,C7,1*%
%TO.N,GND*%
X167900000Y-121450000D03*
%TO.P,C7,2*%
%TO.N,+3.3V*%
X167900000Y-123000000D03*
%TD*%
D17*
%TO.P,R1,1*%
%TO.N,+3.3V*%
X180754765Y-115245235D03*
%TO.P,R1,2*%
%TO.N,/NRST*%
X182045235Y-113954765D03*
%TD*%
D16*
%TO.P,D2,1,K_1*%
%TO.N,GND*%
X178100000Y-142037500D03*
%TO.P,D2,2,A_2*%
%TO.N,Net-(D2-A)*%
X178100000Y-140162500D03*
%TD*%
D18*
%TO.P,R3,1*%
%TO.N,+3.3V*%
X173900000Y-142712500D03*
%TO.P,R3,2*%
%TO.N,Net-(D1-A)*%
X173900000Y-140887500D03*
%TD*%
D10*
%TO.P,C10,1*%
%TO.N,GND*%
X164600000Y-120500000D03*
%TO.P,C10,2*%
%TO.N,Net-(U1-PF0)*%
X164600000Y-125500000D03*
%TD*%
D19*
%TO.P,USB1,*%
%TO.N,*%
X185900000Y-103700000D03*
X180120000Y-103700000D03*
D20*
%TO.P,USB1,13,EH_13*%
%TO.N,GND*%
X187330000Y-104230000D03*
D21*
X187330000Y-100020000D03*
D20*
%TO.P,USB1,14,EH_14*%
X178690000Y-104230000D03*
D21*
X178690000Y-100020000D03*
D22*
%TO.P,USB1,A1B12,GND_A1B12*%
X186210000Y-104780000D03*
%TO.P,USB1,A4B9,VBUS_A4B9*%
%TO.N,unconnected-(USB1-VBUS-PadA4B9)*%
X185410000Y-104780000D03*
D23*
%TO.P,USB1,A5,CC1_A5*%
%TO.N,Net-(USB1-CC1)*%
X184260000Y-104780000D03*
%TO.P,USB1,A6,Dp1_A6*%
%TO.N,/D+*%
X183260000Y-104780000D03*
%TO.P,USB1,A7,Dn1_A7*%
%TO.N,/D-*%
X182760000Y-104780000D03*
%TO.P,USB1,A8,SBU1_A8*%
%TO.N,unconnected-(USB1-SBU1-PadA8)*%
X181760000Y-104780000D03*
D22*
%TO.P,USB1,B1A12,GND_B1A12*%
%TO.N,GND*%
X179810000Y-104780000D03*
%TO.P,USB1,B4A9,VBUS_B4A9*%
%TO.N,unconnected-(USB1-VBUS-PadB4A9)*%
X180610000Y-104780000D03*
D23*
%TO.P,USB1,B5,CC2_B5*%
%TO.N,Net-(USB1-CC2)*%
X181260000Y-104780000D03*
%TO.P,USB1,B6,Dp2_B6*%
%TO.N,/D+*%
X182260000Y-104780000D03*
%TO.P,USB1,B7,Dn2_B7*%
%TO.N,/D-*%
X183760000Y-104780000D03*
%TO.P,USB1,B8,SBU2_B8*%
%TO.N,unconnected-(USB1-SBU2-PadB8)*%
X184760000Y-104780000D03*
%TD*%
D24*
%TO.P,C13,1*%
%TO.N,GND*%
X184148008Y-131148008D03*
%TO.P,C13,2*%
%TO.N,+3.3V*%
X183051992Y-130051992D03*
%TD*%
D11*
%TO.P,C15,1*%
%TO.N,+5V*%
X179250000Y-147800000D03*
%TO.P,C15,2*%
%TO.N,GND*%
X177350000Y-147800000D03*
%TD*%
%TO.P,C2,1*%
%TO.N,+5V*%
X179250000Y-145700000D03*
%TO.P,C2,2*%
%TO.N,GND*%
X177350000Y-145700000D03*
%TD*%
D25*
%TO.P,R4,1*%
%TO.N,/PA3*%
X178100000Y-136787500D03*
%TO.P,R4,2*%
%TO.N,Net-(D2-A)*%
X178100000Y-138612500D03*
%TD*%
D16*
%TO.P,D1,1,K_1*%
%TO.N,GND*%
X176000000Y-142037500D03*
%TO.P,D1,2,A_2*%
%TO.N,Net-(D1-A)*%
X176000000Y-140162500D03*
%TD*%
D26*
%TO.P,J1,1,Pin_1_1*%
%TO.N,/NRST*%
X165420000Y-101350000D03*
D27*
%TO.P,J1,2,Pin_2_2*%
%TO.N,/PA13*%
X167960000Y-101350000D03*
%TO.P,J1,3,Pin_3_3*%
%TO.N,/PA14*%
X170500000Y-101350000D03*
%TO.P,J1,4,Pin_4_4*%
%TO.N,GND*%
X173040000Y-101350000D03*
%TO.P,J1,5,Pin_5_5*%
%TO.N,+3.3V*%
X175580000Y-101350000D03*
%TD*%
D14*
%TO.P,C6,1*%
%TO.N,GND*%
X179948008Y-116751992D03*
%TO.P,C6,2*%
%TO.N,+3.3V*%
X178851992Y-117848008D03*
%TD*%
D25*
%TO.P,R5,1*%
%TO.N,/PA4*%
X180200000Y-136787500D03*
%TO.P,R5,2*%
%TO.N,Net-(D3-A)*%
X180200000Y-138612500D03*
%TD*%
D28*
%TO.P,R7,1*%
%TO.N,GND*%
X186612500Y-106500000D03*
%TO.P,R7,2*%
%TO.N,Net-(USB1-CC1)*%
X184787500Y-106500000D03*
%TD*%
D29*
%TO.P,SW1,1,1_1*%
%TO.N,GND*%
X176700000Y-115450000D03*
X172103806Y-110853806D03*
%TO.P,SW1,2,2_2*%
%TO.N,/NRST*%
X179881981Y-112268019D03*
X175285786Y-107671825D03*
%TD*%
D30*
%TO.P,R8,1*%
%TO.N,GND*%
X179387500Y-106700000D03*
%TO.P,R8,2*%
%TO.N,Net-(USB1-CC2)*%
X181212500Y-106700000D03*
%TD*%
D31*
%TO.P,U2,1,IN_1*%
%TO.N,+5V*%
X181262500Y-146150000D03*
%TO.P,U2,2,GND_2*%
%TO.N,GND*%
X181262500Y-147100000D03*
%TO.P,U2,3,EN_3*%
%TO.N,+5V*%
X181262500Y-148050000D03*
%TO.P,U2,4,NC_4*%
%TO.N,unconnected-(U2-NC-Pad4)*%
X183537500Y-148050000D03*
%TO.P,U2,5,OUT_5*%
%TO.N,+3.3V*%
X183537500Y-146150000D03*
%TD*%
D14*
%TO.P,C8,1*%
%TO.N,GND*%
X185548008Y-128151992D03*
%TO.P,C8,2*%
%TO.N,+3.3V*%
X184451992Y-129248008D03*
%TD*%
D32*
%TO.P,C14,1*%
%TO.N,GND*%
X187071751Y-131571751D03*
%TO.P,C14,2*%
%TO.N,+3.3V*%
X185728249Y-130228249D03*
%TD*%
D26*
%TO.P,J4,1,Pin_1_1*%
%TO.N,+5V*%
X174100000Y-150700000D03*
D27*
%TO.P,J4,2,Pin_2_2*%
%TO.N,GND*%
X176640000Y-150700000D03*
%TO.P,J4,3,Pin_3_3*%
%TO.N,+5V*%
X179180000Y-150700000D03*
%TO.P,J4,4,Pin_4_4*%
%TO.N,GND*%
X181720000Y-150700000D03*
%TD*%
D33*
%TO.P,C4,1*%
%TO.N,GND*%
X175200000Y-135975000D03*
%TO.P,C4,2*%
%TO.N,+3.3V*%
X175200000Y-134425000D03*
%TD*%
D25*
%TO.P,R2,1*%
%TO.N,/PB8*%
X165300000Y-116787500D03*
%TO.P,R2,2*%
%TO.N,GND*%
X165300000Y-118612500D03*
%TD*%
D34*
%TO.P,U1,1,VBAT_1*%
%TO.N,+3.3V*%
X169771038Y-127400000D03*
%TO.P,U1,2,PC13_2*%
%TO.N,/PC13*%
X170124591Y-127753553D03*
%TO.P,U1,3,PC14_3*%
%TO.N,/PC14*%
X170478144Y-128107106D03*
%TO.P,U1,4,PC15_4*%
%TO.N,/PC15*%
X170831698Y-128460660D03*
%TO.P,U1,5,PF0_5*%
%TO.N,Net-(U1-PF0)*%
X171185251Y-128814213D03*
%TO.P,U1,6,PF1_6*%
%TO.N,Net-(U1-PF1)*%
X171538805Y-129167767D03*
%TO.P,U1,7,PG10_7*%
%TO.N,/NRST*%
X171892358Y-129521320D03*
%TO.P,U1,8,PC0_8*%
%TO.N,/PC0*%
X172245911Y-129874873D03*
%TO.P,U1,9,PC1_9*%
%TO.N,/PC1*%
X172599465Y-130228427D03*
%TO.P,U1,10,PC2_10*%
%TO.N,/PC2*%
X172953018Y-130581980D03*
%TO.P,U1,11,PC3_11*%
%TO.N,/PC3*%
X173306571Y-130935533D03*
%TO.P,U1,12,PA0_12*%
%TO.N,/PA0*%
X173660125Y-131289087D03*
%TO.P,U1,13,PA1_13*%
%TO.N,/PA1*%
X174013678Y-131642640D03*
%TO.P,U1,14,PA2_14*%
%TO.N,/PA2*%
X174367232Y-131996194D03*
%TO.P,U1,15,VSS_15*%
%TO.N,GND*%
X174720785Y-132349747D03*
%TO.P,U1,16,VDD_16*%
%TO.N,+3.3V*%
X175074338Y-132703300D03*
D35*
%TO.P,U1,17,PA3_17*%
%TO.N,/PA3*%
X177796700Y-132703300D03*
%TO.P,U1,18,PA4_18*%
%TO.N,/PA4*%
X178150253Y-132349747D03*
%TO.P,U1,19,PA5_19*%
%TO.N,/PA5*%
X178503806Y-131996194D03*
%TO.P,U1,20,PA6_20*%
%TO.N,/PA6*%
X178857360Y-131642640D03*
%TO.P,U1,21,PA7_21*%
%TO.N,/PA7*%
X179210913Y-131289087D03*
%TO.P,U1,22,PC4_22*%
%TO.N,/PC4*%
X179564467Y-130935533D03*
%TO.P,U1,23,PC5_23*%
%TO.N,/PC5*%
X179918020Y-130581980D03*
%TO.P,U1,24,PB0_24*%
%TO.N,/PB0*%
X180271573Y-130228427D03*
%TO.P,U1,25,PB1_25*%
%TO.N,/PB1*%
X180625127Y-129874873D03*
%TO.P,U1,26,PB2_26*%
%TO.N,/PB2*%
X180978680Y-129521320D03*
%TO.P,U1,27,VSSA_27*%
%TO.N,GND*%
X181332233Y-129167767D03*
%TO.P,U1,28,VREF+_28*%
%TO.N,+3.3V*%
X181685787Y-128814213D03*
%TO.P,U1,29,VDDA_29*%
X182039340Y-128460660D03*
%TO.P,U1,30,PB10_30*%
%TO.N,/PB10*%
X182392894Y-128107106D03*
%TO.P,U1,31,VSS_31*%
%TO.N,GND*%
X182746447Y-127753553D03*
%TO.P,U1,32,VDD_32*%
%TO.N,+3.3V*%
X183100000Y-127400000D03*
D34*
%TO.P,U1,33,PB11_33*%
%TO.N,/PB11*%
X183100000Y-124677638D03*
%TO.P,U1,34,PB12_34*%
%TO.N,/PB12*%
X182746447Y-124324085D03*
%TO.P,U1,35,PB13_35*%
%TO.N,/PB13*%
X182392894Y-123970532D03*
%TO.P,U1,36,PB14_36*%
%TO.N,/PB14*%
X182039340Y-123616978D03*
%TO.P,U1,37,PB15_37*%
%TO.N,/PB15*%
X181685787Y-123263425D03*
%TO.P,U1,38,PC6_38*%
%TO.N,/PC6*%
X181332233Y-122909871D03*
%TO.P,U1,39,PC7_39*%
%TO.N,/PC7*%
X180978680Y-122556318D03*
%TO.P,U1,40,PC8_40*%
%TO.N,/PC8*%
X180625127Y-122202765D03*
%TO.P,U1,41,PC9_41*%
%TO.N,/PC9*%
X180271573Y-121849211D03*
%TO.P,U1,42,PA8_42*%
%TO.N,/PA8*%
X179918020Y-121495658D03*
%TO.P,U1,43,PA9_43*%
%TO.N,/PA9*%
X179564467Y-121142105D03*
%TO.P,U1,44,PA10_44*%
%TO.N,/PA10*%
X179210913Y-120788551D03*
%TO.P,U1,45,PA11_45*%
%TO.N,/D-*%
X178857360Y-120434998D03*
%TO.P,U1,46,PA12_46*%
%TO.N,/D+*%
X178503806Y-120081444D03*
%TO.P,U1,47,VSS_47*%
%TO.N,GND*%
X178150253Y-119727891D03*
%TO.P,U1,48,VDD_48*%
%TO.N,+3.3V*%
X177796700Y-119374338D03*
D35*
%TO.P,U1,49,PA13_49*%
%TO.N,/PA13*%
X175074338Y-119374338D03*
%TO.P,U1,50,PA14_50*%
%TO.N,/PA14*%
X174720785Y-119727891D03*
%TO.P,U1,51,PA15_51*%
%TO.N,/PA15*%
X174367232Y-120081444D03*
%TO.P,U1,52,PC10_52*%
%TO.N,/PC10*%
X174013678Y-120434998D03*
%TO.P,U1,53,PC11_53*%
%TO.N,/PC11*%
X173660125Y-120788551D03*
%TO.P,U1,54,PC12_54*%
%TO.N,/PC12*%
X173306571Y-121142105D03*
%TO.P,U1,55,PD2_55*%
%TO.N,/PD2*%
X172953018Y-121495658D03*
%TO.P,U1,56,PB3_56*%
%TO.N,/PB3*%
X172599465Y-121849211D03*
%TO.P,U1,57,PB4_57*%
%TO.N,/PB4*%
X172245911Y-122202765D03*
%TO.P,U1,58,PB5_58*%
%TO.N,/PB5*%
X171892358Y-122556318D03*
%TO.P,U1,59,PB6_59*%
%TO.N,/PB6*%
X171538805Y-122909871D03*
%TO.P,U1,60,PB7_60*%
%TO.N,/PB7*%
X171185251Y-123263425D03*
%TO.P,U1,61,PB8_61*%
%TO.N,/PB8*%
X170831698Y-123616978D03*
%TO.P,U1,62,PB9_62*%
%TO.N,/PB9*%
X170478144Y-123970532D03*
%TO.P,U1,63,VSS_63*%
%TO.N,GND*%
X170124591Y-124324085D03*
%TO.P,U1,64,VDD_64*%
%TO.N,+3.3V*%
X169771038Y-124677638D03*
%TD*%
D25*
%TO.P,R6,1*%
%TO.N,/PA5*%
X182300000Y-136787500D03*
%TO.P,R6,2*%
%TO.N,Net-(D4-A)*%
X182300000Y-138612500D03*
%TD*%
D16*
%TO.P,D3,1,K_1*%
%TO.N,GND*%
X180200000Y-142037500D03*
%TO.P,D3,2,A_2*%
%TO.N,Net-(D3-A)*%
X180200000Y-140162500D03*
%TD*%
D36*
%TO.P,C9,1*%
%TO.N,+3.3V*%
X186728249Y-127271751D03*
%TO.P,C9,2*%
%TO.N,GND*%
X188071751Y-125928249D03*
%TD*%
D26*
%TO.P,J2,1,Pin_1_1*%
%TO.N,GND*%
X162375000Y-101825000D03*
D27*
%TO.P,J2,2,Pin_2_2*%
%TO.N,/PA13*%
X159835000Y-101825000D03*
%TO.P,J2,3,Pin_3_3*%
%TO.N,/PA14*%
X162375000Y-104365000D03*
%TO.P,J2,4,Pin_4_4*%
%TO.N,/PA15*%
X159835000Y-104365000D03*
%TO.P,J2,5,Pin_5_5*%
%TO.N,/PC10*%
X162375000Y-106905000D03*
%TO.P,J2,6,Pin_6_6*%
%TO.N,/PC11*%
X159835000Y-106905000D03*
%TO.P,J2,7,Pin_7_7*%
%TO.N,/PC12*%
X162375000Y-109445000D03*
%TO.P,J2,8,Pin_8_8*%
%TO.N,/PD2*%
X159835000Y-109445000D03*
%TO.P,J2,9,Pin_9_9*%
%TO.N,/PB3*%
X162375000Y-111985000D03*
%TO.P,J2,10,Pin_10_10*%
%TO.N,/PB4*%
X159835000Y-111985000D03*
%TO.P,J2,11,Pin_11_11*%
%TO.N,/PB5*%
X162375000Y-114525000D03*
%TO.P,J2,12,Pin_12_12*%
%TO.N,/PB6*%
X159835000Y-114525000D03*
%TO.P,J2,13,Pin_13_13*%
%TO.N,/PB7*%
X162375000Y-117065000D03*
%TO.P,J2,14,Pin_14_14*%
%TO.N,/PB8*%
X159835000Y-117065000D03*
%TO.P,J2,15,Pin_15_15*%
%TO.N,/PB9*%
X162375000Y-119605000D03*
%TO.P,J2,16,Pin_16_16*%
%TO.N,+3.3V*%
X159835000Y-119605000D03*
%TO.P,J2,17,Pin_17_17*%
%TO.N,/PC13*%
X162375000Y-122145000D03*
%TO.P,J2,18,Pin_18_18*%
%TO.N,/PC14*%
X159835000Y-122145000D03*
%TO.P,J2,19,Pin_19_19*%
%TO.N,/PC15*%
X162375000Y-124685000D03*
%TO.P,J2,20,Pin_20_20*%
%TO.N,GND*%
X159835000Y-124685000D03*
%TO.P,J2,21,Pin_21_21*%
X162375000Y-127225000D03*
%TO.P,J2,22,Pin_22_22*%
X159835000Y-127225000D03*
%TO.P,J2,23,Pin_23_23*%
X162375000Y-129765000D03*
%TO.P,J2,24,Pin_24_24*%
X159835000Y-129765000D03*
%TO.P,J2,25,Pin_25_25*%
X162375000Y-132305000D03*
%TO.P,J2,26,Pin_26_26*%
X159835000Y-132305000D03*
%TO.P,J2,27,Pin_27_27*%
X162375000Y-134845000D03*
%TO.P,J2,28,Pin_28_28*%
X159835000Y-134845000D03*
%TO.P,J2,29,Pin_29_29*%
X162375000Y-137385000D03*
%TO.P,J2,30,Pin_30_30*%
X159835000Y-137385000D03*
%TO.P,J2,31,Pin_31_31*%
X162375000Y-139925000D03*
%TO.P,J2,32,Pin_32_32*%
X159835000Y-139925000D03*
%TO.P,J2,33,Pin_33_33*%
%TO.N,/PC0*%
X162375000Y-142465000D03*
%TO.P,J2,34,Pin_34_34*%
%TO.N,GND*%
X159835000Y-142465000D03*
%TO.P,J2,35,Pin_35_35*%
%TO.N,/PC2*%
X162375000Y-145005000D03*
%TO.P,J2,36,Pin_36_36*%
%TO.N,/PC1*%
X159835000Y-145005000D03*
%TO.P,J2,37,Pin_37_37*%
%TO.N,/PA0*%
X162375000Y-147545000D03*
%TO.P,J2,38,Pin_38_38*%
%TO.N,/PC3*%
X159835000Y-147545000D03*
%TO.P,J2,39,Pin_39_39*%
%TO.N,/PA2*%
X162375000Y-150085000D03*
%TO.P,J2,40,Pin_40_40*%
%TO.N,/PA1*%
X159835000Y-150085000D03*
%TD*%
D26*
%TO.P,J3,1,Pin_1_1*%
%TO.N,GND*%
X193000000Y-101840000D03*
D27*
%TO.P,J3,2,Pin_2_2*%
%TO.N,/D+*%
X190460000Y-101840000D03*
%TO.P,J3,3,Pin_3_3*%
%TO.N,/PA10*%
X193000000Y-104380000D03*
%TO.P,J3,4,Pin_4_4*%
%TO.N,/D-*%
X190460000Y-104380000D03*
%TO.P,J3,5,Pin_5_5*%
%TO.N,/PA8*%
X193000000Y-106920000D03*
%TO.P,J3,6,Pin_6_6*%
%TO.N,/PA9*%
X190460000Y-106920000D03*
%TO.P,J3,7,Pin_7_7*%
%TO.N,/PC8*%
X193000000Y-109460000D03*
%TO.P,J3,8,Pin_8_8*%
%TO.N,/PC9*%
X190460000Y-109460000D03*
%TO.P,J3,9,Pin_9_9*%
%TO.N,/PC6*%
X193000000Y-112000000D03*
%TO.P,J3,10,Pin_10_10*%
%TO.N,/PC7*%
X190460000Y-112000000D03*
%TO.P,J3,11,Pin_11_11*%
%TO.N,/PB14*%
X193000000Y-114540000D03*
%TO.P,J3,12,Pin_12_12*%
%TO.N,/PB15*%
X190460000Y-114540000D03*
%TO.P,J3,13,Pin_13_13*%
%TO.N,/PB12*%
X193000000Y-117080000D03*
%TO.P,J3,14,Pin_14_14*%
%TO.N,/PB13*%
X190460000Y-117080000D03*
%TO.P,J3,15,Pin_15_15*%
%TO.N,/PB10*%
X193000000Y-119620000D03*
%TO.P,J3,16,Pin_16_16*%
%TO.N,/PB11*%
X190460000Y-119620000D03*
%TO.P,J3,17,Pin_17_17*%
%TO.N,GND*%
X193000000Y-122160000D03*
%TO.P,J3,18,Pin_18_18*%
X190460000Y-122160000D03*
%TO.P,J3,19,Pin_19_19*%
X193000000Y-124700000D03*
%TO.P,J3,20,Pin_20_20*%
X190460000Y-124700000D03*
%TO.P,J3,21,Pin_21_21*%
X193000000Y-127240000D03*
%TO.P,J3,22,Pin_22_22*%
X190460000Y-127240000D03*
%TO.P,J3,23,Pin_23_23*%
X193000000Y-129780000D03*
%TO.P,J3,24,Pin_24_24*%
X190460000Y-129780000D03*
%TO.P,J3,25,Pin_25_25*%
X193000000Y-132320000D03*
%TO.P,J3,26,Pin_26_26*%
X190460000Y-132320000D03*
%TO.P,J3,27,Pin_27_27*%
X193000000Y-134860000D03*
%TO.P,J3,28,Pin_28_28*%
X190460000Y-134860000D03*
%TO.P,J3,29,Pin_29_29*%
X193000000Y-137400000D03*
%TO.P,J3,30,Pin_30_30*%
X190460000Y-137400000D03*
%TO.P,J3,31,Pin_31_31*%
%TO.N,/PB2*%
X193000000Y-139940000D03*
%TO.P,J3,32,Pin_32_32*%
%TO.N,/PB1*%
X190460000Y-139940000D03*
%TO.P,J3,33,Pin_33_33*%
%TO.N,/PB0*%
X193000000Y-142480000D03*
%TO.P,J3,34,Pin_34_34*%
%TO.N,/PC5*%
X190460000Y-142480000D03*
%TO.P,J3,35,Pin_35_35*%
%TO.N,/PC4*%
X193000000Y-145020000D03*
%TO.P,J3,36,Pin_36_36*%
%TO.N,/PA7*%
X190460000Y-145020000D03*
%TO.P,J3,37,Pin_37_37*%
%TO.N,/PA6*%
X193000000Y-147560000D03*
%TO.P,J3,38,Pin_38_38*%
%TO.N,/PA5*%
X190460000Y-147560000D03*
%TO.P,J3,39,Pin_39_39*%
%TO.N,/PA4*%
X193000000Y-150100000D03*
%TO.P,J3,40,Pin_40_40*%
%TO.N,/PA3*%
X190460000Y-150100000D03*
%TD*%
D37*
%TO.N,GND*%
X182098849Y-126300000D03*
X176400000Y-126000000D03*
X180182233Y-128017767D03*
X176989072Y-120889072D03*
X175935266Y-131135266D03*
X170800000Y-125627115D03*
%TD*%
%TO.N,GND*%
D38*
X182000000Y-126398849D02*
X182000000Y-127007106D01*
D39*
X170800000Y-125627115D02*
X169102115Y-125627115D01*
D38*
X181686262Y-147100000D02*
X182275000Y-147688738D01*
X179948008Y-117930136D02*
X178150253Y-119727891D01*
X178150253Y-119727891D02*
X176989072Y-120889072D01*
X170800000Y-124999494D02*
X170124591Y-124324085D01*
X182275000Y-150145000D02*
X181720000Y-150700000D01*
X182098849Y-126300000D02*
X182000000Y-126398849D01*
X191131752Y-137400000D02*
X190460000Y-137400000D01*
X174720785Y-132349747D02*
X175935266Y-131135266D01*
X182275000Y-147688738D02*
X182275000Y-150145000D01*
X175341709Y-131728825D02*
X174720785Y-132349747D01*
X170800000Y-125627115D02*
X170800000Y-124999494D01*
X181332233Y-129167767D02*
X180182233Y-128017767D01*
D39*
X169102115Y-125627115D02*
X168000000Y-124525000D01*
D38*
X170124591Y-124324085D02*
X170124591Y-124324591D01*
X181262500Y-147100000D02*
X181686262Y-147100000D01*
X182000000Y-127007106D02*
X182746447Y-127753553D01*
X179948008Y-116751992D02*
X179948008Y-117930136D01*
%TO.N,Net-(U1-PF1)*%
D39*
X168300000Y-130800000D02*
X168300000Y-131200000D01*
X169255635Y-132155635D02*
X169255635Y-136044365D01*
X168300000Y-131200000D02*
X169255635Y-132155635D01*
X168950523Y-130149477D02*
X168300000Y-130800000D01*
X171538805Y-129167767D02*
X170557095Y-130149477D01*
X170557095Y-130149477D02*
X168950523Y-130149477D01*
X169255635Y-136044365D02*
X168867767Y-136432233D01*
%TO.N,+3.3V*%
D38*
X184382014Y-129178030D02*
X182756710Y-129178030D01*
X185600000Y-147300000D02*
X187050000Y-148750000D01*
X187050000Y-152500000D02*
X187100000Y-152550000D01*
X184451992Y-128081282D02*
X185333274Y-127200000D01*
X159342894Y-99250000D02*
X157350000Y-101242894D01*
X178130000Y-98800000D02*
X175580000Y-101350000D01*
X165550000Y-152550000D02*
X164200000Y-151200000D01*
X186728249Y-127271751D02*
X186728249Y-125671751D01*
X163847943Y-121647943D02*
X163100000Y-120900000D01*
X176635786Y-111842153D02*
X180038868Y-115245235D01*
X165550000Y-152550000D02*
X187100000Y-152550000D01*
X194240000Y-123400000D02*
X195350000Y-124510000D01*
X180754765Y-115245235D02*
X180038868Y-115245235D01*
X175200000Y-134325000D02*
X175200000Y-132828962D01*
X186728249Y-125671751D02*
X185600000Y-126800000D01*
X192900000Y-98800000D02*
X178130000Y-98800000D01*
X167900000Y-123000000D02*
X168093400Y-123000000D01*
X157350000Y-150800000D02*
X159100000Y-152550000D01*
X183651992Y-126848008D02*
X183100000Y-127400000D01*
X195350000Y-124510000D02*
X195350000Y-101250000D01*
X184151992Y-126848008D02*
X183651992Y-126848008D01*
X183537500Y-146150000D02*
X184450000Y-146150000D01*
X184200000Y-126800000D02*
X184151992Y-126848008D01*
X195350000Y-129300000D02*
X195350000Y-127050000D01*
X164200000Y-148689849D02*
X170044924Y-142844924D01*
X169771038Y-127400000D02*
X169225000Y-127400000D01*
X175200000Y-132828962D02*
X175074338Y-132703300D01*
X194000000Y-131100000D02*
X195350000Y-132450000D01*
X183051992Y-130051992D02*
X182923566Y-130051992D01*
X161130000Y-120900000D02*
X159835000Y-119605000D01*
X189896498Y-131100000D02*
X194000000Y-131100000D01*
X183100000Y-130100000D02*
X185600000Y-130100000D01*
X195350000Y-124510000D02*
X195350000Y-127050000D01*
X180038868Y-115245235D02*
X178851992Y-116432111D01*
X187100000Y-152550000D02*
X193750000Y-152550000D01*
X185728249Y-130228249D02*
X189024747Y-130228249D01*
X164200000Y-151200000D02*
X164200000Y-148689849D01*
X187050000Y-148750000D02*
X187050000Y-151100000D01*
X195350000Y-150950000D02*
X195350000Y-140452943D01*
X167175000Y-125250000D02*
X167175000Y-124430457D01*
X185600000Y-126800000D02*
X184200000Y-126800000D01*
D39*
X173900000Y-142712500D02*
X170177348Y-142712500D01*
D38*
X182756710Y-129178030D02*
X182039340Y-128460660D01*
X186656498Y-127200000D02*
X186728249Y-127271751D01*
X193750000Y-152550000D02*
X195350000Y-150950000D01*
X175580000Y-101350000D02*
X173480000Y-99250000D01*
X165744544Y-123000000D02*
X165722272Y-122977728D01*
X165722272Y-122977728D02*
X164392486Y-121647943D01*
D39*
X170177348Y-142712500D02*
X170044924Y-142844924D01*
D38*
X169225000Y-127400000D02*
X167900000Y-126075000D01*
X159835000Y-119605000D02*
X157350000Y-122090000D01*
X173480000Y-99250000D02*
X159342894Y-99250000D01*
X178851992Y-118319046D02*
X178851992Y-117848008D01*
X184450000Y-146150000D02*
X185600000Y-147300000D01*
X170044924Y-142844924D02*
X174246308Y-138643541D01*
X163100000Y-120900000D02*
X161130000Y-120900000D01*
X164392486Y-121647943D02*
X163847943Y-121647943D01*
X187050000Y-151100000D02*
X187050000Y-152500000D01*
X195350000Y-132450000D02*
X195350000Y-140452943D01*
X195350000Y-129750000D02*
X195350000Y-129300000D01*
X167900000Y-123000000D02*
X165744544Y-123000000D01*
X185333274Y-127200000D02*
X186656498Y-127200000D01*
X189024747Y-130228249D02*
X189896498Y-131100000D01*
X177796700Y-119374338D02*
X178851992Y-118319046D01*
X189000000Y-123400000D02*
X194240000Y-123400000D01*
X168000000Y-126075000D02*
X167175000Y-125250000D01*
X157350000Y-122090000D02*
X157350000Y-150800000D01*
X157350000Y-101242894D02*
X157350000Y-122090000D01*
X183051992Y-130051992D02*
X183100000Y-130100000D01*
X182923566Y-130051992D02*
X181685787Y-128814213D01*
X195350000Y-129750000D02*
X195350000Y-132450000D01*
X174246308Y-138643541D02*
X174246308Y-135278692D01*
X175580000Y-101350000D02*
X176635786Y-102405786D01*
X184451992Y-129248008D02*
X184451992Y-128081282D01*
X195350000Y-101250000D02*
X192900000Y-98800000D01*
X174246308Y-135278692D02*
X175200000Y-134325000D01*
X178851992Y-116432111D02*
X178851992Y-117848008D01*
X184451992Y-129248008D02*
X184382014Y-129178030D01*
X168093400Y-123000000D02*
X169771038Y-124677638D01*
X167175000Y-124430457D02*
X165722272Y-122977728D01*
X185600000Y-130100000D02*
X185728249Y-130228249D01*
X186728249Y-125671751D02*
X189000000Y-123400000D01*
X159100000Y-152550000D02*
X165550000Y-152550000D01*
X176635786Y-102405786D02*
X176635786Y-111842153D01*
%TO.N,Net-(U1-PF0)*%
D39*
X164400000Y-126700000D02*
X164600000Y-126500000D01*
X166799477Y-129699477D02*
X166144365Y-129044365D01*
X170299987Y-129699477D02*
X166799477Y-129699477D01*
X164600000Y-126500000D02*
X164600000Y-125500000D01*
X164400000Y-127300000D02*
X164400000Y-126700000D01*
X171185251Y-128814213D02*
X170299987Y-129699477D01*
X166144365Y-129044365D02*
X164400000Y-127300000D01*
%TO.N,Net-(D4-A)*%
X182300000Y-138612500D02*
X182300000Y-140162500D01*
%TO.N,/NRST*%
X175285786Y-107671825D02*
X171741825Y-107671825D01*
X182045235Y-113954765D02*
X180358489Y-112268019D01*
X171892358Y-129521320D02*
X176200000Y-125213678D01*
X176200000Y-125213678D02*
X176200000Y-117600000D01*
X175285786Y-116685786D02*
X175285786Y-107671825D01*
X171741825Y-107671825D02*
X165420000Y-101350000D01*
X180358489Y-112268019D02*
X179881981Y-112268019D01*
X176200000Y-117600000D02*
X175285786Y-116685786D01*
%TO.N,Net-(D2-A)*%
X178100000Y-138612500D02*
X178100000Y-140162500D01*
%TO.N,Net-(D1-A)*%
X174625000Y-140162500D02*
X173900000Y-140887500D01*
X176000000Y-140162500D02*
X174625000Y-140162500D01*
%TO.N,+5V*%
D38*
X180838738Y-148050000D02*
X181262500Y-148050000D01*
X179250000Y-145700000D02*
X180812500Y-145700000D01*
X177980000Y-151900000D02*
X179180000Y-150700000D01*
X180250000Y-147461262D02*
X180838738Y-148050000D01*
X174100000Y-150700000D02*
X175300000Y-151900000D01*
X180838738Y-146150000D02*
X180250000Y-146738738D01*
X179250000Y-147800000D02*
X179250000Y-145700000D01*
X179180000Y-150700000D02*
X179180000Y-147870000D01*
X180812500Y-145700000D02*
X181262500Y-146150000D01*
X179180000Y-147870000D02*
X179250000Y-147800000D01*
X175300000Y-151900000D02*
X177980000Y-151900000D01*
X180250000Y-146738738D02*
X180250000Y-147461262D01*
X181262500Y-146150000D02*
X180838738Y-146150000D01*
%TO.N,/PA3*%
D39*
X179150000Y-140661794D02*
X179588206Y-141100000D01*
X184910000Y-144550000D02*
X190460000Y-150100000D01*
X178100000Y-133006600D02*
X177796700Y-132703300D01*
X179150000Y-137837500D02*
X179150000Y-140661794D01*
X184910000Y-143010000D02*
X184910000Y-144550000D01*
X178100000Y-136787500D02*
X178100000Y-133006600D01*
X178100000Y-136787500D02*
X179150000Y-137837500D01*
X183000000Y-141100000D02*
X184910000Y-143010000D01*
X179588206Y-141100000D02*
X183000000Y-141100000D01*
%TO.N,/PA13*%
X164500000Y-107334416D02*
X164500000Y-104600000D01*
X161485000Y-100175000D02*
X159835000Y-101825000D01*
X167960000Y-101350000D02*
X166785000Y-100175000D01*
X174574861Y-117409277D02*
X164500000Y-107334416D01*
X166785000Y-100175000D02*
X161485000Y-100175000D01*
X164500000Y-104600000D02*
X163000000Y-103100000D01*
X161110000Y-103100000D02*
X159835000Y-101825000D01*
X175074338Y-119374338D02*
X174574861Y-118874861D01*
X174574861Y-118874861D02*
X174574861Y-117409277D01*
X163000000Y-103100000D02*
X161110000Y-103100000D01*
%TO.N,/PA14*%
X170500000Y-101350000D02*
X168875000Y-99725000D01*
X174124861Y-117595673D02*
X164050000Y-107520812D01*
X160421701Y-103100000D02*
X161686701Y-104365000D01*
X164050000Y-107520812D02*
X164050000Y-105750000D01*
X159300000Y-103100000D02*
X160421701Y-103100000D01*
X158550000Y-102350000D02*
X159300000Y-103100000D01*
X174720785Y-119727891D02*
X174124861Y-119131967D01*
X162665000Y-104365000D02*
X162375000Y-104365000D01*
X164050000Y-105750000D02*
X162665000Y-104365000D01*
X168875000Y-99725000D02*
X160075000Y-99725000D01*
X161686701Y-104365000D02*
X162375000Y-104365000D01*
X174124861Y-119131967D02*
X174124861Y-117595673D01*
X160075000Y-99725000D02*
X158550000Y-101250000D01*
X158550000Y-101250000D02*
X158550000Y-102350000D01*
%TO.N,/PA4*%
X180200000Y-134399494D02*
X178150253Y-132349747D01*
X189800000Y-148800000D02*
X185360000Y-144360000D01*
X185360000Y-144360000D02*
X185360000Y-139860000D01*
X181112500Y-137700000D02*
X180200000Y-136787500D01*
X191700000Y-148800000D02*
X189800000Y-148800000D01*
X180200000Y-136787500D02*
X180200000Y-134399494D01*
X185360000Y-139860000D02*
X183200000Y-137700000D01*
X193000000Y-150100000D02*
X191700000Y-148800000D01*
X183200000Y-137700000D02*
X181112500Y-137700000D01*
%TO.N,Net-(D3-A)*%
X180200000Y-138612500D02*
X180200000Y-140162500D01*
%TO.N,/D+*%
X189440000Y-102860000D02*
X188304515Y-102860000D01*
X188304515Y-102860000D02*
X187919536Y-102475021D01*
X178503806Y-120081444D02*
X179166165Y-119419085D01*
X190460000Y-101840000D02*
X189440000Y-102860000D01*
X187919536Y-102475021D02*
X185392596Y-102475021D01*
X185007617Y-102860000D02*
X183286446Y-102860000D01*
X179166165Y-119419085D02*
X179166167Y-119419085D01*
X183260000Y-115325252D02*
X183260000Y-104780000D01*
X183286446Y-102860000D02*
X182260000Y-103886446D01*
X185392596Y-102475021D02*
X185007617Y-102860000D01*
X179166167Y-119419085D02*
X183260000Y-115325252D01*
X182260000Y-103886446D02*
X182260000Y-104780000D01*
%TO.N,/D-*%
X188168119Y-103360000D02*
X187733140Y-102925021D01*
X179519719Y-119772637D02*
X183760000Y-115532356D01*
X183760000Y-115532356D02*
X183760000Y-104780000D01*
X185214695Y-103360000D02*
X183493554Y-103360000D01*
X190460000Y-104380000D02*
X189440000Y-103360000D01*
X182760000Y-104093554D02*
X182760000Y-104780000D01*
X178857360Y-120434998D02*
X179519719Y-119772639D01*
X183493554Y-103360000D02*
X182760000Y-104093554D01*
X185649674Y-102925021D02*
X185214695Y-103360000D01*
X187733140Y-102925021D02*
X185649674Y-102925021D01*
X189440000Y-103360000D02*
X188168119Y-103360000D01*
X179519719Y-119772639D02*
X179519719Y-119772637D01*
%TO.N,/PB8*%
X169174861Y-119646029D02*
X166316332Y-116787500D01*
X169174861Y-121960141D02*
X169174861Y-119646029D01*
X161200000Y-118430000D02*
X159835000Y-117065000D01*
X170831698Y-123616978D02*
X169174861Y-121960141D01*
X166316332Y-116787500D02*
X164504201Y-116787500D01*
X162861701Y-118430000D02*
X161200000Y-118430000D01*
X164504201Y-116787500D02*
X162861701Y-118430000D01*
%TO.N,/PC13*%
X169528667Y-128349477D02*
X168949657Y-128349477D01*
X164217792Y-122145000D02*
X162375000Y-122145000D01*
X166700000Y-124627208D02*
X164217792Y-122145000D01*
X166700000Y-126099820D02*
X166700000Y-124627208D01*
X168949657Y-128349477D02*
X166700000Y-126099820D01*
X170124591Y-127753553D02*
X169528667Y-128349477D01*
%TO.N,/PC14*%
X170478144Y-128107106D02*
X169785773Y-128799477D01*
X164836396Y-123400000D02*
X161090000Y-123400000D01*
X168763261Y-128799477D02*
X166250000Y-126286216D01*
X169785773Y-128799477D02*
X168763261Y-128799477D01*
X161090000Y-123400000D02*
X159835000Y-122145000D01*
X166250000Y-124813604D02*
X164836396Y-123400000D01*
X166250000Y-126286216D02*
X166250000Y-124813604D01*
%TO.N,/PC15*%
X168576865Y-129249477D02*
X165800000Y-126472612D01*
X165800000Y-126472612D02*
X165800000Y-125000000D01*
X165800000Y-125000000D02*
X164650000Y-123850000D01*
X170042881Y-129249477D02*
X168576865Y-129249477D01*
X170831698Y-128460660D02*
X170042881Y-129249477D01*
X164650000Y-123850000D02*
X163210000Y-123850000D01*
X163210000Y-123850000D02*
X162375000Y-124685000D01*
%TO.N,/PC0*%
X171071308Y-131049476D02*
X171071308Y-137328413D01*
X172245911Y-129874873D02*
X171071308Y-131049476D01*
X171071308Y-137328413D02*
X165934721Y-142465000D01*
X165934721Y-142465000D02*
X162375000Y-142465000D01*
%TO.N,/PC1*%
X171521308Y-131306584D02*
X171521308Y-137514809D01*
X161010000Y-143830000D02*
X159835000Y-145005000D01*
X171521308Y-137514809D02*
X165206117Y-143830000D01*
X172599465Y-130228427D02*
X171521308Y-131306584D01*
X165206117Y-143830000D02*
X161010000Y-143830000D01*
%TO.N,/PC2*%
X171971308Y-131563690D02*
X171971308Y-137701205D01*
X171971308Y-137701205D02*
X164667513Y-145005000D01*
X172953018Y-130581980D02*
X171971308Y-131563690D01*
X164667513Y-145005000D02*
X162375000Y-145005000D01*
%TO.N,/PC3*%
X172421308Y-137887601D02*
X163938909Y-146370000D01*
X173306571Y-130935533D02*
X172421308Y-131820796D01*
X161010000Y-146370000D02*
X159835000Y-147545000D01*
X163938909Y-146370000D02*
X161010000Y-146370000D01*
X172421308Y-131820796D02*
X172421308Y-137887601D01*
%TO.N,/PA0*%
X173660125Y-131289087D02*
X172871308Y-132077904D01*
X172871308Y-132077904D02*
X172871308Y-138073997D01*
X172871308Y-138073997D02*
X163400305Y-147545000D01*
X163400305Y-147545000D02*
X162375000Y-147545000D01*
%TO.N,/PA1*%
X159835000Y-150085000D02*
X161200000Y-148720000D01*
X173321308Y-132335010D02*
X174013678Y-131642640D01*
X173321308Y-138260393D02*
X173321308Y-132335010D01*
X162861701Y-148720000D02*
X173321308Y-138260393D01*
X161200000Y-148720000D02*
X162861701Y-148720000D01*
%TO.N,/PA2*%
X173771308Y-132592118D02*
X173771308Y-138446789D01*
X174367232Y-131996194D02*
X173771308Y-132592118D01*
X173771308Y-138446789D02*
X162375000Y-149843097D01*
X162375000Y-149843097D02*
X162375000Y-150085000D01*
%TO.N,/PA5*%
X182300000Y-136787500D02*
X183365824Y-136787500D01*
X183365824Y-136787500D02*
X185810000Y-139231676D01*
X185810000Y-142910000D02*
X190460000Y-147560000D01*
X182300000Y-135792388D02*
X178503806Y-131996194D01*
X181712500Y-136787500D02*
X181700000Y-136800000D01*
X182300000Y-136787500D02*
X182300000Y-135792388D01*
X185810000Y-139231676D02*
X185810000Y-142910000D01*
X182300000Y-136787500D02*
X181712500Y-136787500D01*
%TO.N,/PA6*%
X193000000Y-147560000D02*
X191740000Y-146300000D01*
X189836396Y-146300000D02*
X186260000Y-142723604D01*
X186260000Y-142723604D02*
X186260000Y-139045280D01*
X186260000Y-139045280D02*
X178857360Y-131642640D01*
X191740000Y-146300000D02*
X189836396Y-146300000D01*
%TO.N,/PA7*%
X186760000Y-138838174D02*
X179210913Y-131289087D01*
X190460000Y-145020000D02*
X186760000Y-141320000D01*
X186760000Y-141320000D02*
X186760000Y-138838174D01*
%TO.N,/PC4*%
X187260000Y-141183604D02*
X187260000Y-138631066D01*
X189876396Y-143800000D02*
X187260000Y-141183604D01*
X193000000Y-145020000D02*
X191780000Y-143800000D01*
X191780000Y-143800000D02*
X189876396Y-143800000D01*
X187260000Y-138631066D02*
X179564467Y-130935533D01*
%TO.N,/PC5*%
X187760000Y-138423960D02*
X179918020Y-130581980D01*
X190460000Y-142480000D02*
X187760000Y-139780000D01*
X187760000Y-139780000D02*
X187760000Y-138423960D01*
%TO.N,/PB0*%
X193000000Y-142480000D02*
X191720000Y-141200000D01*
X188260000Y-139643604D02*
X188260000Y-138216854D01*
X189816396Y-141200000D02*
X188260000Y-139643604D01*
X191720000Y-141200000D02*
X189816396Y-141200000D01*
X188260000Y-138216854D02*
X180271573Y-130228427D01*
%TO.N,/PB1*%
X190460000Y-139940000D02*
X188760000Y-138240000D01*
X188760000Y-138009746D02*
X180625127Y-129874873D01*
X188760000Y-138240000D02*
X188760000Y-138009746D01*
%TO.N,/PB2*%
X193000000Y-139940000D02*
X191760000Y-138700000D01*
X191760000Y-138700000D02*
X189950000Y-138700000D01*
X189950000Y-138700000D02*
X189260000Y-138010000D01*
X189260000Y-138010000D02*
X189260000Y-137802640D01*
X189260000Y-137802640D02*
X180978680Y-129521320D01*
%TO.N,/PB10*%
X193000000Y-119620000D02*
X191720000Y-120900000D01*
X191720000Y-120900000D02*
X187864965Y-120900000D01*
X181839965Y-125675000D02*
X181473849Y-126041116D01*
X181473849Y-126041116D02*
X181473849Y-127188061D01*
X181473849Y-127188061D02*
X182392894Y-128107106D01*
X183089965Y-125675000D02*
X181839965Y-125675000D01*
X187864965Y-120900000D02*
X183089965Y-125675000D01*
%TO.N,/PB11*%
X188157638Y-119620000D02*
X183100000Y-124677638D01*
X190460000Y-119620000D02*
X188157638Y-119620000D01*
%TO.N,/PB12*%
X188720532Y-118350000D02*
X182746447Y-124324085D01*
X191730000Y-118350000D02*
X188720532Y-118350000D01*
X193000000Y-117080000D02*
X191730000Y-118350000D01*
%TO.N,/PB13*%
X190460000Y-117080000D02*
X189283426Y-117080000D01*
X189283426Y-117080000D02*
X182392894Y-123970532D01*
%TO.N,/PB14*%
X191740000Y-115800000D02*
X189856318Y-115800000D01*
X189856318Y-115800000D02*
X182039340Y-123616978D01*
X193000000Y-114540000D02*
X191740000Y-115800000D01*
%TO.N,/PB15*%
X190409212Y-114540000D02*
X181685787Y-123263425D01*
X190460000Y-114540000D02*
X190409212Y-114540000D01*
%TO.N,/PC6*%
X189950000Y-113250000D02*
X189200000Y-114000000D01*
X189200000Y-115042104D02*
X181332233Y-122909871D01*
X193000000Y-112000000D02*
X191750000Y-113250000D01*
X189200000Y-114000000D02*
X189200000Y-115042104D01*
X191750000Y-113250000D02*
X189950000Y-113250000D01*
%TO.N,/PC7*%
X188700000Y-113400000D02*
X188700000Y-114834998D01*
X188700000Y-114834998D02*
X180978680Y-122556318D01*
X190100000Y-112000000D02*
X188700000Y-113400000D01*
X190460000Y-112000000D02*
X190100000Y-112000000D01*
%TO.N,/PC8*%
X191710000Y-110750000D02*
X189877106Y-110750000D01*
X188200000Y-114627891D02*
X180625127Y-122202765D01*
X188200000Y-112427106D02*
X188200000Y-114627891D01*
X193000000Y-109460000D02*
X191710000Y-110750000D01*
X189877106Y-110750000D02*
X188200000Y-112427106D01*
%TO.N,/PC9*%
X187700000Y-114420784D02*
X180271573Y-121849211D01*
X187700000Y-112220000D02*
X187700000Y-114420784D01*
X190460000Y-109460000D02*
X187700000Y-112220000D01*
%TO.N,/PA8*%
X187200000Y-110950000D02*
X187200000Y-114213678D01*
X187200000Y-114213678D02*
X179918020Y-121495658D01*
X190000000Y-108150000D02*
X187200000Y-110950000D01*
X193000000Y-106920000D02*
X191770000Y-108150000D01*
X191770000Y-108150000D02*
X190000000Y-108150000D01*
%TO.N,/PA9*%
X186700000Y-114006572D02*
X179564467Y-121142105D01*
X186700000Y-110680000D02*
X186700000Y-114006572D01*
X190460000Y-106920000D02*
X186700000Y-110680000D01*
%TO.N,/PA10*%
X186975000Y-108575000D02*
X186200000Y-109350000D01*
X186200000Y-113799464D02*
X179210913Y-120788551D01*
X193000000Y-104380000D02*
X191730000Y-105650000D01*
X191730000Y-105650000D02*
X189900000Y-105650000D01*
X186200000Y-109350000D02*
X186200000Y-113799464D01*
X189900000Y-105650000D02*
X186975000Y-108575000D01*
%TO.N,/PA15*%
X173674861Y-117782069D02*
X163600000Y-107707208D01*
X163600000Y-106200000D02*
X163000000Y-105600000D01*
X173674861Y-119389073D02*
X173674861Y-117782069D01*
X163600000Y-107707208D02*
X163600000Y-106200000D01*
X161070000Y-105600000D02*
X159835000Y-104365000D01*
X174367232Y-120081444D02*
X173674861Y-119389073D01*
X163000000Y-105600000D02*
X161070000Y-105600000D01*
%TO.N,/PC10*%
X173224861Y-119646181D02*
X173224861Y-117968465D01*
X173224861Y-117968465D02*
X162375000Y-107118604D01*
X162375000Y-107118604D02*
X162375000Y-106905000D01*
X174013678Y-120434998D02*
X173224861Y-119646181D01*
%TO.N,/PC11*%
X161130000Y-108200000D02*
X159835000Y-106905000D01*
X162820000Y-108200000D02*
X161130000Y-108200000D01*
X172774861Y-118154861D02*
X162820000Y-108200000D01*
X173660125Y-120788551D02*
X172774861Y-119903287D01*
X172774861Y-119903287D02*
X172774861Y-118154861D01*
%TO.N,/PC12*%
X162375000Y-109445000D02*
X163428604Y-109445000D01*
X172324861Y-120160395D02*
X173306571Y-121142105D01*
X172324861Y-118341257D02*
X172324861Y-120160395D01*
X163428604Y-109445000D02*
X172324861Y-118341257D01*
%TO.N,/PD2*%
X159835000Y-109445000D02*
X161090000Y-110700000D01*
X164047208Y-110700000D02*
X171874861Y-118527653D01*
X171874861Y-120417501D02*
X172953018Y-121495658D01*
X171874861Y-118527653D02*
X171874861Y-120417501D01*
X161090000Y-110700000D02*
X164047208Y-110700000D01*
%TO.N,/PB3*%
X171424861Y-120674607D02*
X172599465Y-121849211D01*
X171424861Y-118714049D02*
X171424861Y-120674607D01*
X164695812Y-111985000D02*
X171424861Y-118714049D01*
X162375000Y-111985000D02*
X164695812Y-111985000D01*
%TO.N,/PB4*%
X165374416Y-113300000D02*
X170974861Y-118900445D01*
X159835000Y-111985000D02*
X161150000Y-113300000D01*
X170974861Y-118900445D02*
X170974861Y-120931715D01*
X161150000Y-113300000D02*
X165374416Y-113300000D01*
X170974861Y-120931715D02*
X172245911Y-122202765D01*
%TO.N,/PB5*%
X165938020Y-114500000D02*
X170524861Y-119086841D01*
X162400000Y-114500000D02*
X165938020Y-114500000D01*
X162375000Y-114525000D02*
X162400000Y-114500000D01*
X170524861Y-121188821D02*
X171892358Y-122556318D01*
X170524861Y-119086841D02*
X170524861Y-121188821D01*
%TO.N,/PB6*%
X170074861Y-119273237D02*
X170074861Y-121445927D01*
X159835000Y-114525000D02*
X161110000Y-115800000D01*
X163000000Y-115800000D02*
X163850000Y-114950000D01*
X161110000Y-115800000D02*
X163000000Y-115800000D01*
X165751624Y-114950000D02*
X170074861Y-119273237D01*
X170074861Y-121445927D02*
X171538805Y-122909871D01*
X163850000Y-114950000D02*
X165751624Y-114950000D01*
%TO.N,/PB7*%
X164040000Y-115400000D02*
X162375000Y-117065000D01*
X169624861Y-121703035D02*
X169624861Y-119459633D01*
X169624861Y-119459633D02*
X165565228Y-115400000D01*
X165565228Y-115400000D02*
X164040000Y-115400000D01*
X171185251Y-123263425D02*
X169624861Y-121703035D01*
%TO.N,/PB9*%
X168700000Y-122192388D02*
X168700000Y-120000000D01*
X168700000Y-120000000D02*
X166425000Y-117725000D01*
X170478144Y-123970532D02*
X168700000Y-122192388D01*
X164654900Y-117725000D02*
X163079900Y-119300000D01*
X163079900Y-119300000D02*
X162680000Y-119300000D01*
X162680000Y-119300000D02*
X162375000Y-119605000D01*
X166425000Y-117725000D02*
X164654900Y-117725000D01*
%TO.N,Net-(USB1-CC1)*%
X184260000Y-104780000D02*
X184260000Y-105972500D01*
X184260000Y-105972500D02*
X184787500Y-106500000D01*
%TO.N,Net-(USB1-CC2)*%
X181260000Y-104780000D02*
X181260000Y-106652500D01*
X181260000Y-106652500D02*
X181212500Y-106700000D01*
%TD*%
%TA.AperFunction,Conductor*%
%TO.N,GND*%
G36*
X158403834Y-122058625D02*
G01*
X158459767Y-122100497D01*
X158484184Y-122165961D01*
X158484500Y-122174807D01*
X158484500Y-122251286D01*
X158509765Y-122410807D01*
X158517754Y-122461243D01*
X158555309Y-122576826D01*
X158583444Y-122663414D01*
X158679951Y-122852820D01*
X158804890Y-123024786D01*
X158955213Y-123175109D01*
X159127179Y-123300048D01*
X159127181Y-123300049D01*
X159127184Y-123300051D01*
X159316588Y-123396557D01*
X159518757Y-123462246D01*
X159728713Y-123495500D01*
X159728714Y-123495500D01*
X159941286Y-123495500D01*
X159941287Y-123495500D01*
X160151243Y-123462246D01*
X160166840Y-123457177D01*
X160236679Y-123455183D01*
X160292838Y-123487428D01*
X160601016Y-123795606D01*
X160601045Y-123795637D01*
X160691264Y-123885856D01*
X160691267Y-123885858D01*
X160732283Y-123913264D01*
X160793714Y-123954312D01*
X160874207Y-123987652D01*
X160907548Y-124001463D01*
X160923943Y-124004724D01*
X160979567Y-124015788D01*
X161023872Y-124024601D01*
X161085782Y-124056986D01*
X161120357Y-124117702D01*
X161117611Y-124184536D01*
X161057753Y-124368759D01*
X161030434Y-124541248D01*
X161024500Y-124578713D01*
X161024500Y-124791287D01*
X161024731Y-124792744D01*
X161056116Y-124990906D01*
X161057754Y-125001243D01*
X161120948Y-125195734D01*
X161123444Y-125203414D01*
X161219951Y-125392820D01*
X161344890Y-125564786D01*
X161495213Y-125715109D01*
X161667179Y-125840048D01*
X161667181Y-125840049D01*
X161667184Y-125840051D01*
X161856588Y-125936557D01*
X162058757Y-126002246D01*
X162268713Y-126035500D01*
X162268714Y-126035500D01*
X162481286Y-126035500D01*
X162481287Y-126035500D01*
X162691243Y-126002246D01*
X162893412Y-125936557D01*
X163082816Y-125840051D01*
X163155287Y-125787397D01*
X163221090Y-125763919D01*
X163289144Y-125779744D01*
X163337839Y-125829849D01*
X163346098Y-125849394D01*
X163394780Y-125999219D01*
X163486480Y-126179191D01*
X163487715Y-126181613D01*
X163608028Y-126347213D01*
X163748323Y-126487508D01*
X163781808Y-126548831D01*
X163782260Y-126599375D01*
X163777457Y-126623527D01*
X163777455Y-126623537D01*
X163774500Y-126638389D01*
X163774500Y-127361609D01*
X163780096Y-127389741D01*
X163780096Y-127389744D01*
X163780097Y-127389744D01*
X163797857Y-127479035D01*
X163798536Y-127482450D01*
X163798537Y-127482454D01*
X163845685Y-127596281D01*
X163845687Y-127596284D01*
X163865854Y-127626465D01*
X163865855Y-127626467D01*
X163914140Y-127698731D01*
X163914141Y-127698732D01*
X163914142Y-127698733D01*
X164001267Y-127785858D01*
X164001268Y-127785858D01*
X164008335Y-127792925D01*
X164008334Y-127792925D01*
X164008338Y-127792928D01*
X164588731Y-128373321D01*
X164622216Y-128434644D01*
X164617232Y-128504336D01*
X164588731Y-128548683D01*
X164376247Y-128761167D01*
X164376236Y-128761179D01*
X164310983Y-128841280D01*
X164310982Y-128841281D01*
X164232242Y-128998066D01*
X164191784Y-129168768D01*
X164191783Y-129168779D01*
X164191783Y-129344214D01*
X164191784Y-129344225D01*
X164232243Y-129514929D01*
X164310980Y-129671711D01*
X164352741Y-129722975D01*
X164376238Y-129751819D01*
X165436911Y-130812490D01*
X165436915Y-130812493D01*
X165436917Y-130812495D01*
X165446648Y-130820422D01*
X165517018Y-130877749D01*
X165673800Y-130956486D01*
X165844512Y-130996947D01*
X165844515Y-130996947D01*
X166019951Y-130996947D01*
X166019954Y-130996947D01*
X166112351Y-130975047D01*
X166190663Y-130956487D01*
X166190664Y-130956486D01*
X166190666Y-130956486D01*
X166347447Y-130877749D01*
X166427555Y-130812492D01*
X166878750Y-130361295D01*
X166940073Y-130327811D01*
X166966431Y-130324977D01*
X167634344Y-130324977D01*
X167701383Y-130344662D01*
X167747138Y-130397466D01*
X167757082Y-130466624D01*
X167746913Y-130497628D01*
X167748019Y-130498086D01*
X167720522Y-130564471D01*
X167720522Y-130564472D01*
X167698538Y-130617545D01*
X167698535Y-130617555D01*
X167674500Y-130738389D01*
X167674500Y-130738394D01*
X167674500Y-131261606D01*
X167695700Y-131368191D01*
X167695701Y-131368194D01*
X167695700Y-131368194D01*
X167698535Y-131382446D01*
X167698536Y-131382450D01*
X167698537Y-131382451D01*
X167743664Y-131491400D01*
X167748020Y-131501915D01*
X167745687Y-131502881D01*
X167757672Y-131560486D01*
X167732662Y-131625726D01*
X167721755Y-131638199D01*
X167487508Y-131872447D01*
X167487506Y-131872449D01*
X167422253Y-131952550D01*
X167422252Y-131952551D01*
X167343512Y-132109336D01*
X167303054Y-132280038D01*
X167303053Y-132280049D01*
X167303053Y-132455484D01*
X167303054Y-132455495D01*
X167343513Y-132626199D01*
X167402900Y-132744450D01*
X167422251Y-132782982D01*
X167487508Y-132863089D01*
X168548181Y-133923760D01*
X168584452Y-133953308D01*
X168623995Y-134010909D01*
X168630135Y-134049445D01*
X168630135Y-135051927D01*
X168610450Y-135118966D01*
X168557646Y-135164721D01*
X168544453Y-135169858D01*
X168368545Y-135227014D01*
X168186153Y-135319948D01*
X168020553Y-135440261D01*
X167875795Y-135585019D01*
X167755482Y-135750619D01*
X167662548Y-135933009D01*
X167599289Y-136127698D01*
X167567267Y-136329881D01*
X167567267Y-136534584D01*
X167599289Y-136736767D01*
X167662548Y-136931456D01*
X167726458Y-137056886D01*
X167751301Y-137105642D01*
X167755482Y-137113846D01*
X167875795Y-137279446D01*
X168020553Y-137424204D01*
X168133631Y-137506358D01*
X168186157Y-137544520D01*
X168302374Y-137603736D01*
X168368543Y-137637451D01*
X168368545Y-137637451D01*
X168368548Y-137637453D01*
X168472904Y-137671360D01*
X168563232Y-137700710D01*
X168662723Y-137716468D01*
X168765415Y-137732733D01*
X168765416Y-137732733D01*
X168970118Y-137732733D01*
X168970119Y-137732733D01*
X169172301Y-137700710D01*
X169366986Y-137637453D01*
X169549377Y-137544520D01*
X169681541Y-137448498D01*
X169714980Y-137424204D01*
X169714982Y-137424201D01*
X169714986Y-137424199D01*
X169859733Y-137279452D01*
X169859735Y-137279448D01*
X169859738Y-137279446D01*
X169915426Y-137202796D01*
X169980054Y-137113843D01*
X170072987Y-136931452D01*
X170136244Y-136736767D01*
X170168267Y-136534585D01*
X170168267Y-136329881D01*
X170148593Y-136205666D01*
X170136244Y-136127698D01*
X170072985Y-135933009D01*
X170013252Y-135815777D01*
X169980054Y-135750623D01*
X169945442Y-135702983D01*
X169904816Y-135647064D01*
X169881337Y-135581257D01*
X169881135Y-135574180D01*
X169881135Y-133632812D01*
X169900820Y-133565773D01*
X169917450Y-133545135D01*
X170234127Y-133228457D01*
X170295450Y-133194973D01*
X170365142Y-133199957D01*
X170421075Y-133241829D01*
X170445492Y-133307293D01*
X170445808Y-133316139D01*
X170445808Y-137017961D01*
X170426123Y-137085000D01*
X170409489Y-137105642D01*
X165711950Y-141803181D01*
X165650627Y-141836666D01*
X165624269Y-141839500D01*
X163647981Y-141839500D01*
X163580942Y-141819815D01*
X163537497Y-141771797D01*
X163530049Y-141757180D01*
X163405109Y-141585213D01*
X163254786Y-141434890D01*
X163082820Y-141309951D01*
X162893414Y-141213444D01*
X162893413Y-141213443D01*
X162893412Y-141213443D01*
X162691243Y-141147754D01*
X162691241Y-141147753D01*
X162691240Y-141147753D01*
X162529957Y-141122208D01*
X162481287Y-141114500D01*
X162268713Y-141114500D01*
X162220042Y-141122208D01*
X162058760Y-141147753D01*
X162058757Y-141147754D01*
X161897937Y-141200008D01*
X161856585Y-141213444D01*
X161667179Y-141309951D01*
X161495213Y-141434890D01*
X161344890Y-141585213D01*
X161219951Y-141757179D01*
X161123444Y-141946585D01*
X161057753Y-142148760D01*
X161024500Y-142358713D01*
X161024500Y-142571286D01*
X161057753Y-142781239D01*
X161123444Y-142983414D01*
X161144228Y-143024205D01*
X161157124Y-143092874D01*
X161130848Y-143157615D01*
X161073741Y-143197872D01*
X161033743Y-143204500D01*
X160948389Y-143204500D01*
X160887971Y-143216518D01*
X160827548Y-143228537D01*
X160827546Y-143228537D01*
X160827545Y-143228538D01*
X160827543Y-143228538D01*
X160786141Y-143245687D01*
X160786142Y-143245688D01*
X160713718Y-143275686D01*
X160713711Y-143275690D01*
X160696620Y-143287110D01*
X160688190Y-143292743D01*
X160688189Y-143292744D01*
X160688188Y-143292743D01*
X160611266Y-143344142D01*
X160611265Y-143344143D01*
X160581090Y-143374319D01*
X160524142Y-143431267D01*
X160524139Y-143431270D01*
X160292837Y-143662571D01*
X160231514Y-143696056D01*
X160166838Y-143692821D01*
X160159219Y-143690345D01*
X160151241Y-143687753D01*
X159974825Y-143659812D01*
X159941287Y-143654500D01*
X159728713Y-143654500D01*
X159695175Y-143659812D01*
X159518760Y-143687753D01*
X159316585Y-143753444D01*
X159127179Y-143849951D01*
X158955213Y-143974890D01*
X158804890Y-144125213D01*
X158679951Y-144297179D01*
X158583444Y-144486585D01*
X158517753Y-144688760D01*
X158492804Y-144846281D01*
X158484500Y-144898713D01*
X158484500Y-145111287D01*
X158517754Y-145321243D01*
X158575673Y-145499500D01*
X158583444Y-145523414D01*
X158679951Y-145712820D01*
X158804890Y-145884786D01*
X158955213Y-146035109D01*
X159127182Y-146160050D01*
X159135946Y-146164516D01*
X159186742Y-146212491D01*
X159203536Y-146280312D01*
X159180998Y-146346447D01*
X159135946Y-146385484D01*
X159127182Y-146389949D01*
X158955213Y-146514890D01*
X158804890Y-146665213D01*
X158679951Y-146837179D01*
X158583444Y-147026585D01*
X158517753Y-147228760D01*
X158484500Y-147438713D01*
X158484500Y-147651286D01*
X158517753Y-147861239D01*
X158583444Y-148063414D01*
X158679951Y-148252820D01*
X158804890Y-148424786D01*
X158955213Y-148575109D01*
X159127182Y-148700050D01*
X159135946Y-148704516D01*
X159186742Y-148752491D01*
X159203536Y-148820312D01*
X159180998Y-148886447D01*
X159135946Y-148925484D01*
X159127182Y-148929949D01*
X158955213Y-149054890D01*
X158804890Y-149205213D01*
X158679951Y-149377179D01*
X158583444Y-149566585D01*
X158517753Y-149768760D01*
X158484500Y-149978713D01*
X158484500Y-150191286D01*
X158502615Y-150305663D01*
X158517754Y-150401243D01*
X158574208Y-150574991D01*
X158583444Y-150603414D01*
X158679951Y-150792820D01*
X158804890Y-150964786D01*
X158955213Y-151115109D01*
X159127179Y-151240048D01*
X159127181Y-151240049D01*
X159127184Y-151240051D01*
X159316588Y-151336557D01*
X159518757Y-151402246D01*
X159728713Y-151435500D01*
X159728714Y-151435500D01*
X159941286Y-151435500D01*
X159941287Y-151435500D01*
X160151243Y-151402246D01*
X160353412Y-151336557D01*
X160542816Y-151240051D01*
X160643539Y-151166872D01*
X160714786Y-151115109D01*
X160714788Y-151115106D01*
X160714792Y-151115104D01*
X160865104Y-150964792D01*
X160865104Y-150964791D01*
X160865107Y-150964789D01*
X160865109Y-150964786D01*
X160990048Y-150792820D01*
X160990047Y-150792820D01*
X160990051Y-150792816D01*
X160994514Y-150784054D01*
X161042488Y-150733259D01*
X161110308Y-150716463D01*
X161176444Y-150738999D01*
X161215486Y-150784056D01*
X161219951Y-150792820D01*
X161344890Y-150964786D01*
X161495213Y-151115109D01*
X161667179Y-151240048D01*
X161667181Y-151240049D01*
X161667184Y-151240051D01*
X161856588Y-151336557D01*
X162058757Y-151402246D01*
X162268713Y-151435500D01*
X162268714Y-151435500D01*
X162481286Y-151435500D01*
X162481287Y-151435500D01*
X162691243Y-151402246D01*
X162893412Y-151336557D01*
X163082816Y-151240051D01*
X163183539Y-151166872D01*
X163254786Y-151115109D01*
X163254788Y-151115106D01*
X163254792Y-151115104D01*
X163337819Y-151032077D01*
X163399142Y-150998592D01*
X163468834Y-151003576D01*
X163524767Y-151045448D01*
X163549184Y-151110912D01*
X163549500Y-151119758D01*
X163549500Y-151264069D01*
X163563919Y-151336557D01*
X163564163Y-151337781D01*
X163564163Y-151337783D01*
X163574497Y-151389736D01*
X163574499Y-151389744D01*
X163579677Y-151402246D01*
X163623535Y-151508127D01*
X163694723Y-151614669D01*
X163694726Y-151614673D01*
X163767872Y-151687819D01*
X163801357Y-151749142D01*
X163796373Y-151818834D01*
X163754501Y-151874767D01*
X163689037Y-151899184D01*
X163680191Y-151899500D01*
X159420808Y-151899500D01*
X159353769Y-151879815D01*
X159333127Y-151863181D01*
X158036819Y-150566873D01*
X158003334Y-150505550D01*
X158000500Y-150479192D01*
X158000500Y-122410807D01*
X158020185Y-122343768D01*
X158036815Y-122323130D01*
X158272820Y-122087125D01*
X158334142Y-122053641D01*
X158403834Y-122058625D01*
G37*
%TD.AperFunction*%
%TA.AperFunction,Conductor*%
G36*
X177093334Y-140924209D02*
G01*
X177137681Y-140952710D01*
X177178996Y-140994025D01*
X177179000Y-140994028D01*
X177327066Y-141085357D01*
X177327069Y-141085358D01*
X177327075Y-141085362D01*
X177492225Y-141140087D01*
X177594152Y-141150500D01*
X177594157Y-141150500D01*
X178605843Y-141150500D01*
X178605848Y-141150500D01*
X178681755Y-141142745D01*
X178750447Y-141155514D01*
X178782038Y-141178422D01*
X179099222Y-141495606D01*
X179099251Y-141495637D01*
X179189468Y-141585854D01*
X179189471Y-141585856D01*
X179189473Y-141585858D01*
X179235012Y-141616286D01*
X179291921Y-141654312D01*
X179328495Y-141669461D01*
X179328496Y-141669462D01*
X179328497Y-141669462D01*
X179405754Y-141701463D01*
X179448679Y-141710001D01*
X179526597Y-141725499D01*
X179526598Y-141725500D01*
X179526599Y-141725500D01*
X179526600Y-141725500D01*
X182689548Y-141725500D01*
X182756587Y-141745185D01*
X182777229Y-141761819D01*
X184248181Y-143232771D01*
X184281666Y-143294094D01*
X184284500Y-143320452D01*
X184284500Y-144611607D01*
X184288613Y-144632283D01*
X184288613Y-144632287D01*
X184308535Y-144732444D01*
X184308539Y-144732458D01*
X184319423Y-144758734D01*
X184355685Y-144846281D01*
X184355687Y-144846284D01*
X184389914Y-144897507D01*
X184389915Y-144897509D01*
X184424141Y-144948733D01*
X184515586Y-145040178D01*
X184515608Y-145040198D01*
X184813781Y-145338371D01*
X184847266Y-145399694D01*
X184842282Y-145469386D01*
X184800410Y-145525319D01*
X184734946Y-145549736D01*
X184678648Y-145540613D01*
X184639750Y-145524501D01*
X184639734Y-145524496D01*
X184634280Y-145523411D01*
X184634276Y-145523411D01*
X184514071Y-145499499D01*
X184508009Y-145498903D01*
X184508148Y-145497484D01*
X184452395Y-145482232D01*
X184352085Y-145422909D01*
X184310398Y-145398256D01*
X184310397Y-145398255D01*
X184310396Y-145398255D01*
X184310393Y-145398254D01*
X184152573Y-145352402D01*
X184152567Y-145352401D01*
X184115701Y-145349500D01*
X184115694Y-145349500D01*
X182959306Y-145349500D01*
X182959298Y-145349500D01*
X182922432Y-145352401D01*
X182922426Y-145352402D01*
X182764606Y-145398254D01*
X182764603Y-145398255D01*
X182623137Y-145481917D01*
X182623129Y-145481923D01*
X182506923Y-145598129D01*
X182506914Y-145598140D01*
X182506729Y-145598455D01*
X182506519Y-145598650D01*
X182502139Y-145604298D01*
X182501227Y-145603591D01*
X182455657Y-145646136D01*
X182386915Y-145658637D01*
X182322327Y-145631988D01*
X182298143Y-145604078D01*
X182297861Y-145604298D01*
X182293823Y-145599092D01*
X182293271Y-145598455D01*
X182293085Y-145598140D01*
X182293076Y-145598129D01*
X182176870Y-145481923D01*
X182176862Y-145481917D01*
X182098681Y-145435681D01*
X182035398Y-145398256D01*
X182035397Y-145398255D01*
X182035396Y-145398255D01*
X182035393Y-145398254D01*
X181877573Y-145352402D01*
X181877567Y-145352401D01*
X181840701Y-145349500D01*
X181840694Y-145349500D01*
X181433308Y-145349500D01*
X181366269Y-145329815D01*
X181345631Y-145313185D01*
X181227169Y-145194723D01*
X181120627Y-145123535D01*
X181091055Y-145111286D01*
X181002244Y-145074499D01*
X181002238Y-145074497D01*
X180876571Y-145049500D01*
X180876569Y-145049500D01*
X180322017Y-145049500D01*
X180254978Y-145029815D01*
X180209223Y-144977011D01*
X180204311Y-144964505D01*
X180184814Y-144905666D01*
X180092712Y-144756344D01*
X179968656Y-144632288D01*
X179819334Y-144540186D01*
X179652797Y-144485001D01*
X179652795Y-144485000D01*
X179550010Y-144474500D01*
X178949998Y-144474500D01*
X178949980Y-144474501D01*
X178847203Y-144485000D01*
X178847200Y-144485001D01*
X178680668Y-144540185D01*
X178680663Y-144540187D01*
X178531342Y-144632289D01*
X178407289Y-144756342D01*
X178315187Y-144905663D01*
X178315186Y-144905666D01*
X178260001Y-145072203D01*
X178260001Y-145072204D01*
X178260000Y-145072204D01*
X178249500Y-145174983D01*
X178249500Y-146225001D01*
X178249501Y-146225019D01*
X178260000Y-146327796D01*
X178260001Y-146327799D01*
X178315185Y-146494331D01*
X178315187Y-146494336D01*
X178407289Y-146643657D01*
X178425951Y-146662319D01*
X178459436Y-146723642D01*
X178454452Y-146793334D01*
X178425951Y-146837681D01*
X178407289Y-146856342D01*
X178315187Y-147005663D01*
X178315185Y-147005668D01*
X178301067Y-147048273D01*
X178260001Y-147172203D01*
X178260001Y-147172204D01*
X178260000Y-147172204D01*
X178249500Y-147274983D01*
X178249500Y-148325001D01*
X178249501Y-148325019D01*
X178260000Y-148427796D01*
X178260001Y-148427799D01*
X178315185Y-148594331D01*
X178315187Y-148594336D01*
X178319831Y-148601865D01*
X178391513Y-148718081D01*
X178407289Y-148743657D01*
X178493181Y-148829549D01*
X178526666Y-148890872D01*
X178529500Y-148917230D01*
X178529500Y-149440382D01*
X178509815Y-149507421D01*
X178475408Y-149541099D01*
X178476125Y-149542085D01*
X178300213Y-149669890D01*
X178149890Y-149820213D01*
X178024951Y-149992179D01*
X177928444Y-150181585D01*
X177862753Y-150383760D01*
X177829500Y-150593713D01*
X177829500Y-150806286D01*
X177863516Y-151021055D01*
X177861877Y-151021314D01*
X177858738Y-151083883D01*
X177829343Y-151130709D01*
X177746874Y-151213180D01*
X177685552Y-151246666D01*
X177659192Y-151249500D01*
X175620808Y-151249500D01*
X175553769Y-151229815D01*
X175533127Y-151213181D01*
X175486818Y-151166872D01*
X175453333Y-151105549D01*
X175450499Y-151079191D01*
X175450499Y-149802129D01*
X175450498Y-149802123D01*
X175450497Y-149802116D01*
X175444091Y-149742517D01*
X175393796Y-149607669D01*
X175393795Y-149607668D01*
X175393793Y-149607664D01*
X175307547Y-149492455D01*
X175307544Y-149492452D01*
X175192335Y-149406206D01*
X175192328Y-149406202D01*
X175057482Y-149355908D01*
X175057483Y-149355908D01*
X174997883Y-149349501D01*
X174997881Y-149349500D01*
X174997873Y-149349500D01*
X174997864Y-149349500D01*
X173202129Y-149349500D01*
X173202123Y-149349501D01*
X173142516Y-149355908D01*
X173007671Y-149406202D01*
X173007664Y-149406206D01*
X172892455Y-149492452D01*
X172892452Y-149492455D01*
X172806206Y-149607664D01*
X172806202Y-149607671D01*
X172755908Y-149742517D01*
X172749501Y-149802116D01*
X172749501Y-149802123D01*
X172749500Y-149802135D01*
X172749500Y-151597870D01*
X172749501Y-151597876D01*
X172755908Y-151657483D01*
X172783764Y-151732167D01*
X172788748Y-151801859D01*
X172755263Y-151863182D01*
X172693939Y-151896666D01*
X172667582Y-151899500D01*
X165870808Y-151899500D01*
X165803769Y-151879815D01*
X165783127Y-151863181D01*
X164886819Y-150966873D01*
X164853334Y-150905550D01*
X164850500Y-150879192D01*
X164850500Y-149010656D01*
X164870185Y-148943617D01*
X164886819Y-148922975D01*
X170435475Y-143374319D01*
X170496798Y-143340834D01*
X170523156Y-143338000D01*
X172722912Y-143338000D01*
X172789951Y-143357685D01*
X172828449Y-143396901D01*
X172857288Y-143443656D01*
X172981344Y-143567712D01*
X173130666Y-143659814D01*
X173297203Y-143714999D01*
X173399991Y-143725500D01*
X174400008Y-143725499D01*
X174400016Y-143725498D01*
X174400019Y-143725498D01*
X174490041Y-143716302D01*
X174502797Y-143714999D01*
X174669334Y-143659814D01*
X174818656Y-143567712D01*
X174942712Y-143443656D01*
X175034814Y-143294334D01*
X175089999Y-143127797D01*
X175100500Y-143025009D01*
X175100499Y-142399992D01*
X175093358Y-142330090D01*
X175089999Y-142297203D01*
X175089998Y-142297200D01*
X175045779Y-142163757D01*
X175034814Y-142130666D01*
X174942712Y-141981344D01*
X174849049Y-141887681D01*
X174815564Y-141826358D01*
X174820548Y-141756666D01*
X174849049Y-141712319D01*
X174891908Y-141669460D01*
X174942712Y-141618656D01*
X175034814Y-141469334D01*
X175089999Y-141302797D01*
X175100271Y-141202247D01*
X175126667Y-141137556D01*
X175183848Y-141097405D01*
X175253658Y-141094541D01*
X175262616Y-141097139D01*
X175392225Y-141140087D01*
X175494152Y-141150500D01*
X175494157Y-141150500D01*
X176505843Y-141150500D01*
X176505848Y-141150500D01*
X176607775Y-141140087D01*
X176772925Y-141085362D01*
X176921003Y-140994026D01*
X176962319Y-140952710D01*
X177023642Y-140919225D01*
X177093334Y-140924209D01*
G37*
%TD.AperFunction*%
%TA.AperFunction,Conductor*%
G36*
X184847214Y-148248581D02*
G01*
X184972203Y-148289999D01*
X185074991Y-148300500D01*
X185629191Y-148300499D01*
X185696230Y-148320183D01*
X185716872Y-148336818D01*
X186363181Y-148983127D01*
X186396666Y-149044450D01*
X186399500Y-149070808D01*
X186399500Y-149921042D01*
X186379815Y-149988081D01*
X186340598Y-150026580D01*
X186331344Y-150032287D01*
X186207289Y-150156342D01*
X186115187Y-150305663D01*
X186115186Y-150305666D01*
X186060001Y-150472203D01*
X186060001Y-150472204D01*
X186060000Y-150472204D01*
X186049500Y-150574983D01*
X186049500Y-151625001D01*
X186049501Y-151625019D01*
X186060000Y-151727796D01*
X186060001Y-151727797D01*
X186062884Y-151736498D01*
X186065284Y-151806326D01*
X186029552Y-151866368D01*
X185967031Y-151897559D01*
X185945177Y-151899500D01*
X180189758Y-151899500D01*
X180122719Y-151879815D01*
X180076964Y-151827011D01*
X180067020Y-151757853D01*
X180096045Y-151694297D01*
X180102077Y-151687819D01*
X180132413Y-151657483D01*
X180210104Y-151579792D01*
X180210106Y-151579788D01*
X180210109Y-151579786D01*
X180335048Y-151407820D01*
X180335047Y-151407820D01*
X180335051Y-151407816D01*
X180431557Y-151218412D01*
X180497246Y-151016243D01*
X180530500Y-150806287D01*
X180530500Y-150593713D01*
X180497246Y-150383757D01*
X180431557Y-150181588D01*
X180335051Y-149992184D01*
X180335049Y-149992181D01*
X180335048Y-149992179D01*
X180210109Y-149820213D01*
X180059786Y-149669890D01*
X179883875Y-149542085D01*
X179884851Y-149540740D01*
X179842834Y-149494295D01*
X179830500Y-149440382D01*
X179830500Y-149022133D01*
X179850185Y-148955094D01*
X179889403Y-148916594D01*
X179968656Y-148867712D01*
X180092712Y-148743656D01*
X180117583Y-148703332D01*
X180169529Y-148656609D01*
X180238491Y-148645386D01*
X180302574Y-148673229D01*
X180310802Y-148680749D01*
X180348129Y-148718076D01*
X180348133Y-148718079D01*
X180348135Y-148718081D01*
X180489602Y-148801744D01*
X180523378Y-148811557D01*
X180647426Y-148847597D01*
X180647429Y-148847597D01*
X180647431Y-148847598D01*
X180684306Y-148850500D01*
X180684314Y-148850500D01*
X181840686Y-148850500D01*
X181840694Y-148850500D01*
X181877569Y-148847598D01*
X181877571Y-148847597D01*
X181877573Y-148847597D01*
X181956411Y-148824692D01*
X182035398Y-148801744D01*
X182176865Y-148718081D01*
X182293081Y-148601865D01*
X182293267Y-148601549D01*
X182293477Y-148601353D01*
X182297861Y-148595702D01*
X182298772Y-148596409D01*
X182344336Y-148553866D01*
X182413077Y-148541362D01*
X182477667Y-148568006D01*
X182501855Y-148595921D01*
X182502139Y-148595702D01*
X182506179Y-148600911D01*
X182506732Y-148601548D01*
X182506919Y-148601865D01*
X182506921Y-148601867D01*
X182506923Y-148601870D01*
X182623129Y-148718076D01*
X182623133Y-148718079D01*
X182623135Y-148718081D01*
X182764602Y-148801744D01*
X182798378Y-148811557D01*
X182922426Y-148847597D01*
X182922429Y-148847597D01*
X182922431Y-148847598D01*
X182959306Y-148850500D01*
X182959314Y-148850500D01*
X184115686Y-148850500D01*
X184115694Y-148850500D01*
X184152569Y-148847598D01*
X184152571Y-148847597D01*
X184152573Y-148847597D01*
X184231411Y-148824692D01*
X184310398Y-148801744D01*
X184451865Y-148718081D01*
X184568081Y-148601865D01*
X184651744Y-148460398D01*
X184672370Y-148389404D01*
X184689137Y-148331693D01*
X184726743Y-148272807D01*
X184790216Y-148243601D01*
X184847214Y-148248581D01*
G37*
%TD.AperFunction*%
%TA.AperFunction,Conductor*%
G36*
X184550187Y-130770185D02*
G01*
X184578586Y-130798480D01*
X184580018Y-130797314D01*
X184649542Y-130882659D01*
X184649551Y-130882670D01*
X185073828Y-131306945D01*
X185073832Y-131306948D01*
X185073834Y-131306950D01*
X185085946Y-131316817D01*
X185153935Y-131372204D01*
X185310717Y-131450941D01*
X185481429Y-131491402D01*
X185481432Y-131491402D01*
X185656868Y-131491402D01*
X185656871Y-131491402D01*
X185749268Y-131469502D01*
X185827580Y-131450942D01*
X185827581Y-131450941D01*
X185827583Y-131450941D01*
X185984364Y-131372204D01*
X186064472Y-131306947D01*
X186456350Y-130915067D01*
X186517673Y-130881583D01*
X186544031Y-130878749D01*
X188703939Y-130878749D01*
X188770978Y-130898434D01*
X188791620Y-130915068D01*
X189481823Y-131605272D01*
X189481826Y-131605275D01*
X189481829Y-131605277D01*
X189552645Y-131652594D01*
X189588371Y-131676465D01*
X189706754Y-131725501D01*
X189706758Y-131725501D01*
X189706759Y-131725502D01*
X189832426Y-131750500D01*
X189832429Y-131750500D01*
X193679192Y-131750500D01*
X193746231Y-131770185D01*
X193766873Y-131786819D01*
X194663181Y-132683127D01*
X194696666Y-132744450D01*
X194699500Y-132770808D01*
X194699500Y-150629192D01*
X194679815Y-150696231D01*
X194663181Y-150716873D01*
X193516873Y-151863181D01*
X193455550Y-151896666D01*
X193429192Y-151899500D01*
X188154822Y-151899500D01*
X188087783Y-151879815D01*
X188042028Y-151827011D01*
X188032084Y-151757853D01*
X188037116Y-151736496D01*
X188039999Y-151727797D01*
X188050500Y-151625009D01*
X188050499Y-150574992D01*
X188043405Y-150505550D01*
X188039999Y-150472203D01*
X188039998Y-150472200D01*
X187984814Y-150305666D01*
X187892712Y-150156344D01*
X187768656Y-150032288D01*
X187768655Y-150032287D01*
X187759402Y-150026580D01*
X187712678Y-149974632D01*
X187700500Y-149921042D01*
X187700500Y-148685928D01*
X187675502Y-148560261D01*
X187675501Y-148560260D01*
X187675501Y-148560256D01*
X187659385Y-148521350D01*
X187651917Y-148451883D01*
X187683192Y-148389404D01*
X187743280Y-148353751D01*
X187813106Y-148356244D01*
X187861628Y-148386218D01*
X189117571Y-149642161D01*
X189151056Y-149703484D01*
X189147822Y-149768158D01*
X189142753Y-149783757D01*
X189109500Y-149993713D01*
X189109500Y-150206286D01*
X189140377Y-150401239D01*
X189142754Y-150416243D01*
X189203569Y-150603412D01*
X189208444Y-150618414D01*
X189304951Y-150807820D01*
X189429890Y-150979786D01*
X189580213Y-151130109D01*
X189752179Y-151255048D01*
X189752181Y-151255049D01*
X189752184Y-151255051D01*
X189941588Y-151351557D01*
X190143757Y-151417246D01*
X190353713Y-151450500D01*
X190353714Y-151450500D01*
X190566286Y-151450500D01*
X190566287Y-151450500D01*
X190776243Y-151417246D01*
X190978412Y-151351557D01*
X191167816Y-151255051D01*
X191223392Y-151214673D01*
X191339786Y-151130109D01*
X191339788Y-151130106D01*
X191339792Y-151130104D01*
X191490104Y-150979792D01*
X191490106Y-150979788D01*
X191490109Y-150979786D01*
X191615048Y-150807820D01*
X191615047Y-150807820D01*
X191615051Y-150807816D01*
X191619514Y-150799054D01*
X191667488Y-150748259D01*
X191735308Y-150731463D01*
X191801444Y-150753999D01*
X191840486Y-150799056D01*
X191844951Y-150807820D01*
X191969890Y-150979786D01*
X192120213Y-151130109D01*
X192292179Y-151255048D01*
X192292181Y-151255049D01*
X192292184Y-151255051D01*
X192481588Y-151351557D01*
X192683757Y-151417246D01*
X192893713Y-151450500D01*
X192893714Y-151450500D01*
X193106286Y-151450500D01*
X193106287Y-151450500D01*
X193316243Y-151417246D01*
X193518412Y-151351557D01*
X193707816Y-151255051D01*
X193763392Y-151214673D01*
X193879786Y-151130109D01*
X193879788Y-151130106D01*
X193879792Y-151130104D01*
X194030104Y-150979792D01*
X194030106Y-150979788D01*
X194030109Y-150979786D01*
X194155048Y-150807820D01*
X194155047Y-150807820D01*
X194155051Y-150807816D01*
X194251557Y-150618412D01*
X194317246Y-150416243D01*
X194350500Y-150206287D01*
X194350500Y-149993713D01*
X194317246Y-149783757D01*
X194251557Y-149581588D01*
X194155051Y-149392184D01*
X194155049Y-149392181D01*
X194155048Y-149392179D01*
X194030109Y-149220213D01*
X193879786Y-149069890D01*
X193707820Y-148944951D01*
X193705202Y-148943617D01*
X193699054Y-148940485D01*
X193648259Y-148892512D01*
X193631463Y-148824692D01*
X193653999Y-148758556D01*
X193699054Y-148719515D01*
X193707816Y-148715051D01*
X193755029Y-148680749D01*
X193879786Y-148590109D01*
X193879788Y-148590106D01*
X193879792Y-148590104D01*
X194030104Y-148439792D01*
X194030106Y-148439788D01*
X194030109Y-148439786D01*
X194155048Y-148267820D01*
X194155047Y-148267820D01*
X194155051Y-148267816D01*
X194251557Y-148078412D01*
X194317246Y-147876243D01*
X194350500Y-147666287D01*
X194350500Y-147453713D01*
X194317246Y-147243757D01*
X194251557Y-147041588D01*
X194155051Y-146852184D01*
X194155049Y-146852181D01*
X194155048Y-146852179D01*
X194030109Y-146680213D01*
X193879786Y-146529890D01*
X193707820Y-146404951D01*
X193707115Y-146404591D01*
X193699054Y-146400485D01*
X193648259Y-146352512D01*
X193631463Y-146284692D01*
X193653999Y-146218556D01*
X193699054Y-146179515D01*
X193707816Y-146175051D01*
X193729789Y-146159086D01*
X193879786Y-146050109D01*
X193879788Y-146050106D01*
X193879792Y-146050104D01*
X194030104Y-145899792D01*
X194030106Y-145899788D01*
X194030109Y-145899786D01*
X194155048Y-145727820D01*
X194155047Y-145727820D01*
X194155051Y-145727816D01*
X194251557Y-145538412D01*
X194317246Y-145336243D01*
X194350500Y-145126287D01*
X194350500Y-144913713D01*
X194317246Y-144703757D01*
X194251557Y-144501588D01*
X194155051Y-144312184D01*
X194155049Y-144312181D01*
X194155048Y-144312179D01*
X194030109Y-144140213D01*
X193879786Y-143989890D01*
X193707820Y-143864951D01*
X193707115Y-143864591D01*
X193699054Y-143860485D01*
X193648259Y-143812512D01*
X193631463Y-143744692D01*
X193653999Y-143678556D01*
X193699054Y-143639515D01*
X193707816Y-143635051D01*
X193800504Y-143567710D01*
X193879786Y-143510109D01*
X193879788Y-143510106D01*
X193879792Y-143510104D01*
X194030104Y-143359792D01*
X194030106Y-143359788D01*
X194030109Y-143359786D01*
X194155048Y-143187820D01*
X194155047Y-143187820D01*
X194155051Y-143187816D01*
X194251557Y-142998412D01*
X194317246Y-142796243D01*
X194350500Y-142586287D01*
X194350500Y-142373713D01*
X194317246Y-142163757D01*
X194251557Y-141961588D01*
X194155051Y-141772184D01*
X194155049Y-141772181D01*
X194155048Y-141772179D01*
X194030109Y-141600213D01*
X193879786Y-141449890D01*
X193707820Y-141324951D01*
X193707115Y-141324591D01*
X193699054Y-141320485D01*
X193648259Y-141272512D01*
X193631463Y-141204692D01*
X193653999Y-141138556D01*
X193699054Y-141099515D01*
X193707816Y-141095051D01*
X193828611Y-141007289D01*
X193879786Y-140970109D01*
X193879788Y-140970106D01*
X193879792Y-140970104D01*
X194030104Y-140819792D01*
X194030106Y-140819788D01*
X194030109Y-140819786D01*
X194155048Y-140647820D01*
X194155047Y-140647820D01*
X194155051Y-140647816D01*
X194251557Y-140458412D01*
X194317246Y-140256243D01*
X194350500Y-140046287D01*
X194350500Y-139833713D01*
X194317246Y-139623757D01*
X194251557Y-139421588D01*
X194155051Y-139232184D01*
X194155049Y-139232181D01*
X194155048Y-139232179D01*
X194030109Y-139060213D01*
X193879786Y-138909890D01*
X193707820Y-138784951D01*
X193518414Y-138688444D01*
X193518413Y-138688443D01*
X193518412Y-138688443D01*
X193316243Y-138622754D01*
X193316241Y-138622753D01*
X193316240Y-138622753D01*
X193154957Y-138597208D01*
X193106287Y-138589500D01*
X192893713Y-138589500D01*
X192865006Y-138594046D01*
X192683757Y-138622753D01*
X192668158Y-138627822D01*
X192598317Y-138629816D01*
X192542161Y-138597571D01*
X192250198Y-138305608D01*
X192250178Y-138305586D01*
X192158736Y-138214144D01*
X192158728Y-138214138D01*
X192105232Y-138178393D01*
X192105230Y-138178392D01*
X192056290Y-138145690D01*
X192056286Y-138145688D01*
X191975792Y-138112347D01*
X191942452Y-138098537D01*
X191942448Y-138098536D01*
X191942444Y-138098535D01*
X191838911Y-138077941D01*
X191838910Y-138077941D01*
X191821611Y-138074500D01*
X191821607Y-138074500D01*
X191821606Y-138074500D01*
X190260453Y-138074500D01*
X190193414Y-138054815D01*
X190172772Y-138038181D01*
X189914550Y-137779959D01*
X189881065Y-137718636D01*
X189880613Y-137716468D01*
X189877479Y-137700710D01*
X189861463Y-137620189D01*
X189857769Y-137611272D01*
X189857768Y-137611266D01*
X189857767Y-137611267D01*
X189843332Y-137576416D01*
X189843332Y-137576415D01*
X189814314Y-137506358D01*
X189814312Y-137506355D01*
X189814312Y-137506354D01*
X189775652Y-137448497D01*
X189745858Y-137403907D01*
X189745856Y-137403904D01*
X189655637Y-137313685D01*
X189655606Y-137313656D01*
X183480105Y-131138155D01*
X183446620Y-131076832D01*
X183451604Y-131007140D01*
X183489470Y-130954336D01*
X183513135Y-130935059D01*
X183661375Y-130786817D01*
X183722697Y-130753334D01*
X183749055Y-130750500D01*
X184483148Y-130750500D01*
X184550187Y-130770185D01*
G37*
%TD.AperFunction*%
%TA.AperFunction,Conductor*%
G36*
X182477667Y-146668006D02*
G01*
X182501855Y-146695921D01*
X182502139Y-146695702D01*
X182506179Y-146700911D01*
X182506732Y-146701548D01*
X182506919Y-146701865D01*
X182506921Y-146701867D01*
X182506923Y-146701870D01*
X182623129Y-146818076D01*
X182623133Y-146818079D01*
X182623135Y-146818081D01*
X182764602Y-146901744D01*
X182786762Y-146908182D01*
X182922426Y-146947597D01*
X182922429Y-146947597D01*
X182922431Y-146947598D01*
X182959306Y-146950500D01*
X182959314Y-146950500D01*
X184115686Y-146950500D01*
X184115694Y-146950500D01*
X184152569Y-146947598D01*
X184215904Y-146929197D01*
X184285774Y-146929396D01*
X184344444Y-146967337D01*
X184373288Y-147030976D01*
X184374500Y-147048273D01*
X184374500Y-147151726D01*
X184354815Y-147218765D01*
X184302011Y-147264520D01*
X184232853Y-147274464D01*
X184215906Y-147270803D01*
X184152567Y-147252401D01*
X184115701Y-147249500D01*
X184115694Y-147249500D01*
X182959306Y-147249500D01*
X182959298Y-147249500D01*
X182922432Y-147252401D01*
X182922426Y-147252402D01*
X182764606Y-147298254D01*
X182764603Y-147298255D01*
X182623137Y-147381917D01*
X182623129Y-147381923D01*
X182506923Y-147498129D01*
X182506914Y-147498140D01*
X182506729Y-147498455D01*
X182506519Y-147498650D01*
X182502139Y-147504298D01*
X182501227Y-147503591D01*
X182455657Y-147546136D01*
X182386915Y-147558637D01*
X182322327Y-147531988D01*
X182298143Y-147504078D01*
X182297861Y-147504298D01*
X182293823Y-147499092D01*
X182293271Y-147498455D01*
X182293085Y-147498140D01*
X182293076Y-147498129D01*
X182176870Y-147381923D01*
X182176862Y-147381917D01*
X182035396Y-147298255D01*
X182035393Y-147298254D01*
X181877573Y-147252402D01*
X181877567Y-147252401D01*
X181840701Y-147249500D01*
X181840694Y-147249500D01*
X181024500Y-147249500D01*
X180957461Y-147229815D01*
X180911706Y-147177011D01*
X180900500Y-147125500D01*
X180900500Y-147074500D01*
X180920185Y-147007461D01*
X180972989Y-146961706D01*
X181024500Y-146950500D01*
X181840686Y-146950500D01*
X181840694Y-146950500D01*
X181877569Y-146947598D01*
X181877571Y-146947597D01*
X181877573Y-146947597D01*
X181940905Y-146929197D01*
X182035398Y-146901744D01*
X182176865Y-146818081D01*
X182293081Y-146701865D01*
X182293267Y-146701549D01*
X182293477Y-146701353D01*
X182297861Y-146695702D01*
X182298772Y-146696409D01*
X182344336Y-146653866D01*
X182413077Y-146641362D01*
X182477667Y-146668006D01*
G37*
%TD.AperFunction*%
%TA.AperFunction,Conductor*%
G36*
X177024983Y-120394702D02*
G01*
X177064526Y-120425044D01*
X177204523Y-120483033D01*
X177278604Y-120492785D01*
X177342500Y-120521051D01*
X177380972Y-120579375D01*
X177385358Y-120599539D01*
X177395110Y-120673619D01*
X177395111Y-120673621D01*
X177453100Y-120813619D01*
X177484109Y-120854030D01*
X177497557Y-120871557D01*
X177522188Y-120903656D01*
X177522192Y-120903661D01*
X177681588Y-121063057D01*
X177681593Y-121063061D01*
X177681596Y-121063064D01*
X177771632Y-121132150D01*
X177771633Y-121132150D01*
X177778081Y-121137098D01*
X177776210Y-121139535D01*
X177799275Y-121162589D01*
X177801706Y-121160724D01*
X177875742Y-121257210D01*
X177875746Y-121257215D01*
X178035142Y-121416611D01*
X178035147Y-121416615D01*
X178035150Y-121416618D01*
X178084275Y-121454312D01*
X178131634Y-121490652D01*
X178129796Y-121493046D01*
X178152873Y-121516107D01*
X178155259Y-121514277D01*
X178229295Y-121610763D01*
X178229299Y-121610768D01*
X178388695Y-121770164D01*
X178388700Y-121770168D01*
X178388703Y-121770171D01*
X178478739Y-121839257D01*
X178478740Y-121839257D01*
X178485188Y-121844205D01*
X178483317Y-121846642D01*
X178506382Y-121869696D01*
X178508813Y-121867831D01*
X178582849Y-121964317D01*
X178582853Y-121964322D01*
X178742249Y-122123718D01*
X178742254Y-122123722D01*
X178742257Y-122123725D01*
X178797301Y-122165961D01*
X178838741Y-122197759D01*
X178836903Y-122200153D01*
X178859980Y-122223214D01*
X178862366Y-122221384D01*
X178936402Y-122317870D01*
X178936406Y-122317875D01*
X179095802Y-122477271D01*
X179095807Y-122477275D01*
X179095810Y-122477278D01*
X179160012Y-122526541D01*
X179192294Y-122551312D01*
X179190456Y-122553706D01*
X179213533Y-122576767D01*
X179215919Y-122574937D01*
X179220867Y-122581385D01*
X179283809Y-122663414D01*
X179289955Y-122671423D01*
X179289959Y-122671428D01*
X179449355Y-122830824D01*
X179449360Y-122830828D01*
X179449363Y-122830831D01*
X179539399Y-122899917D01*
X179539400Y-122899917D01*
X179545848Y-122904865D01*
X179543977Y-122907302D01*
X179567042Y-122930356D01*
X179569473Y-122928491D01*
X179643509Y-123024977D01*
X179643513Y-123024982D01*
X179802909Y-123184378D01*
X179802914Y-123184382D01*
X179802917Y-123184385D01*
X179867119Y-123233648D01*
X179899401Y-123258419D01*
X179897563Y-123260813D01*
X179920640Y-123283874D01*
X179923026Y-123282044D01*
X179997062Y-123378530D01*
X179997066Y-123378535D01*
X180156462Y-123537931D01*
X180156467Y-123537935D01*
X180156470Y-123537938D01*
X180220672Y-123587201D01*
X180252954Y-123611972D01*
X180251116Y-123614366D01*
X180274193Y-123637427D01*
X180276579Y-123635597D01*
X180350615Y-123732083D01*
X180350619Y-123732088D01*
X180510015Y-123891484D01*
X180510020Y-123891488D01*
X180510023Y-123891491D01*
X180600059Y-123960577D01*
X180600060Y-123960577D01*
X180606508Y-123965525D01*
X180604637Y-123967962D01*
X180627702Y-123991016D01*
X180630133Y-123989151D01*
X180639581Y-124001464D01*
X180677207Y-124050500D01*
X180704169Y-124085637D01*
X180704173Y-124085642D01*
X180863569Y-124245038D01*
X180863574Y-124245042D01*
X180863577Y-124245045D01*
X180927779Y-124294308D01*
X180960061Y-124319079D01*
X180958223Y-124321473D01*
X180981300Y-124344534D01*
X180983686Y-124342704D01*
X181057722Y-124439190D01*
X181057726Y-124439195D01*
X181217122Y-124598591D01*
X181217127Y-124598595D01*
X181217130Y-124598598D01*
X181307166Y-124667684D01*
X181307167Y-124667684D01*
X181313615Y-124672632D01*
X181311744Y-124675069D01*
X181334809Y-124698123D01*
X181337240Y-124696258D01*
X181411276Y-124792744D01*
X181411280Y-124792749D01*
X181554057Y-124935526D01*
X181587542Y-124996849D01*
X181582558Y-125066541D01*
X181540686Y-125122474D01*
X181535267Y-125126309D01*
X181441233Y-125189140D01*
X181397670Y-125232703D01*
X181354107Y-125276267D01*
X181354104Y-125276270D01*
X181075119Y-125555255D01*
X181075116Y-125555258D01*
X181048945Y-125581429D01*
X180987991Y-125642382D01*
X180959680Y-125684753D01*
X180959679Y-125684752D01*
X180919536Y-125744830D01*
X180911630Y-125763919D01*
X180894154Y-125806111D01*
X180872387Y-125858660D01*
X180872384Y-125858672D01*
X180848349Y-125979505D01*
X180848349Y-127249668D01*
X180855356Y-127284898D01*
X180855355Y-127284898D01*
X180872384Y-127370506D01*
X180872387Y-127370516D01*
X180880352Y-127389745D01*
X180919534Y-127484341D01*
X180919536Y-127484344D01*
X180919537Y-127484347D01*
X180942405Y-127518571D01*
X180953763Y-127535568D01*
X180953764Y-127535570D01*
X180989531Y-127589099D01*
X181010409Y-127655777D01*
X180992405Y-127721401D01*
X180992645Y-127721540D01*
X180992376Y-127722005D01*
X180992188Y-127722192D01*
X180991924Y-127723157D01*
X180984830Y-127733444D01*
X180983712Y-127734902D01*
X180981318Y-127733066D01*
X180958226Y-127756170D01*
X180960060Y-127758560D01*
X180863574Y-127832595D01*
X180863569Y-127832599D01*
X180704173Y-127991995D01*
X180704169Y-127992000D01*
X180635081Y-128082037D01*
X180577092Y-128222035D01*
X180577091Y-128222037D01*
X180567339Y-128296118D01*
X180539073Y-128360015D01*
X180480748Y-128398486D01*
X180460585Y-128402872D01*
X180386504Y-128412624D01*
X180386502Y-128412625D01*
X180246504Y-128470614D01*
X180156467Y-128539702D01*
X180156462Y-128539706D01*
X179997066Y-128699102D01*
X179997062Y-128699107D01*
X179923027Y-128795593D01*
X179920622Y-128793747D01*
X179897554Y-128816815D01*
X179899400Y-128819220D01*
X179802914Y-128893255D01*
X179802909Y-128893259D01*
X179643513Y-129052655D01*
X179643509Y-129052660D01*
X179569473Y-129149147D01*
X179567091Y-129147319D01*
X179544019Y-129170391D01*
X179545847Y-129172773D01*
X179449360Y-129246809D01*
X179449355Y-129246813D01*
X179289959Y-129406209D01*
X179289955Y-129406214D01*
X179215920Y-129502700D01*
X179213515Y-129500854D01*
X179190447Y-129523922D01*
X179192293Y-129526327D01*
X179095810Y-129600360D01*
X179095802Y-129600366D01*
X178936406Y-129759762D01*
X178936402Y-129759767D01*
X178862367Y-129856253D01*
X178859962Y-129854407D01*
X178836894Y-129877475D01*
X178838740Y-129879880D01*
X178742254Y-129953915D01*
X178742249Y-129953919D01*
X178582853Y-130113315D01*
X178582849Y-130113320D01*
X178508813Y-130209807D01*
X178506431Y-130207979D01*
X178483359Y-130231051D01*
X178485187Y-130233433D01*
X178388700Y-130307469D01*
X178388695Y-130307473D01*
X178229299Y-130466869D01*
X178229295Y-130466874D01*
X178155260Y-130563360D01*
X178152855Y-130561514D01*
X178129787Y-130584582D01*
X178131633Y-130586987D01*
X178035147Y-130661022D01*
X178035142Y-130661026D01*
X177875746Y-130820422D01*
X177875742Y-130820427D01*
X177801706Y-130916914D01*
X177799324Y-130915086D01*
X177776252Y-130938158D01*
X177778080Y-130940540D01*
X177681593Y-131014576D01*
X177681588Y-131014580D01*
X177522192Y-131173976D01*
X177522188Y-131173981D01*
X177448153Y-131270467D01*
X177445748Y-131268621D01*
X177422680Y-131291689D01*
X177424526Y-131294094D01*
X177328040Y-131368129D01*
X177328035Y-131368133D01*
X177168639Y-131527529D01*
X177168635Y-131527534D01*
X177094600Y-131624020D01*
X177092195Y-131622174D01*
X177069127Y-131645242D01*
X177070973Y-131647647D01*
X176974487Y-131721682D01*
X176974482Y-131721686D01*
X176815086Y-131881082D01*
X176815082Y-131881087D01*
X176745994Y-131971124D01*
X176688005Y-132111122D01*
X176688004Y-132111124D01*
X176668227Y-132261356D01*
X176668227Y-132261359D01*
X176688004Y-132411592D01*
X176688005Y-132411594D01*
X176745993Y-132551590D01*
X176815078Y-132641624D01*
X176815084Y-132641631D01*
X177438181Y-133264727D01*
X177471666Y-133326050D01*
X177474500Y-133352408D01*
X177474500Y-135702983D01*
X177454815Y-135770022D01*
X177402011Y-135815777D01*
X177389510Y-135820686D01*
X177330666Y-135840186D01*
X177330663Y-135840187D01*
X177181342Y-135932289D01*
X177057289Y-136056342D01*
X176965187Y-136205663D01*
X176965186Y-136205666D01*
X176910001Y-136372203D01*
X176910001Y-136372204D01*
X176910000Y-136372204D01*
X176899500Y-136474983D01*
X176899500Y-137100001D01*
X176899501Y-137100019D01*
X176910000Y-137202796D01*
X176910001Y-137202799D01*
X176947771Y-137316779D01*
X176965186Y-137369334D01*
X177014014Y-137448498D01*
X177057289Y-137518657D01*
X177150951Y-137612319D01*
X177184436Y-137673642D01*
X177179452Y-137743334D01*
X177150951Y-137787681D01*
X177057289Y-137881342D01*
X176965187Y-138030663D01*
X176965185Y-138030668D01*
X176949520Y-138077942D01*
X176910001Y-138197203D01*
X176910001Y-138197204D01*
X176910000Y-138197204D01*
X176899500Y-138299983D01*
X176899500Y-138925001D01*
X176899501Y-138925019D01*
X176910000Y-139027796D01*
X176910001Y-139027799D01*
X176928101Y-139082420D01*
X176930503Y-139152248D01*
X176894771Y-139212290D01*
X176832251Y-139243483D01*
X176771392Y-139239130D01*
X176690394Y-139212290D01*
X176607776Y-139184913D01*
X176505855Y-139174500D01*
X176505848Y-139174500D01*
X175494152Y-139174500D01*
X175494144Y-139174500D01*
X175392223Y-139184913D01*
X175227077Y-139239637D01*
X175227066Y-139239642D01*
X175079000Y-139330971D01*
X175078996Y-139330974D01*
X174955973Y-139453997D01*
X174941110Y-139478096D01*
X174889163Y-139524821D01*
X174835571Y-139537000D01*
X174572157Y-139537000D01*
X174505118Y-139517315D01*
X174459363Y-139464511D01*
X174449419Y-139395353D01*
X174478444Y-139331797D01*
X174484476Y-139325319D01*
X174751580Y-139058215D01*
X174751580Y-139058214D01*
X174751585Y-139058210D01*
X174822774Y-138951667D01*
X174868052Y-138842354D01*
X174871809Y-138833285D01*
X174881424Y-138784951D01*
X174896808Y-138707612D01*
X174896808Y-135599498D01*
X174916493Y-135532459D01*
X174933123Y-135511821D01*
X175033126Y-135411817D01*
X175094449Y-135378333D01*
X175120807Y-135375499D01*
X175498338Y-135375499D01*
X175498344Y-135375499D01*
X175498352Y-135375498D01*
X175498355Y-135375498D01*
X175552760Y-135369940D01*
X175597708Y-135365349D01*
X175758697Y-135312003D01*
X175903044Y-135222968D01*
X176022968Y-135103044D01*
X176112003Y-134958697D01*
X176165349Y-134797708D01*
X176175500Y-134698345D01*
X176175499Y-134151656D01*
X176165349Y-134052292D01*
X176112003Y-133891303D01*
X176111999Y-133891297D01*
X176111998Y-133891294D01*
X176022970Y-133746959D01*
X176022969Y-133746958D01*
X176022968Y-133746956D01*
X175903044Y-133627032D01*
X175903043Y-133627031D01*
X175903041Y-133627029D01*
X175897590Y-133622719D01*
X175857213Y-133565697D01*
X175850500Y-133525452D01*
X175850500Y-132898446D01*
X175870185Y-132831407D01*
X175886819Y-132810765D01*
X176055954Y-132641630D01*
X176055958Y-132641626D01*
X176125044Y-132551591D01*
X176183033Y-132411594D01*
X176202811Y-132261358D01*
X176183033Y-132111123D01*
X176125044Y-131971126D01*
X176125043Y-131971125D01*
X176125043Y-131971124D01*
X176095078Y-131932073D01*
X176055958Y-131881090D01*
X176055955Y-131881087D01*
X176055951Y-131881082D01*
X175896555Y-131721686D01*
X175896550Y-131721682D01*
X175896548Y-131721680D01*
X175837622Y-131676465D01*
X175806513Y-131652594D01*
X175666515Y-131594605D01*
X175666513Y-131594604D01*
X175592433Y-131584852D01*
X175528536Y-131556586D01*
X175490065Y-131498261D01*
X175485679Y-131478097D01*
X175482104Y-131450942D01*
X175475927Y-131404017D01*
X175417938Y-131264020D01*
X175417937Y-131264019D01*
X175417937Y-131264018D01*
X175387972Y-131224967D01*
X175348852Y-131173984D01*
X175348849Y-131173981D01*
X175348845Y-131173976D01*
X175189449Y-131014580D01*
X175189444Y-131014576D01*
X175189442Y-131014574D01*
X175134440Y-130972370D01*
X175092958Y-130940540D01*
X175094823Y-130938109D01*
X175071769Y-130915044D01*
X175069332Y-130916915D01*
X175064384Y-130910466D01*
X174995298Y-130820430D01*
X174995295Y-130820427D01*
X174995291Y-130820422D01*
X174835895Y-130661026D01*
X174835890Y-130661022D01*
X174835888Y-130661020D01*
X174745852Y-130591934D01*
X174739404Y-130586986D01*
X174741234Y-130584600D01*
X174718173Y-130561523D01*
X174715779Y-130563361D01*
X174691008Y-130531079D01*
X174641745Y-130466877D01*
X174641742Y-130466874D01*
X174641738Y-130466869D01*
X174482342Y-130307473D01*
X174482337Y-130307469D01*
X174482335Y-130307467D01*
X174392299Y-130238381D01*
X174385851Y-130233433D01*
X174387716Y-130231002D01*
X174364662Y-130207937D01*
X174362225Y-130209808D01*
X174357277Y-130203359D01*
X174288191Y-130113323D01*
X174288188Y-130113320D01*
X174288184Y-130113315D01*
X174128788Y-129953919D01*
X174128783Y-129953915D01*
X174128781Y-129953913D01*
X174038745Y-129884827D01*
X174032297Y-129879879D01*
X174034127Y-129877493D01*
X174011066Y-129854416D01*
X174008672Y-129856254D01*
X173983901Y-129823972D01*
X173934638Y-129759770D01*
X173934635Y-129759767D01*
X173934631Y-129759762D01*
X173775235Y-129600366D01*
X173775228Y-129600360D01*
X173678744Y-129526326D01*
X173680574Y-129523940D01*
X173657513Y-129500863D01*
X173655119Y-129502701D01*
X173630348Y-129470419D01*
X173581085Y-129406217D01*
X173581082Y-129406214D01*
X173581078Y-129406209D01*
X173421682Y-129246813D01*
X173421677Y-129246809D01*
X173421675Y-129246807D01*
X173331639Y-129177721D01*
X173325191Y-129172773D01*
X173327054Y-129170344D01*
X173292798Y-129136086D01*
X173292539Y-129135637D01*
X173276093Y-129067730D01*
X173298970Y-129001712D01*
X173312263Y-128986003D01*
X176598729Y-125699538D01*
X176598733Y-125699536D01*
X176685858Y-125612411D01*
X176754311Y-125509964D01*
X176754312Y-125509963D01*
X176783662Y-125439104D01*
X176801463Y-125396130D01*
X176825500Y-125275284D01*
X176825500Y-120493080D01*
X176845185Y-120426041D01*
X176897989Y-120380286D01*
X176967147Y-120370342D01*
X177024983Y-120394702D01*
G37*
%TD.AperFunction*%
%TA.AperFunction,Conductor*%
G36*
X193986231Y-124070185D02*
G01*
X194006873Y-124086819D01*
X194663181Y-124743127D01*
X194696666Y-124804450D01*
X194699500Y-124830808D01*
X194699500Y-130580191D01*
X194679815Y-130647230D01*
X194627011Y-130692985D01*
X194557853Y-130702929D01*
X194494297Y-130673904D01*
X194487819Y-130667872D01*
X194414673Y-130594726D01*
X194414669Y-130594723D01*
X194308127Y-130523535D01*
X194189744Y-130474499D01*
X194189745Y-130474499D01*
X194185442Y-130473643D01*
X194172415Y-130471052D01*
X194064071Y-130449500D01*
X194064069Y-130449500D01*
X190217306Y-130449500D01*
X190150267Y-130429815D01*
X190129625Y-130413181D01*
X189439421Y-129722976D01*
X189439420Y-129722975D01*
X189383979Y-129685931D01*
X189332874Y-129651784D01*
X189214491Y-129602748D01*
X189214492Y-129602748D01*
X189211511Y-129602155D01*
X189202486Y-129600360D01*
X189088818Y-129577749D01*
X189088816Y-129577749D01*
X186862231Y-129577749D01*
X186795192Y-129558064D01*
X186774550Y-129541431D01*
X186639327Y-129406209D01*
X186382670Y-129149553D01*
X186302563Y-129084294D01*
X186302561Y-129084293D01*
X186302560Y-129084292D01*
X186145780Y-129005556D01*
X185975076Y-128965097D01*
X185975071Y-128965096D01*
X185975069Y-128965096D01*
X185799627Y-128965096D01*
X185799625Y-128965096D01*
X185799619Y-128965097D01*
X185628918Y-129005555D01*
X185612081Y-129014011D01*
X185543337Y-129026504D01*
X185478752Y-128999849D01*
X185445624Y-128958850D01*
X185398141Y-128864303D01*
X185335059Y-128786865D01*
X185247296Y-128699102D01*
X185138811Y-128590617D01*
X185105326Y-128529294D01*
X185102492Y-128502936D01*
X185102492Y-128402090D01*
X185122177Y-128335051D01*
X185138811Y-128314409D01*
X185566401Y-127886819D01*
X185627724Y-127853334D01*
X185654082Y-127850500D01*
X185840716Y-127850500D01*
X185907755Y-127870185D01*
X185928397Y-127886819D01*
X186162457Y-128120878D01*
X186392026Y-128350447D01*
X186472134Y-128415706D01*
X186581467Y-128470614D01*
X186628917Y-128494444D01*
X186768515Y-128527530D01*
X186799627Y-128534904D01*
X186799630Y-128534904D01*
X186975066Y-128534904D01*
X186975069Y-128534904D01*
X187145781Y-128494443D01*
X187302563Y-128415706D01*
X187382670Y-128350449D01*
X187806945Y-127926172D01*
X187872204Y-127846065D01*
X187950941Y-127689283D01*
X187991402Y-127518571D01*
X187991402Y-127343129D01*
X187984726Y-127314964D01*
X187950942Y-127172419D01*
X187950941Y-127172417D01*
X187872204Y-127015636D01*
X187872200Y-127015631D01*
X187872199Y-127015629D01*
X187806956Y-126935539D01*
X187806955Y-126935538D01*
X187806947Y-126935528D01*
X187620919Y-126749500D01*
X187415068Y-126543649D01*
X187381583Y-126482326D01*
X187378749Y-126455968D01*
X187378749Y-125992559D01*
X187398434Y-125925520D01*
X187415068Y-125904878D01*
X189233127Y-124086819D01*
X189294450Y-124053334D01*
X189320808Y-124050500D01*
X193919192Y-124050500D01*
X193986231Y-124070185D01*
G37*
%TD.AperFunction*%
%TA.AperFunction,Conductor*%
G36*
X175539215Y-120888240D02*
G01*
X175571970Y-120949956D01*
X175574500Y-120974875D01*
X175574500Y-124903225D01*
X175554815Y-124970264D01*
X175538181Y-124990906D01*
X172427679Y-128101407D01*
X172366356Y-128134892D01*
X172296664Y-128129908D01*
X172278039Y-128121137D01*
X172277590Y-128120878D01*
X172243342Y-128086617D01*
X172240905Y-128088488D01*
X172235955Y-128082037D01*
X172166871Y-127992003D01*
X172166868Y-127992000D01*
X172166864Y-127991995D01*
X172007468Y-127832599D01*
X172007463Y-127832595D01*
X172007461Y-127832593D01*
X171917425Y-127763507D01*
X171910977Y-127758559D01*
X171912807Y-127756173D01*
X171889746Y-127733096D01*
X171887352Y-127734934D01*
X171859574Y-127698733D01*
X171813318Y-127638450D01*
X171813315Y-127638447D01*
X171813311Y-127638442D01*
X171653915Y-127479046D01*
X171653910Y-127479042D01*
X171653908Y-127479040D01*
X171563872Y-127409954D01*
X171557424Y-127405006D01*
X171559289Y-127402575D01*
X171536235Y-127379510D01*
X171533798Y-127381381D01*
X171528850Y-127374932D01*
X171459764Y-127284896D01*
X171459761Y-127284893D01*
X171459757Y-127284888D01*
X171300361Y-127125492D01*
X171300356Y-127125488D01*
X171300354Y-127125486D01*
X171210318Y-127056400D01*
X171203870Y-127051452D01*
X171205700Y-127049066D01*
X171182639Y-127025989D01*
X171180245Y-127027827D01*
X171130356Y-126962810D01*
X171106211Y-126931343D01*
X171106208Y-126931340D01*
X171106204Y-126931335D01*
X170946808Y-126771939D01*
X170946803Y-126771935D01*
X170946801Y-126771933D01*
X170856765Y-126702847D01*
X170850317Y-126697899D01*
X170852147Y-126695513D01*
X170829086Y-126672436D01*
X170826692Y-126674274D01*
X170787759Y-126623535D01*
X170752658Y-126577790D01*
X170752655Y-126577787D01*
X170752651Y-126577782D01*
X170593255Y-126418386D01*
X170593250Y-126418382D01*
X170593248Y-126418380D01*
X170559258Y-126392299D01*
X170503213Y-126349294D01*
X170363215Y-126291305D01*
X170363213Y-126291304D01*
X170212981Y-126271527D01*
X170212979Y-126271527D01*
X170062745Y-126291304D01*
X170062743Y-126291305D01*
X169922747Y-126349293D01*
X169832713Y-126418378D01*
X169832706Y-126418384D01*
X169585699Y-126665391D01*
X169524376Y-126698876D01*
X169454684Y-126693892D01*
X169410337Y-126665391D01*
X169011818Y-126266872D01*
X168978333Y-126205549D01*
X168975499Y-126179191D01*
X168975499Y-125801662D01*
X168975498Y-125801644D01*
X168965349Y-125702292D01*
X168965348Y-125702289D01*
X168951087Y-125659251D01*
X168912003Y-125541303D01*
X168911999Y-125541297D01*
X168911998Y-125541294D01*
X168822970Y-125396959D01*
X168822967Y-125396955D01*
X168703044Y-125277032D01*
X168703040Y-125277029D01*
X168558705Y-125188001D01*
X168558699Y-125187998D01*
X168558697Y-125187997D01*
X168558694Y-125187996D01*
X168397709Y-125134651D01*
X168298352Y-125124500D01*
X168298345Y-125124500D01*
X168020808Y-125124500D01*
X167953769Y-125104815D01*
X167933127Y-125088181D01*
X167861819Y-125016873D01*
X167828334Y-124955550D01*
X167825500Y-124929192D01*
X167825500Y-124366385D01*
X167800502Y-124240718D01*
X167800501Y-124240717D01*
X167800501Y-124240713D01*
X167777232Y-124184536D01*
X167751309Y-124121951D01*
X167743840Y-124052482D01*
X167775115Y-123990003D01*
X167835204Y-123954351D01*
X167865870Y-123950499D01*
X168072591Y-123950499D01*
X168139630Y-123970184D01*
X168160272Y-123986818D01*
X168789418Y-124615964D01*
X169832706Y-125659253D01*
X169832713Y-125659259D01*
X169885206Y-125699538D01*
X169922747Y-125728344D01*
X170062744Y-125786333D01*
X170137862Y-125796222D01*
X170212979Y-125806111D01*
X170212980Y-125806111D01*
X170212981Y-125806111D01*
X170263058Y-125799518D01*
X170363215Y-125786333D01*
X170503212Y-125728344D01*
X170593248Y-125659258D01*
X170752658Y-125499848D01*
X170821744Y-125409812D01*
X170879733Y-125269815D01*
X170889485Y-125195732D01*
X170917751Y-125131837D01*
X170976075Y-125093365D01*
X170996233Y-125088980D01*
X171070321Y-125079227D01*
X171210318Y-125021238D01*
X171300354Y-124952152D01*
X171459764Y-124792742D01*
X171528850Y-124702706D01*
X171528850Y-124702704D01*
X171533798Y-124696257D01*
X171536220Y-124698115D01*
X171559281Y-124675054D01*
X171557423Y-124672632D01*
X171563870Y-124667684D01*
X171563872Y-124667684D01*
X171653908Y-124598598D01*
X171813318Y-124439188D01*
X171882404Y-124349152D01*
X171882404Y-124349150D01*
X171887352Y-124342703D01*
X171889815Y-124344593D01*
X171912866Y-124321542D01*
X171910976Y-124319079D01*
X171917423Y-124314131D01*
X171917425Y-124314131D01*
X172007461Y-124245045D01*
X172166871Y-124085635D01*
X172235957Y-123995599D01*
X172235957Y-123995597D01*
X172240905Y-123989150D01*
X172243327Y-123991008D01*
X172266388Y-123967947D01*
X172264530Y-123965525D01*
X172270977Y-123960577D01*
X172270979Y-123960577D01*
X172361015Y-123891491D01*
X172520425Y-123732081D01*
X172589511Y-123642045D01*
X172589511Y-123642043D01*
X172594459Y-123635596D01*
X172596922Y-123637486D01*
X172619973Y-123614435D01*
X172618083Y-123611972D01*
X172624530Y-123607024D01*
X172624532Y-123607024D01*
X172714568Y-123537938D01*
X172873978Y-123378528D01*
X172943064Y-123288492D01*
X172943064Y-123288490D01*
X172948012Y-123282043D01*
X172950475Y-123283933D01*
X172973526Y-123260882D01*
X172971636Y-123258419D01*
X172978083Y-123253471D01*
X172978085Y-123253471D01*
X173068121Y-123184385D01*
X173227531Y-123024975D01*
X173296617Y-122934939D01*
X173296617Y-122934937D01*
X173301565Y-122928490D01*
X173303987Y-122930348D01*
X173327048Y-122907287D01*
X173325190Y-122904865D01*
X173331637Y-122899917D01*
X173331639Y-122899917D01*
X173421675Y-122830831D01*
X173581085Y-122671421D01*
X173650171Y-122581385D01*
X173650171Y-122581383D01*
X173655119Y-122574936D01*
X173657582Y-122576826D01*
X173680633Y-122553775D01*
X173678743Y-122551312D01*
X173685190Y-122546364D01*
X173685192Y-122546364D01*
X173775228Y-122477278D01*
X173934638Y-122317868D01*
X174003724Y-122227832D01*
X174003724Y-122227830D01*
X174008672Y-122221383D01*
X174011135Y-122223273D01*
X174034186Y-122200222D01*
X174032296Y-122197759D01*
X174038743Y-122192811D01*
X174038745Y-122192811D01*
X174128781Y-122123725D01*
X174288191Y-121964315D01*
X174357277Y-121874279D01*
X174357277Y-121874277D01*
X174362225Y-121867830D01*
X174364647Y-121869688D01*
X174387708Y-121846627D01*
X174385850Y-121844205D01*
X174392297Y-121839257D01*
X174392299Y-121839257D01*
X174482335Y-121770171D01*
X174641745Y-121610761D01*
X174710831Y-121520725D01*
X174710831Y-121520723D01*
X174715779Y-121514276D01*
X174718242Y-121516166D01*
X174741293Y-121493115D01*
X174739403Y-121490652D01*
X174745850Y-121485704D01*
X174745852Y-121485704D01*
X174835888Y-121416618D01*
X174995298Y-121257208D01*
X175064384Y-121167172D01*
X175064384Y-121167170D01*
X175069332Y-121160723D01*
X175071754Y-121162581D01*
X175094815Y-121139520D01*
X175092957Y-121137098D01*
X175099404Y-121132150D01*
X175099406Y-121132150D01*
X175189442Y-121063064D01*
X175348852Y-120903654D01*
X175352123Y-120899389D01*
X175408548Y-120858187D01*
X175478294Y-120854030D01*
X175539215Y-120888240D01*
G37*
%TD.AperFunction*%
%TA.AperFunction,Conductor*%
G36*
X192646231Y-99470185D02*
G01*
X192666873Y-99486819D01*
X194663181Y-101483126D01*
X194696666Y-101544449D01*
X194699500Y-101570807D01*
X194699500Y-122700656D01*
X194679815Y-122767695D01*
X194627011Y-122813450D01*
X194557853Y-122823394D01*
X194528048Y-122815217D01*
X194429748Y-122774500D01*
X194429738Y-122774497D01*
X194304071Y-122749500D01*
X194304069Y-122749500D01*
X188935931Y-122749500D01*
X188935929Y-122749500D01*
X188810261Y-122774497D01*
X188810255Y-122774499D01*
X188691874Y-122823534D01*
X188585326Y-122894726D01*
X188585325Y-122894727D01*
X186313580Y-125166474D01*
X185366873Y-126113181D01*
X185305550Y-126146666D01*
X185279192Y-126149500D01*
X184849055Y-126149500D01*
X184782016Y-126129815D01*
X184761378Y-126113185D01*
X184613135Y-125964943D01*
X184535697Y-125901859D01*
X184535694Y-125901857D01*
X184535691Y-125901855D01*
X184384142Y-125825745D01*
X184384140Y-125825744D01*
X184384139Y-125825744D01*
X184219113Y-125786632D01*
X184162284Y-125786632D01*
X184095245Y-125766947D01*
X184049490Y-125714143D01*
X184039546Y-125644985D01*
X184068571Y-125581429D01*
X184074603Y-125574951D01*
X186007510Y-123642045D01*
X188087736Y-121561819D01*
X188149059Y-121528334D01*
X188175417Y-121525500D01*
X191781608Y-121525500D01*
X191781608Y-121525499D01*
X191871935Y-121507533D01*
X191871936Y-121507533D01*
X191882199Y-121505491D01*
X191902452Y-121501463D01*
X191962800Y-121476466D01*
X192016286Y-121454312D01*
X192089670Y-121405277D01*
X192118733Y-121385858D01*
X192205858Y-121298733D01*
X192205858Y-121298731D01*
X192216066Y-121288524D01*
X192216067Y-121288521D01*
X192542162Y-120962426D01*
X192603484Y-120928943D01*
X192668159Y-120932178D01*
X192683757Y-120937246D01*
X192893713Y-120970500D01*
X192893714Y-120970500D01*
X193106286Y-120970500D01*
X193106287Y-120970500D01*
X193316243Y-120937246D01*
X193518412Y-120871557D01*
X193707816Y-120775051D01*
X193798025Y-120709511D01*
X193879786Y-120650109D01*
X193879788Y-120650106D01*
X193879792Y-120650104D01*
X194030104Y-120499792D01*
X194030106Y-120499788D01*
X194030109Y-120499786D01*
X194155048Y-120327820D01*
X194155047Y-120327820D01*
X194155051Y-120327816D01*
X194251557Y-120138412D01*
X194317246Y-119936243D01*
X194350500Y-119726287D01*
X194350500Y-119513713D01*
X194317246Y-119303757D01*
X194251557Y-119101588D01*
X194155051Y-118912184D01*
X194155049Y-118912181D01*
X194155048Y-118912179D01*
X194030109Y-118740213D01*
X193879786Y-118589890D01*
X193707820Y-118464951D01*
X193707115Y-118464591D01*
X193699054Y-118460485D01*
X193648259Y-118412512D01*
X193631463Y-118344692D01*
X193653999Y-118278556D01*
X193699054Y-118239515D01*
X193707816Y-118235051D01*
X193729789Y-118219086D01*
X193879786Y-118110109D01*
X193879788Y-118110106D01*
X193879792Y-118110104D01*
X194030104Y-117959792D01*
X194030106Y-117959788D01*
X194030109Y-117959786D01*
X194155048Y-117787820D01*
X194155047Y-117787820D01*
X194155051Y-117787816D01*
X194251557Y-117598412D01*
X194317246Y-117396243D01*
X194350500Y-117186287D01*
X194350500Y-116973713D01*
X194317246Y-116763757D01*
X194251557Y-116561588D01*
X194155051Y-116372184D01*
X194155049Y-116372181D01*
X194155048Y-116372179D01*
X194030109Y-116200213D01*
X193879786Y-116049890D01*
X193707820Y-115924951D01*
X193707115Y-115924591D01*
X193699054Y-115920485D01*
X193648259Y-115872512D01*
X193631463Y-115804692D01*
X193653999Y-115738556D01*
X193699054Y-115699515D01*
X193707816Y-115695051D01*
X193788748Y-115636251D01*
X193879786Y-115570109D01*
X193879788Y-115570106D01*
X193879792Y-115570104D01*
X194030104Y-115419792D01*
X194030106Y-115419788D01*
X194030109Y-115419786D01*
X194155048Y-115247820D01*
X194155047Y-115247820D01*
X194155051Y-115247816D01*
X194251557Y-115058412D01*
X194317246Y-114856243D01*
X194350500Y-114646287D01*
X194350500Y-114433713D01*
X194317246Y-114223757D01*
X194251557Y-114021588D01*
X194155051Y-113832184D01*
X194155049Y-113832181D01*
X194155048Y-113832179D01*
X194030109Y-113660213D01*
X193879786Y-113509890D01*
X193707820Y-113384951D01*
X193707115Y-113384591D01*
X193699054Y-113380485D01*
X193648259Y-113332512D01*
X193631463Y-113264692D01*
X193653999Y-113198556D01*
X193699054Y-113159515D01*
X193707816Y-113155051D01*
X193767853Y-113111432D01*
X193879786Y-113030109D01*
X193879788Y-113030106D01*
X193879792Y-113030104D01*
X194030104Y-112879792D01*
X194030106Y-112879788D01*
X194030109Y-112879786D01*
X194155048Y-112707820D01*
X194155047Y-112707820D01*
X194155051Y-112707816D01*
X194251557Y-112518412D01*
X194317246Y-112316243D01*
X194350500Y-112106287D01*
X194350500Y-111893713D01*
X194317246Y-111683757D01*
X194251557Y-111481588D01*
X194155051Y-111292184D01*
X194155049Y-111292181D01*
X194155048Y-111292179D01*
X194030109Y-111120213D01*
X193879786Y-110969890D01*
X193707820Y-110844951D01*
X193707115Y-110844591D01*
X193699054Y-110840485D01*
X193648259Y-110792512D01*
X193631463Y-110724692D01*
X193653999Y-110658556D01*
X193699054Y-110619515D01*
X193707816Y-110615051D01*
X193729789Y-110599086D01*
X193879786Y-110490109D01*
X193879788Y-110490106D01*
X193879792Y-110490104D01*
X194030104Y-110339792D01*
X194030106Y-110339788D01*
X194030109Y-110339786D01*
X194155048Y-110167820D01*
X194155047Y-110167820D01*
X194155051Y-110167816D01*
X194251557Y-109978412D01*
X194317246Y-109776243D01*
X194350500Y-109566287D01*
X194350500Y-109353713D01*
X194317246Y-109143757D01*
X194251557Y-108941588D01*
X194155051Y-108752184D01*
X194155049Y-108752181D01*
X194155048Y-108752179D01*
X194030109Y-108580213D01*
X193879786Y-108429890D01*
X193707820Y-108304951D01*
X193707115Y-108304591D01*
X193699054Y-108300485D01*
X193648259Y-108252512D01*
X193631463Y-108184692D01*
X193653999Y-108118556D01*
X193699054Y-108079515D01*
X193707816Y-108075051D01*
X193729789Y-108059086D01*
X193879786Y-107950109D01*
X193879788Y-107950106D01*
X193879792Y-107950104D01*
X194030104Y-107799792D01*
X194030106Y-107799788D01*
X194030109Y-107799786D01*
X194155048Y-107627820D01*
X194155047Y-107627820D01*
X194155051Y-107627816D01*
X194251557Y-107438412D01*
X194317246Y-107236243D01*
X194350500Y-107026287D01*
X194350500Y-106813713D01*
X194317246Y-106603757D01*
X194251557Y-106401588D01*
X194155051Y-106212184D01*
X194155049Y-106212181D01*
X194155048Y-106212179D01*
X194030109Y-106040213D01*
X193879786Y-105889890D01*
X193707820Y-105764951D01*
X193707115Y-105764591D01*
X193699054Y-105760485D01*
X193648259Y-105712512D01*
X193631463Y-105644692D01*
X193653999Y-105578556D01*
X193699054Y-105539515D01*
X193707816Y-105535051D01*
X193842108Y-105437483D01*
X193879786Y-105410109D01*
X193879788Y-105410106D01*
X193879792Y-105410104D01*
X194030104Y-105259792D01*
X194030106Y-105259788D01*
X194030109Y-105259786D01*
X194155048Y-105087820D01*
X194155047Y-105087820D01*
X194155051Y-105087816D01*
X194251557Y-104898412D01*
X194317246Y-104696243D01*
X194350500Y-104486287D01*
X194350500Y-104273713D01*
X194317246Y-104063757D01*
X194251557Y-103861588D01*
X194155051Y-103672184D01*
X194155049Y-103672181D01*
X194155048Y-103672179D01*
X194030109Y-103500213D01*
X193879786Y-103349890D01*
X193707820Y-103224951D01*
X193518414Y-103128444D01*
X193518413Y-103128443D01*
X193518412Y-103128443D01*
X193316243Y-103062754D01*
X193316241Y-103062753D01*
X193316240Y-103062753D01*
X193154957Y-103037208D01*
X193106287Y-103029500D01*
X192893713Y-103029500D01*
X192845042Y-103037208D01*
X192683760Y-103062753D01*
X192481585Y-103128444D01*
X192292179Y-103224951D01*
X192120213Y-103349890D01*
X191969890Y-103500213D01*
X191844949Y-103672182D01*
X191840484Y-103680946D01*
X191792509Y-103731742D01*
X191724688Y-103748536D01*
X191658553Y-103725998D01*
X191619516Y-103680946D01*
X191615050Y-103672182D01*
X191490109Y-103500213D01*
X191339786Y-103349890D01*
X191167820Y-103224951D01*
X191167115Y-103224591D01*
X191159054Y-103220485D01*
X191108259Y-103172512D01*
X191091463Y-103104692D01*
X191113999Y-103038556D01*
X191159054Y-102999515D01*
X191167816Y-102995051D01*
X191234921Y-102946297D01*
X191339786Y-102870109D01*
X191339788Y-102870106D01*
X191339792Y-102870104D01*
X191490104Y-102719792D01*
X191490106Y-102719788D01*
X191490109Y-102719786D01*
X191603500Y-102563715D01*
X191615051Y-102547816D01*
X191711557Y-102358412D01*
X191777246Y-102156243D01*
X191810500Y-101946287D01*
X191810500Y-101733713D01*
X191777246Y-101523757D01*
X191711557Y-101321588D01*
X191615051Y-101132184D01*
X191615049Y-101132181D01*
X191615048Y-101132179D01*
X191490109Y-100960213D01*
X191339786Y-100809890D01*
X191167820Y-100684951D01*
X190978414Y-100588444D01*
X190978413Y-100588443D01*
X190978412Y-100588443D01*
X190776243Y-100522754D01*
X190776241Y-100522753D01*
X190776240Y-100522753D01*
X190614957Y-100497208D01*
X190566287Y-100489500D01*
X190353713Y-100489500D01*
X190305042Y-100497208D01*
X190143760Y-100522753D01*
X189941585Y-100588444D01*
X189752179Y-100684951D01*
X189580213Y-100809890D01*
X189429890Y-100960213D01*
X189304951Y-101132179D01*
X189208444Y-101321585D01*
X189142753Y-101523760D01*
X189135302Y-101570807D01*
X189109500Y-101733713D01*
X189109500Y-101946287D01*
X189130090Y-102076289D01*
X189132437Y-102091102D01*
X189123483Y-102160395D01*
X189078486Y-102213847D01*
X189011735Y-102234487D01*
X189009964Y-102234500D01*
X188614969Y-102234500D01*
X188547930Y-102214815D01*
X188527288Y-102198182D01*
X188405395Y-102076290D01*
X188405394Y-102076288D01*
X188318269Y-101989163D01*
X188318268Y-101989162D01*
X188318267Y-101989161D01*
X188254101Y-101946287D01*
X188215822Y-101920709D01*
X188215823Y-101920709D01*
X188215821Y-101920708D01*
X188174656Y-101903658D01*
X188133491Y-101886607D01*
X188133489Y-101886605D01*
X188101991Y-101873559D01*
X188101989Y-101873558D01*
X188101988Y-101873558D01*
X188041565Y-101861539D01*
X187981146Y-101849521D01*
X187981143Y-101849521D01*
X187981142Y-101849521D01*
X185460337Y-101849521D01*
X185460317Y-101849520D01*
X185454203Y-101849520D01*
X185330990Y-101849520D01*
X185230193Y-101869569D01*
X185230188Y-101869569D01*
X185210145Y-101873557D01*
X185210143Y-101873557D01*
X185162993Y-101893088D01*
X185096315Y-101920706D01*
X185096313Y-101920707D01*
X184993864Y-101989161D01*
X184933970Y-102049056D01*
X184784844Y-102198182D01*
X184723524Y-102231666D01*
X184697165Y-102234500D01*
X183224835Y-102234500D01*
X183164417Y-102246518D01*
X183103994Y-102258537D01*
X183103989Y-102258538D01*
X183069992Y-102272620D01*
X183056843Y-102278067D01*
X182990165Y-102305685D01*
X182977849Y-102313915D01*
X182887714Y-102374140D01*
X182844151Y-102417703D01*
X182800588Y-102461267D01*
X182800585Y-102461270D01*
X181861270Y-103400585D01*
X181861267Y-103400588D01*
X181817704Y-103444150D01*
X181774142Y-103487712D01*
X181765793Y-103500208D01*
X181748236Y-103526484D01*
X181705687Y-103590160D01*
X181705687Y-103590161D01*
X181679678Y-103652953D01*
X181635837Y-103707356D01*
X181569543Y-103729421D01*
X181565137Y-103729500D01*
X181562141Y-103729500D01*
X181562118Y-103729501D01*
X181523253Y-103733679D01*
X181496748Y-103733679D01*
X181457875Y-103729500D01*
X181094043Y-103729500D01*
X181027004Y-103709815D01*
X180981249Y-103657011D01*
X180971858Y-103622174D01*
X180971689Y-103622208D01*
X180971186Y-103619680D01*
X180970640Y-103617654D01*
X180970500Y-103616238D01*
X180970500Y-103616233D01*
X180937816Y-103451918D01*
X180873703Y-103297137D01*
X180825470Y-103224951D01*
X180780626Y-103157837D01*
X180662162Y-103039373D01*
X180522860Y-102946295D01*
X180368082Y-102882184D01*
X180368074Y-102882182D01*
X180203771Y-102849500D01*
X180203767Y-102849500D01*
X180036233Y-102849500D01*
X180036228Y-102849500D01*
X179871925Y-102882182D01*
X179871917Y-102882184D01*
X179717139Y-102946295D01*
X179577837Y-103039373D01*
X179459373Y-103157837D01*
X179366295Y-103297139D01*
X179302184Y-103451917D01*
X179302182Y-103451925D01*
X179269500Y-103616228D01*
X179269500Y-103783771D01*
X179302182Y-103948074D01*
X179302184Y-103948082D01*
X179366295Y-104102860D01*
X179459373Y-104242162D01*
X179577834Y-104360623D01*
X179577838Y-104360626D01*
X179717130Y-104453699D01*
X179717137Y-104453703D01*
X179757952Y-104470609D01*
X179812355Y-104514449D01*
X179834421Y-104580742D01*
X179834500Y-104585170D01*
X179834500Y-105377870D01*
X179834501Y-105377876D01*
X179840908Y-105437483D01*
X179891202Y-105572328D01*
X179891206Y-105572335D01*
X179977452Y-105687544D01*
X179977455Y-105687547D01*
X180092664Y-105773793D01*
X180092671Y-105773797D01*
X180180514Y-105806560D01*
X180236447Y-105848431D01*
X180260865Y-105913895D01*
X180254887Y-105961746D01*
X180210001Y-106097203D01*
X180210000Y-106097204D01*
X180199500Y-106199983D01*
X180199500Y-107200001D01*
X180199501Y-107200019D01*
X180210000Y-107302796D01*
X180210001Y-107302799D01*
X180254939Y-107438412D01*
X180265186Y-107469334D01*
X180357288Y-107618656D01*
X180481344Y-107742712D01*
X180630666Y-107834814D01*
X180797203Y-107889999D01*
X180899991Y-107900500D01*
X181525008Y-107900499D01*
X181525016Y-107900498D01*
X181525019Y-107900498D01*
X181581302Y-107894748D01*
X181627797Y-107889999D01*
X181794334Y-107834814D01*
X181943656Y-107742712D01*
X182067712Y-107618656D01*
X182159814Y-107469334D01*
X182214999Y-107302797D01*
X182225500Y-107200009D01*
X182225499Y-106199992D01*
X182214999Y-106097203D01*
X182180635Y-105993502D01*
X182178234Y-105923675D01*
X182213966Y-105863633D01*
X182276486Y-105832440D01*
X182298342Y-105830499D01*
X182457872Y-105830499D01*
X182457885Y-105830498D01*
X182496744Y-105826320D01*
X182523335Y-105826328D01*
X182523842Y-105826383D01*
X182588373Y-105853166D01*
X182628182Y-105910586D01*
X182634500Y-105949663D01*
X182634500Y-112812070D01*
X182614815Y-112879109D01*
X182562011Y-112924864D01*
X182492853Y-112934808D01*
X182429297Y-112905783D01*
X182422821Y-112899754D01*
X182407974Y-112884907D01*
X182407965Y-112884900D01*
X182407960Y-112884895D01*
X182327874Y-112819654D01*
X182327868Y-112819650D01*
X182327867Y-112819649D01*
X182249125Y-112780104D01*
X182171083Y-112740910D01*
X182000380Y-112700452D01*
X182000375Y-112700451D01*
X182000373Y-112700451D01*
X181824932Y-112700451D01*
X181824931Y-112700451D01*
X181771481Y-112713119D01*
X181701709Y-112709426D01*
X181655203Y-112680143D01*
X181418800Y-112443740D01*
X181385315Y-112382417D01*
X181382481Y-112356059D01*
X181382481Y-112149921D01*
X181345534Y-111916650D01*
X181272547Y-111692022D01*
X181165323Y-111481585D01*
X181154425Y-111466585D01*
X181026498Y-111290509D01*
X180859491Y-111123502D01*
X180668414Y-110984676D01*
X180639395Y-110969890D01*
X180457977Y-110877452D01*
X180233349Y-110804465D01*
X180000078Y-110767519D01*
X180000073Y-110767519D01*
X179763889Y-110767519D01*
X179763884Y-110767519D01*
X179530612Y-110804465D01*
X179305984Y-110877452D01*
X179095547Y-110984676D01*
X178986531Y-111063881D01*
X178904471Y-111123502D01*
X178904469Y-111123504D01*
X178904468Y-111123504D01*
X178737466Y-111290506D01*
X178737466Y-111290507D01*
X178737464Y-111290509D01*
X178687339Y-111359500D01*
X178598638Y-111481585D01*
X178491414Y-111692022D01*
X178418427Y-111916650D01*
X178381481Y-112149921D01*
X178381481Y-112368540D01*
X178361796Y-112435579D01*
X178308992Y-112481334D01*
X178239834Y-112491278D01*
X178176278Y-112462253D01*
X178169800Y-112456221D01*
X177322605Y-111609026D01*
X177289120Y-111547703D01*
X177286286Y-111521345D01*
X177286286Y-102341714D01*
X177261288Y-102216047D01*
X177261287Y-102216046D01*
X177261287Y-102216042D01*
X177212251Y-102097659D01*
X177141063Y-101991117D01*
X177141061Y-101991115D01*
X177141059Y-101991112D01*
X177141058Y-101991111D01*
X176930657Y-101780711D01*
X176897172Y-101719388D01*
X176897689Y-101671245D01*
X176896484Y-101671055D01*
X176922189Y-101508759D01*
X176930500Y-101456287D01*
X176930500Y-101243713D01*
X176900664Y-101055338D01*
X176896484Y-101028945D01*
X176898123Y-101028685D01*
X176901257Y-100966126D01*
X176930655Y-100919289D01*
X178363127Y-99486819D01*
X178424450Y-99453334D01*
X178450808Y-99450500D01*
X192579192Y-99450500D01*
X192646231Y-99470185D01*
G37*
%TD.AperFunction*%
%TA.AperFunction,Conductor*%
G36*
X166181587Y-118370185D02*
G01*
X166202229Y-118386819D01*
X168038181Y-120222771D01*
X168071666Y-120284094D01*
X168074500Y-120310452D01*
X168074500Y-121925500D01*
X168054815Y-121992539D01*
X168002011Y-122038294D01*
X167950500Y-122049500D01*
X167601662Y-122049500D01*
X167601644Y-122049501D01*
X167502292Y-122059650D01*
X167502289Y-122059651D01*
X167341305Y-122112996D01*
X167341294Y-122113001D01*
X167196959Y-122202029D01*
X167196955Y-122202032D01*
X167085807Y-122313181D01*
X167024484Y-122346666D01*
X166998126Y-122349500D01*
X166065352Y-122349500D01*
X165998313Y-122329815D01*
X165977671Y-122313181D01*
X164807159Y-121142669D01*
X164802446Y-121139520D01*
X164700613Y-121071478D01*
X164641986Y-121047194D01*
X164582230Y-121022442D01*
X164582224Y-121022440D01*
X164456557Y-120997443D01*
X164456555Y-120997443D01*
X164168750Y-120997443D01*
X164101711Y-120977758D01*
X164081069Y-120961124D01*
X163560916Y-120440969D01*
X163527431Y-120379646D01*
X163532415Y-120309954D01*
X163538104Y-120297010D01*
X163626557Y-120123412D01*
X163692246Y-119921243D01*
X163725500Y-119711287D01*
X163725500Y-119590352D01*
X163745185Y-119523313D01*
X163761819Y-119502671D01*
X164877672Y-118386819D01*
X164938995Y-118353334D01*
X164965353Y-118350500D01*
X166114548Y-118350500D01*
X166181587Y-118370185D01*
G37*
%TD.AperFunction*%
%TA.AperFunction,Conductor*%
G36*
X176116489Y-112242541D02*
G01*
X176126199Y-112252516D01*
X176126201Y-112252515D01*
X179031240Y-115157553D01*
X179064725Y-115218876D01*
X179059741Y-115288568D01*
X179031240Y-115332915D01*
X178346716Y-116017439D01*
X178300460Y-116086668D01*
X178275527Y-116123983D01*
X178226491Y-116242366D01*
X178226489Y-116242372D01*
X178201492Y-116368039D01*
X178201492Y-117067579D01*
X178181807Y-117134618D01*
X178165174Y-117155260D01*
X177968930Y-117351505D01*
X177905844Y-117428945D01*
X177905839Y-117428953D01*
X177829729Y-117580501D01*
X177829728Y-117580504D01*
X177829728Y-117580505D01*
X177790616Y-117745531D01*
X177790616Y-117915129D01*
X177829728Y-118080155D01*
X177903614Y-118227274D01*
X177916110Y-118296017D01*
X177889457Y-118360604D01*
X177880486Y-118370604D01*
X177858375Y-118392716D01*
X177858373Y-118392718D01*
X177037181Y-119213911D01*
X176975858Y-119247396D01*
X176906167Y-119242412D01*
X176850233Y-119200540D01*
X176825816Y-119135076D01*
X176825500Y-119126230D01*
X176825500Y-117538398D01*
X176825500Y-117538394D01*
X176824639Y-117534067D01*
X176804604Y-117433339D01*
X176801463Y-117417548D01*
X176786425Y-117381243D01*
X176772519Y-117347670D01*
X176754314Y-117303719D01*
X176754313Y-117303717D01*
X176732815Y-117271543D01*
X176732815Y-117271542D01*
X176685861Y-117201271D01*
X176685855Y-117201263D01*
X176595637Y-117111045D01*
X176595606Y-117111016D01*
X175947605Y-116463015D01*
X175914120Y-116401692D01*
X175911286Y-116375334D01*
X175911286Y-112336254D01*
X175930971Y-112269215D01*
X175983775Y-112223460D01*
X176052933Y-112213516D01*
X176116489Y-112242541D01*
G37*
%TD.AperFunction*%
%TA.AperFunction,Conductor*%
G36*
X180183824Y-116122737D02*
G01*
X180228171Y-116151238D01*
X180392026Y-116315093D01*
X180392034Y-116315099D01*
X180392039Y-116315104D01*
X180472125Y-116380345D01*
X180472128Y-116380347D01*
X180472133Y-116380351D01*
X180628914Y-116459088D01*
X180628916Y-116459089D01*
X180771459Y-116492873D01*
X180799627Y-116499549D01*
X180799630Y-116499549D01*
X180901751Y-116499549D01*
X180968790Y-116519234D01*
X181014545Y-116572038D01*
X181024489Y-116641196D01*
X180995464Y-116704752D01*
X180989432Y-116711230D01*
X180066069Y-117634592D01*
X180004746Y-117668077D01*
X179935054Y-117663093D01*
X179879121Y-117621221D01*
X179867578Y-117602562D01*
X179821886Y-117511584D01*
X179798141Y-117464303D01*
X179735059Y-117386865D01*
X179619736Y-117271542D01*
X179538811Y-117190617D01*
X179505326Y-117129294D01*
X179502492Y-117102936D01*
X179502492Y-116752917D01*
X179522177Y-116685878D01*
X179538807Y-116665240D01*
X180052809Y-116151237D01*
X180114132Y-116117753D01*
X180183824Y-116122737D01*
G37*
%TD.AperFunction*%
%TA.AperFunction,Conductor*%
G36*
X164012539Y-100820185D02*
G01*
X164058294Y-100872989D01*
X164069500Y-100924500D01*
X164069500Y-102247870D01*
X164069501Y-102247876D01*
X164075908Y-102307483D01*
X164126202Y-102442328D01*
X164126206Y-102442335D01*
X164212452Y-102557544D01*
X164212455Y-102557547D01*
X164327664Y-102643793D01*
X164327671Y-102643797D01*
X164462517Y-102694091D01*
X164462516Y-102694091D01*
X164469444Y-102694835D01*
X164522127Y-102700500D01*
X165834547Y-102700499D01*
X165901586Y-102720184D01*
X165922228Y-102736818D01*
X171343088Y-108157680D01*
X171343092Y-108157683D01*
X171445535Y-108226134D01*
X171445536Y-108226134D01*
X171445540Y-108226137D01*
X171497881Y-108247817D01*
X171559373Y-108273288D01*
X171579422Y-108277276D01*
X171613021Y-108283959D01*
X171680217Y-108297326D01*
X171680219Y-108297326D01*
X171809546Y-108297326D01*
X171809566Y-108297325D01*
X173844456Y-108297325D01*
X173911495Y-108317010D01*
X173954941Y-108365030D01*
X174002443Y-108458258D01*
X174141269Y-108649335D01*
X174308276Y-108816342D01*
X174451583Y-108920461D01*
X174499354Y-108955169D01*
X174535783Y-108973730D01*
X174592580Y-109002669D01*
X174643376Y-109050643D01*
X174660286Y-109113154D01*
X174660286Y-116310750D01*
X174640601Y-116377789D01*
X174587797Y-116423544D01*
X174518639Y-116433488D01*
X174455083Y-116404463D01*
X174448605Y-116398431D01*
X165161819Y-107111645D01*
X165128334Y-107050322D01*
X165125500Y-107023964D01*
X165125500Y-104538393D01*
X165125499Y-104538389D01*
X165118324Y-104502316D01*
X165101463Y-104417548D01*
X165054311Y-104303714D01*
X165054310Y-104303713D01*
X165054307Y-104303707D01*
X164985859Y-104201268D01*
X164985858Y-104201267D01*
X164898733Y-104114142D01*
X164898732Y-104114141D01*
X163492927Y-102708337D01*
X163492925Y-102708334D01*
X163492925Y-102708335D01*
X163485859Y-102701269D01*
X163485858Y-102701267D01*
X163398733Y-102614142D01*
X163398729Y-102614139D01*
X163398728Y-102614138D01*
X163323266Y-102563716D01*
X163323264Y-102563714D01*
X163323264Y-102563715D01*
X163296287Y-102545688D01*
X163267551Y-102533786D01*
X163198178Y-102505051D01*
X163198175Y-102505049D01*
X163198174Y-102505049D01*
X163182455Y-102498538D01*
X163182453Y-102498537D01*
X163182452Y-102498537D01*
X163122029Y-102486518D01*
X163061610Y-102474500D01*
X163061607Y-102474500D01*
X163061606Y-102474500D01*
X161420452Y-102474500D01*
X161353413Y-102454815D01*
X161332771Y-102438181D01*
X161177428Y-102282838D01*
X161143943Y-102221515D01*
X161147177Y-102156841D01*
X161152246Y-102141243D01*
X161185500Y-101931287D01*
X161185500Y-101718713D01*
X161152246Y-101508757D01*
X161147178Y-101493159D01*
X161145183Y-101423318D01*
X161177426Y-101367163D01*
X161707772Y-100836819D01*
X161769095Y-100803334D01*
X161795453Y-100800500D01*
X163945500Y-100800500D01*
X164012539Y-100820185D01*
G37*
%TD.AperFunction*%
%TA.AperFunction,Conductor*%
G36*
X187489727Y-103570206D02*
G01*
X187510369Y-103586840D01*
X187679135Y-103755606D01*
X187679164Y-103755637D01*
X187769382Y-103845855D01*
X187769386Y-103845858D01*
X187871826Y-103914307D01*
X187871835Y-103914312D01*
X187892858Y-103923020D01*
X187985667Y-103961463D01*
X188046090Y-103973481D01*
X188106512Y-103985500D01*
X188106513Y-103985500D01*
X189009964Y-103985500D01*
X189077003Y-104005185D01*
X189122758Y-104057989D01*
X189132702Y-104127147D01*
X189132445Y-104128842D01*
X189109500Y-104273713D01*
X189109500Y-104486287D01*
X189114544Y-104518132D01*
X189140377Y-104681239D01*
X189142754Y-104696243D01*
X189208443Y-104898412D01*
X189304949Y-105087816D01*
X189357429Y-105160049D01*
X189380909Y-105225855D01*
X189365084Y-105293909D01*
X189344792Y-105320615D01*
X187246753Y-107418656D01*
X186576269Y-108089140D01*
X186576267Y-108089142D01*
X185801269Y-108864140D01*
X185801267Y-108864142D01*
X185757705Y-108907703D01*
X185714144Y-108951264D01*
X185714142Y-108951267D01*
X185699131Y-108973733D01*
X185699130Y-108973735D01*
X185699129Y-108973734D01*
X185645689Y-109053712D01*
X185645687Y-109053716D01*
X185614604Y-109128756D01*
X185614605Y-109128757D01*
X185598536Y-109167549D01*
X185598535Y-109167555D01*
X185574500Y-109288389D01*
X185574500Y-113489011D01*
X185554815Y-113556050D01*
X185538181Y-113576692D01*
X184597181Y-114517692D01*
X184535858Y-114551177D01*
X184466166Y-114546193D01*
X184410233Y-114504321D01*
X184385816Y-114438857D01*
X184385500Y-114430011D01*
X184385500Y-107824499D01*
X184405185Y-107757460D01*
X184457989Y-107711705D01*
X184509495Y-107700499D01*
X185100008Y-107700499D01*
X185100016Y-107700498D01*
X185100019Y-107700498D01*
X185156302Y-107694748D01*
X185202797Y-107689999D01*
X185369334Y-107634814D01*
X185518656Y-107542712D01*
X185642712Y-107418656D01*
X185734814Y-107269334D01*
X185789999Y-107102797D01*
X185800500Y-107000009D01*
X185800499Y-105999992D01*
X185792631Y-105922970D01*
X185805401Y-105854279D01*
X185853281Y-105803395D01*
X185872657Y-105794188D01*
X185927326Y-105773798D01*
X185927326Y-105773797D01*
X185927331Y-105773796D01*
X186042546Y-105687546D01*
X186128796Y-105572331D01*
X186179091Y-105437483D01*
X186185500Y-105377873D01*
X186185499Y-104585170D01*
X186205183Y-104518132D01*
X186257987Y-104472377D01*
X186262047Y-104470610D01*
X186302858Y-104453705D01*
X186302857Y-104453705D01*
X186302863Y-104453703D01*
X186442162Y-104360626D01*
X186560626Y-104242162D01*
X186653703Y-104102863D01*
X186717816Y-103948082D01*
X186750500Y-103783767D01*
X186750500Y-103674521D01*
X186770185Y-103607482D01*
X186822989Y-103561727D01*
X186874500Y-103550521D01*
X187422688Y-103550521D01*
X187489727Y-103570206D01*
G37*
%TD.AperFunction*%
%TA.AperFunction,Conductor*%
G36*
X173226231Y-99920185D02*
G01*
X173246873Y-99936819D01*
X174229342Y-100919288D01*
X174262827Y-100980611D01*
X174262319Y-101028755D01*
X174263516Y-101028945D01*
X174259336Y-101055338D01*
X174229500Y-101243713D01*
X174229500Y-101456287D01*
X174262754Y-101666243D01*
X174284676Y-101733713D01*
X174328444Y-101868414D01*
X174424951Y-102057820D01*
X174549890Y-102229786D01*
X174700213Y-102380109D01*
X174872179Y-102505048D01*
X174872181Y-102505049D01*
X174872184Y-102505051D01*
X175061588Y-102601557D01*
X175263757Y-102667246D01*
X175473713Y-102700500D01*
X175473714Y-102700500D01*
X175686286Y-102700500D01*
X175686287Y-102700500D01*
X175841888Y-102675855D01*
X175911182Y-102684810D01*
X175964633Y-102729806D01*
X175985273Y-102796557D01*
X175985286Y-102798328D01*
X175985286Y-106150715D01*
X175965601Y-106217754D01*
X175912797Y-106263509D01*
X175843639Y-106273453D01*
X175822968Y-106268646D01*
X175637156Y-106208272D01*
X175403883Y-106171325D01*
X175403878Y-106171325D01*
X175167694Y-106171325D01*
X175167689Y-106171325D01*
X174934417Y-106208271D01*
X174709789Y-106281258D01*
X174499352Y-106388482D01*
X174423835Y-106443349D01*
X174308276Y-106527308D01*
X174308274Y-106527310D01*
X174308273Y-106527310D01*
X174141271Y-106694312D01*
X174141271Y-106694313D01*
X174141269Y-106694315D01*
X174081648Y-106776375D01*
X174002443Y-106885391D01*
X173954941Y-106978620D01*
X173906966Y-107029416D01*
X173844456Y-107046325D01*
X172052278Y-107046325D01*
X171985239Y-107026640D01*
X171964597Y-107010006D01*
X170027407Y-105072816D01*
X167866770Y-102912180D01*
X167833286Y-102850858D01*
X167838270Y-102781166D01*
X167880142Y-102725233D01*
X167945606Y-102700816D01*
X167954452Y-102700500D01*
X168066286Y-102700500D01*
X168066287Y-102700500D01*
X168276243Y-102667246D01*
X168478412Y-102601557D01*
X168667816Y-102505051D01*
X168728080Y-102461267D01*
X168839786Y-102380109D01*
X168839788Y-102380106D01*
X168839792Y-102380104D01*
X168990104Y-102229792D01*
X168990106Y-102229788D01*
X168990109Y-102229786D01*
X169115048Y-102057820D01*
X169115047Y-102057820D01*
X169115051Y-102057816D01*
X169119514Y-102049054D01*
X169167488Y-101998259D01*
X169235308Y-101981463D01*
X169301444Y-102003999D01*
X169340486Y-102049056D01*
X169344951Y-102057820D01*
X169469890Y-102229786D01*
X169620213Y-102380109D01*
X169792179Y-102505048D01*
X169792181Y-102505049D01*
X169792184Y-102505051D01*
X169981588Y-102601557D01*
X170183757Y-102667246D01*
X170393713Y-102700500D01*
X170393714Y-102700500D01*
X170606286Y-102700500D01*
X170606287Y-102700500D01*
X170816243Y-102667246D01*
X171018412Y-102601557D01*
X171207816Y-102505051D01*
X171268080Y-102461267D01*
X171379786Y-102380109D01*
X171379788Y-102380106D01*
X171379792Y-102380104D01*
X171530104Y-102229792D01*
X171530106Y-102229788D01*
X171530109Y-102229786D01*
X171655048Y-102057820D01*
X171655047Y-102057820D01*
X171655051Y-102057816D01*
X171751557Y-101868412D01*
X171817246Y-101666243D01*
X171850500Y-101456287D01*
X171850500Y-101243713D01*
X171817246Y-101033757D01*
X171751557Y-100831588D01*
X171655051Y-100642184D01*
X171655049Y-100642181D01*
X171655048Y-100642179D01*
X171530109Y-100470213D01*
X171379786Y-100319890D01*
X171207819Y-100194951D01*
X171207818Y-100194950D01*
X171207816Y-100194949D01*
X171090130Y-100134985D01*
X171039334Y-100087010D01*
X171022539Y-100019189D01*
X171045076Y-99953054D01*
X171099792Y-99909603D01*
X171146425Y-99900500D01*
X173159192Y-99900500D01*
X173226231Y-99920185D01*
G37*
%TD.AperFunction*%
%TD*%
M02*
