%TF.GenerationSoftware,KiCad,Pcbnew,10.0.6*%
%TF.CreationDate,2026-10-01T11:39:38-07:00*%
%TF.ProjectId,stm-module,73746d2d-6d6f-4647-956c-652e6b696361,rev?*%
%TF.SameCoordinates,Original*%
%TF.FileFunction,Copper,L2,Bot*%
%TF.FilePolarity,Positive*%
%FSLAX46Y46*%
G04 Gerber Fmt 4.6, Leading zero omitted, Abs format (unit mm)*
G04 Created by KiCad (PCBNEW 10.0.6) date 2026-10-01 11:39:38*
%MOMM*%
%LPD*%
G01*
G04 APERTURE LIST*
%TA.AperFunction,ComponentPad*%
%ADD10C,1.600000*%
%TD*%
%TA.AperFunction,ComponentPad*%
%ADD11R,1.700000X1.700000*%
%TD*%
%TA.AperFunction,ComponentPad*%
%ADD12C,1.700000*%
%TD*%
%TA.AperFunction,ComponentPad*%
%ADD13C,2.000000*%
%TD*%
%TA.AperFunction,ViaPad*%
%ADD14C,0.600000*%
%TD*%
G04 APERTURE END LIST*
D10*
%TO.P,C11,1*%
%TO.N,GND*%
X165332233Y-139967767D03*
%TO.P,C11,2*%
%TO.N,Net-(U1-PF1)*%
X168867767Y-136432233D03*
%TD*%
%TO.P,C10,1*%
%TO.N,GND*%
X164600000Y-120500000D03*
%TO.P,C10,2*%
%TO.N,Net-(U1-PF0)*%
X164600000Y-125500000D03*
%TD*%
D11*
%TO.P,J1,1,Pin_1_1*%
%TO.N,/NRST*%
X170320000Y-103600000D03*
D12*
%TO.P,J1,2,Pin_2_2*%
%TO.N,/PA13*%
X172860000Y-103600000D03*
%TO.P,J1,3,Pin_3_3*%
%TO.N,/PA14*%
X175400000Y-103600000D03*
%TO.P,J1,4,Pin_4_4*%
%TO.N,GND*%
X177940000Y-103600000D03*
%TO.P,J1,5,Pin_5_5*%
%TO.N,+3.3V*%
X180480000Y-103600000D03*
%TD*%
D13*
%TO.P,SW1,1,1_1*%
%TO.N,GND*%
X175385786Y-107721825D03*
X179981980Y-112318019D03*
%TO.P,SW1,2,2_2*%
%TO.N,/NRST*%
X172203805Y-110903806D03*
X176800000Y-115500000D03*
%TD*%
D11*
%TO.P,J4,1,Pin_1_1*%
%TO.N,+5V*%
X174100000Y-150700000D03*
D12*
%TO.P,J4,2,Pin_2_2*%
%TO.N,GND*%
X176640000Y-150700000D03*
%TO.P,J4,3,Pin_3_3*%
%TO.N,+5V*%
X179180000Y-150700000D03*
%TO.P,J4,4,Pin_4_4*%
%TO.N,GND*%
X181720000Y-150700000D03*
%TD*%
D11*
%TO.P,J2,1,Pin_1_1*%
%TO.N,GND*%
X162375000Y-101825000D03*
D12*
%TO.P,J2,2,Pin_2_2*%
%TO.N,/PA13*%
X159835000Y-101825000D03*
%TO.P,J2,3,Pin_3_3*%
%TO.N,/PA14*%
X162375000Y-104365000D03*
%TO.P,J2,4,Pin_4_4*%
%TO.N,/PA15*%
X159835000Y-104365000D03*
%TO.P,J2,5,Pin_5_5*%
%TO.N,/PC10*%
X162375000Y-106905000D03*
%TO.P,J2,6,Pin_6_6*%
%TO.N,/PC11*%
X159835000Y-106905000D03*
%TO.P,J2,7,Pin_7_7*%
%TO.N,/PC12*%
X162375000Y-109445000D03*
%TO.P,J2,8,Pin_8_8*%
%TO.N,/PD2*%
X159835000Y-109445000D03*
%TO.P,J2,9,Pin_9_9*%
%TO.N,/PB3*%
X162375000Y-111985000D03*
%TO.P,J2,10,Pin_10_10*%
%TO.N,/PB4*%
X159835000Y-111985000D03*
%TO.P,J2,11,Pin_11_11*%
%TO.N,/PB5*%
X162375000Y-114525000D03*
%TO.P,J2,12,Pin_12_12*%
%TO.N,/PB6*%
X159835000Y-114525000D03*
%TO.P,J2,13,Pin_13_13*%
%TO.N,/PB7*%
X162375000Y-117065000D03*
%TO.P,J2,14,Pin_14_14*%
%TO.N,/PB8*%
X159835000Y-117065000D03*
%TO.P,J2,15,Pin_15_15*%
%TO.N,/PB9*%
X162375000Y-119605000D03*
%TO.P,J2,16,Pin_16_16*%
%TO.N,+3.3V*%
X159835000Y-119605000D03*
%TO.P,J2,17,Pin_17_17*%
%TO.N,/PC13*%
X162375000Y-122145000D03*
%TO.P,J2,18,Pin_18_18*%
%TO.N,/PC14*%
X159835000Y-122145000D03*
%TO.P,J2,19,Pin_19_19*%
%TO.N,/PC15*%
X162375000Y-124685000D03*
%TO.P,J2,20,Pin_20_20*%
%TO.N,GND*%
X159835000Y-124685000D03*
%TO.P,J2,21,Pin_21_21*%
X162375000Y-127225000D03*
%TO.P,J2,22,Pin_22_22*%
X159835000Y-127225000D03*
%TO.P,J2,23,Pin_23_23*%
X162375000Y-129765000D03*
%TO.P,J2,24,Pin_24_24*%
X159835000Y-129765000D03*
%TO.P,J2,25,Pin_25_25*%
X162375000Y-132305000D03*
%TO.P,J2,26,Pin_26_26*%
X159835000Y-132305000D03*
%TO.P,J2,27,Pin_27_27*%
X162375000Y-134845000D03*
%TO.P,J2,28,Pin_28_28*%
X159835000Y-134845000D03*
%TO.P,J2,29,Pin_29_29*%
X162375000Y-137385000D03*
%TO.P,J2,30,Pin_30_30*%
X159835000Y-137385000D03*
%TO.P,J2,31,Pin_31_31*%
X162375000Y-139925000D03*
%TO.P,J2,32,Pin_32_32*%
X159835000Y-139925000D03*
%TO.P,J2,33,Pin_33_33*%
%TO.N,/PC0*%
X162375000Y-142465000D03*
%TO.P,J2,34,Pin_34_34*%
%TO.N,GND*%
X159835000Y-142465000D03*
%TO.P,J2,35,Pin_35_35*%
%TO.N,/PC2*%
X162375000Y-145005000D03*
%TO.P,J2,36,Pin_36_36*%
%TO.N,/PC1*%
X159835000Y-145005000D03*
%TO.P,J2,37,Pin_37_37*%
%TO.N,/PA0*%
X162375000Y-147545000D03*
%TO.P,J2,38,Pin_38_38*%
%TO.N,/PC3*%
X159835000Y-147545000D03*
%TO.P,J2,39,Pin_39_39*%
%TO.N,/PA2*%
X162375000Y-150085000D03*
%TO.P,J2,40,Pin_40_40*%
%TO.N,/PA1*%
X159835000Y-150085000D03*
%TD*%
D11*
%TO.P,J3,1,Pin_1_1*%
%TO.N,GND*%
X193000000Y-101840000D03*
D12*
%TO.P,J3,2,Pin_2_2*%
%TO.N,/PA12*%
X190460000Y-101840000D03*
%TO.P,J3,3,Pin_3_3*%
%TO.N,/PA10*%
X193000000Y-104380000D03*
%TO.P,J3,4,Pin_4_4*%
%TO.N,/PA11*%
X190460000Y-104380000D03*
%TO.P,J3,5,Pin_5_5*%
%TO.N,/PA8*%
X193000000Y-106920000D03*
%TO.P,J3,6,Pin_6_6*%
%TO.N,/PA9*%
X190460000Y-106920000D03*
%TO.P,J3,7,Pin_7_7*%
%TO.N,/PC8*%
X193000000Y-109460000D03*
%TO.P,J3,8,Pin_8_8*%
%TO.N,/PC9*%
X190460000Y-109460000D03*
%TO.P,J3,9,Pin_9_9*%
%TO.N,/PC6*%
X193000000Y-112000000D03*
%TO.P,J3,10,Pin_10_10*%
%TO.N,/PC7*%
X190460000Y-112000000D03*
%TO.P,J3,11,Pin_11_11*%
%TO.N,/PB14*%
X193000000Y-114540000D03*
%TO.P,J3,12,Pin_12_12*%
%TO.N,/PB15*%
X190460000Y-114540000D03*
%TO.P,J3,13,Pin_13_13*%
%TO.N,/PB12*%
X193000000Y-117080000D03*
%TO.P,J3,14,Pin_14_14*%
%TO.N,/PB13*%
X190460000Y-117080000D03*
%TO.P,J3,15,Pin_15_15*%
%TO.N,/PB10*%
X193000000Y-119620000D03*
%TO.P,J3,16,Pin_16_16*%
%TO.N,/PB11*%
X190460000Y-119620000D03*
%TO.P,J3,17,Pin_17_17*%
%TO.N,+3.3V*%
X193000000Y-122160000D03*
%TO.P,J3,18,Pin_18_18*%
%TO.N,GND*%
X190460000Y-122160000D03*
%TO.P,J3,19,Pin_19_19*%
X193000000Y-124700000D03*
%TO.P,J3,20,Pin_20_20*%
X190460000Y-124700000D03*
%TO.P,J3,21,Pin_21_21*%
X193000000Y-127240000D03*
%TO.P,J3,22,Pin_22_22*%
X190460000Y-127240000D03*
%TO.P,J3,23,Pin_23_23*%
X193000000Y-129780000D03*
%TO.P,J3,24,Pin_24_24*%
X190460000Y-129780000D03*
%TO.P,J3,25,Pin_25_25*%
X193000000Y-132320000D03*
%TO.P,J3,26,Pin_26_26*%
X190460000Y-132320000D03*
%TO.P,J3,27,Pin_27_27*%
X193000000Y-134860000D03*
%TO.P,J3,28,Pin_28_28*%
X190460000Y-134860000D03*
%TO.P,J3,29,Pin_29_29*%
X193000000Y-137400000D03*
%TO.P,J3,30,Pin_30_30*%
X190460000Y-137400000D03*
%TO.P,J3,31,Pin_31_31*%
%TO.N,/PB2*%
X193000000Y-139940000D03*
%TO.P,J3,32,Pin_32_32*%
%TO.N,/PB1*%
X190460000Y-139940000D03*
%TO.P,J3,33,Pin_33_33*%
%TO.N,/PB0*%
X193000000Y-142480000D03*
%TO.P,J3,34,Pin_34_34*%
%TO.N,/PC5*%
X190460000Y-142480000D03*
%TO.P,J3,35,Pin_35_35*%
%TO.N,/PC4*%
X193000000Y-145020000D03*
%TO.P,J3,36,Pin_36_36*%
%TO.N,/PA7*%
X190460000Y-145020000D03*
%TO.P,J3,37,Pin_37_37*%
%TO.N,/PA6*%
X193000000Y-147560000D03*
%TO.P,J3,38,Pin_38_38*%
%TO.N,/PA5*%
X190460000Y-147560000D03*
%TO.P,J3,39,Pin_39_39*%
%TO.N,/PA4*%
X193000000Y-150100000D03*
%TO.P,J3,40,Pin_40_40*%
%TO.N,/PA3*%
X190460000Y-150100000D03*
%TD*%
D14*
%TO.N,GND*%
X182098849Y-126300000D03*
X176400000Y-126000000D03*
X180182233Y-128017767D03*
X176989072Y-120889072D03*
X175935266Y-131135266D03*
X170800000Y-125627115D03*
%TD*%
%TA.AperFunction,Conductor*%
%TO.N,GND*%
G36*
X195442539Y-97620185D02*
G01*
X195488294Y-97672989D01*
X195499500Y-97724500D01*
X195499500Y-152575500D01*
X195479815Y-152642539D01*
X195427011Y-152688294D01*
X195375500Y-152699500D01*
X157324500Y-152699500D01*
X157257461Y-152679815D01*
X157211706Y-152627011D01*
X157200500Y-152575500D01*
X157200500Y-144898713D01*
X158484500Y-144898713D01*
X158484500Y-145111286D01*
X158517753Y-145321239D01*
X158583444Y-145523414D01*
X158679951Y-145712820D01*
X158804890Y-145884786D01*
X158955213Y-146035109D01*
X159127182Y-146160050D01*
X159135946Y-146164516D01*
X159186742Y-146212491D01*
X159203536Y-146280312D01*
X159180998Y-146346447D01*
X159135946Y-146385484D01*
X159127182Y-146389949D01*
X158955213Y-146514890D01*
X158804890Y-146665213D01*
X158679951Y-146837179D01*
X158583444Y-147026585D01*
X158517753Y-147228760D01*
X158484500Y-147438713D01*
X158484500Y-147651286D01*
X158517753Y-147861239D01*
X158583444Y-148063414D01*
X158679951Y-148252820D01*
X158804890Y-148424786D01*
X158955213Y-148575109D01*
X159127182Y-148700050D01*
X159135946Y-148704516D01*
X159186742Y-148752491D01*
X159203536Y-148820312D01*
X159180998Y-148886447D01*
X159135946Y-148925484D01*
X159127182Y-148929949D01*
X158955213Y-149054890D01*
X158804890Y-149205213D01*
X158679951Y-149377179D01*
X158583444Y-149566585D01*
X158517753Y-149768760D01*
X158484500Y-149978713D01*
X158484500Y-150191286D01*
X158517753Y-150401239D01*
X158583444Y-150603414D01*
X158679951Y-150792820D01*
X158804890Y-150964786D01*
X158955213Y-151115109D01*
X159127179Y-151240048D01*
X159127181Y-151240049D01*
X159127184Y-151240051D01*
X159316588Y-151336557D01*
X159518757Y-151402246D01*
X159728713Y-151435500D01*
X159728714Y-151435500D01*
X159941286Y-151435500D01*
X159941287Y-151435500D01*
X160151243Y-151402246D01*
X160353412Y-151336557D01*
X160542816Y-151240051D01*
X160572600Y-151218412D01*
X160714786Y-151115109D01*
X160714788Y-151115106D01*
X160714792Y-151115104D01*
X160865104Y-150964792D01*
X160865106Y-150964788D01*
X160865109Y-150964786D01*
X160990048Y-150792820D01*
X160990047Y-150792820D01*
X160990051Y-150792816D01*
X160994514Y-150784054D01*
X161042488Y-150733259D01*
X161110308Y-150716463D01*
X161176444Y-150738999D01*
X161215486Y-150784056D01*
X161219951Y-150792820D01*
X161344890Y-150964786D01*
X161495213Y-151115109D01*
X161667179Y-151240048D01*
X161667181Y-151240049D01*
X161667184Y-151240051D01*
X161856588Y-151336557D01*
X162058757Y-151402246D01*
X162268713Y-151435500D01*
X162268714Y-151435500D01*
X162481286Y-151435500D01*
X162481287Y-151435500D01*
X162691243Y-151402246D01*
X162893412Y-151336557D01*
X163082816Y-151240051D01*
X163112600Y-151218412D01*
X163254786Y-151115109D01*
X163254788Y-151115106D01*
X163254792Y-151115104D01*
X163405104Y-150964792D01*
X163405106Y-150964788D01*
X163405109Y-150964786D01*
X163530048Y-150792820D01*
X163530047Y-150792820D01*
X163530051Y-150792816D01*
X163626557Y-150603412D01*
X163692246Y-150401243D01*
X163725500Y-150191287D01*
X163725500Y-149978713D01*
X163697532Y-149802135D01*
X172749500Y-149802135D01*
X172749500Y-151597870D01*
X172749501Y-151597876D01*
X172755908Y-151657483D01*
X172806202Y-151792328D01*
X172806206Y-151792335D01*
X172892452Y-151907544D01*
X172892455Y-151907547D01*
X173007664Y-151993793D01*
X173007671Y-151993797D01*
X173142517Y-152044091D01*
X173142516Y-152044091D01*
X173149444Y-152044835D01*
X173202127Y-152050500D01*
X174997872Y-152050499D01*
X175057483Y-152044091D01*
X175192331Y-151993796D01*
X175307546Y-151907546D01*
X175393796Y-151792331D01*
X175444091Y-151657483D01*
X175450500Y-151597873D01*
X175450499Y-150593713D01*
X177829500Y-150593713D01*
X177829500Y-150806286D01*
X177856980Y-150979792D01*
X177862754Y-151016243D01*
X177899751Y-151130109D01*
X177928444Y-151218414D01*
X178024951Y-151407820D01*
X178149890Y-151579786D01*
X178300213Y-151730109D01*
X178472179Y-151855048D01*
X178472181Y-151855049D01*
X178472184Y-151855051D01*
X178661588Y-151951557D01*
X178863757Y-152017246D01*
X179073713Y-152050500D01*
X179073714Y-152050500D01*
X179286286Y-152050500D01*
X179286287Y-152050500D01*
X179496243Y-152017246D01*
X179698412Y-151951557D01*
X179887816Y-151855051D01*
X179974138Y-151792335D01*
X180059786Y-151730109D01*
X180059788Y-151730106D01*
X180059792Y-151730104D01*
X180210104Y-151579792D01*
X180210106Y-151579788D01*
X180210109Y-151579786D01*
X180335048Y-151407820D01*
X180335047Y-151407820D01*
X180335051Y-151407816D01*
X180431557Y-151218412D01*
X180497246Y-151016243D01*
X180530500Y-150806287D01*
X180530500Y-150593713D01*
X180497246Y-150383757D01*
X180431557Y-150181588D01*
X180335051Y-149992184D01*
X180335049Y-149992181D01*
X180335048Y-149992179D01*
X180210109Y-149820213D01*
X180059786Y-149669890D01*
X179887820Y-149544951D01*
X179698414Y-149448444D01*
X179698413Y-149448443D01*
X179698412Y-149448443D01*
X179496243Y-149382754D01*
X179496241Y-149382753D01*
X179496240Y-149382753D01*
X179334957Y-149357208D01*
X179286287Y-149349500D01*
X179073713Y-149349500D01*
X179025042Y-149357208D01*
X178863760Y-149382753D01*
X178661585Y-149448444D01*
X178472179Y-149544951D01*
X178300213Y-149669890D01*
X178149890Y-149820213D01*
X178024951Y-149992179D01*
X177928444Y-150181585D01*
X177862753Y-150383760D01*
X177829500Y-150593713D01*
X175450499Y-150593713D01*
X175450499Y-149802128D01*
X175444091Y-149742517D01*
X175399644Y-149623349D01*
X175393797Y-149607671D01*
X175393793Y-149607664D01*
X175307547Y-149492455D01*
X175307544Y-149492452D01*
X175192335Y-149406206D01*
X175192328Y-149406202D01*
X175057482Y-149355908D01*
X175057483Y-149355908D01*
X174997883Y-149349501D01*
X174997881Y-149349500D01*
X174997873Y-149349500D01*
X174997864Y-149349500D01*
X173202129Y-149349500D01*
X173202123Y-149349501D01*
X173142516Y-149355908D01*
X173007671Y-149406202D01*
X173007664Y-149406206D01*
X172892455Y-149492452D01*
X172892452Y-149492455D01*
X172806206Y-149607664D01*
X172806202Y-149607671D01*
X172755908Y-149742517D01*
X172749501Y-149802116D01*
X172749501Y-149802123D01*
X172749500Y-149802135D01*
X163697532Y-149802135D01*
X163697531Y-149802128D01*
X163692246Y-149768760D01*
X163692246Y-149768757D01*
X163626557Y-149566588D01*
X163530051Y-149377184D01*
X163530049Y-149377181D01*
X163530048Y-149377179D01*
X163405109Y-149205213D01*
X163254786Y-149054890D01*
X163082820Y-148929951D01*
X163082115Y-148929591D01*
X163074054Y-148925485D01*
X163023259Y-148877512D01*
X163006463Y-148809692D01*
X163028999Y-148743556D01*
X163074054Y-148704515D01*
X163082816Y-148700051D01*
X163104789Y-148684086D01*
X163254786Y-148575109D01*
X163254788Y-148575106D01*
X163254792Y-148575104D01*
X163405104Y-148424792D01*
X163405106Y-148424788D01*
X163405109Y-148424786D01*
X163530048Y-148252820D01*
X163530047Y-148252820D01*
X163530051Y-148252816D01*
X163626557Y-148063412D01*
X163692246Y-147861243D01*
X163725500Y-147651287D01*
X163725500Y-147438713D01*
X163692246Y-147228757D01*
X163626557Y-147026588D01*
X163530051Y-146837184D01*
X163530049Y-146837181D01*
X163530048Y-146837179D01*
X163405109Y-146665213D01*
X163254786Y-146514890D01*
X163082820Y-146389951D01*
X163082115Y-146389591D01*
X163074054Y-146385485D01*
X163023259Y-146337512D01*
X163006463Y-146269692D01*
X163028999Y-146203556D01*
X163074054Y-146164515D01*
X163082816Y-146160051D01*
X163104789Y-146144086D01*
X163254786Y-146035109D01*
X163254788Y-146035106D01*
X163254792Y-146035104D01*
X163405104Y-145884792D01*
X163405106Y-145884788D01*
X163405109Y-145884786D01*
X163530048Y-145712820D01*
X163530047Y-145712820D01*
X163530051Y-145712816D01*
X163626557Y-145523412D01*
X163692246Y-145321243D01*
X163725500Y-145111287D01*
X163725500Y-144898713D01*
X163692246Y-144688757D01*
X163626557Y-144486588D01*
X163530051Y-144297184D01*
X163530049Y-144297181D01*
X163530048Y-144297179D01*
X163405109Y-144125213D01*
X163254786Y-143974890D01*
X163082820Y-143849951D01*
X163082115Y-143849591D01*
X163074054Y-143845485D01*
X163023259Y-143797512D01*
X163006463Y-143729692D01*
X163028999Y-143663556D01*
X163074054Y-143624515D01*
X163082816Y-143620051D01*
X163104789Y-143604086D01*
X163254786Y-143495109D01*
X163254788Y-143495106D01*
X163254792Y-143495104D01*
X163405104Y-143344792D01*
X163405106Y-143344788D01*
X163405109Y-143344786D01*
X163530048Y-143172820D01*
X163530047Y-143172820D01*
X163530051Y-143172816D01*
X163626557Y-142983412D01*
X163692246Y-142781243D01*
X163725500Y-142571287D01*
X163725500Y-142358713D01*
X163692246Y-142148757D01*
X163626557Y-141946588D01*
X163530051Y-141757184D01*
X163530049Y-141757181D01*
X163530048Y-141757179D01*
X163405109Y-141585213D01*
X163254786Y-141434890D01*
X163082820Y-141309951D01*
X162893414Y-141213444D01*
X162893413Y-141213443D01*
X162893412Y-141213443D01*
X162691243Y-141147754D01*
X162691241Y-141147753D01*
X162691240Y-141147753D01*
X162529957Y-141122208D01*
X162481287Y-141114500D01*
X162268713Y-141114500D01*
X162220042Y-141122208D01*
X162058760Y-141147753D01*
X161856585Y-141213444D01*
X161667179Y-141309951D01*
X161495213Y-141434890D01*
X161344890Y-141585213D01*
X161219951Y-141757179D01*
X161123444Y-141946585D01*
X161057753Y-142148760D01*
X161024500Y-142358713D01*
X161024500Y-142571286D01*
X161057753Y-142781239D01*
X161123444Y-142983414D01*
X161219951Y-143172820D01*
X161344890Y-143344786D01*
X161495213Y-143495109D01*
X161667182Y-143620050D01*
X161675946Y-143624516D01*
X161726742Y-143672491D01*
X161743536Y-143740312D01*
X161720998Y-143806447D01*
X161675946Y-143845484D01*
X161667182Y-143849949D01*
X161495213Y-143974890D01*
X161344890Y-144125213D01*
X161219949Y-144297182D01*
X161215484Y-144305946D01*
X161167509Y-144356742D01*
X161099688Y-144373536D01*
X161033553Y-144350998D01*
X160994516Y-144305946D01*
X160990050Y-144297182D01*
X160865109Y-144125213D01*
X160714786Y-143974890D01*
X160542820Y-143849951D01*
X160353414Y-143753444D01*
X160353413Y-143753443D01*
X160353412Y-143753443D01*
X160151243Y-143687754D01*
X160151241Y-143687753D01*
X160151240Y-143687753D01*
X159989957Y-143662208D01*
X159941287Y-143654500D01*
X159728713Y-143654500D01*
X159680042Y-143662208D01*
X159518760Y-143687753D01*
X159316585Y-143753444D01*
X159127179Y-143849951D01*
X158955213Y-143974890D01*
X158804890Y-144125213D01*
X158679951Y-144297179D01*
X158583444Y-144486585D01*
X158517753Y-144688760D01*
X158484500Y-144898713D01*
X157200500Y-144898713D01*
X157200500Y-139833713D01*
X189109500Y-139833713D01*
X189109500Y-140046286D01*
X189142753Y-140256239D01*
X189208444Y-140458414D01*
X189304951Y-140647820D01*
X189429890Y-140819786D01*
X189580213Y-140970109D01*
X189752182Y-141095050D01*
X189760946Y-141099516D01*
X189811742Y-141147491D01*
X189828536Y-141215312D01*
X189805998Y-141281447D01*
X189760946Y-141320484D01*
X189752182Y-141324949D01*
X189580213Y-141449890D01*
X189429890Y-141600213D01*
X189304951Y-141772179D01*
X189208444Y-141961585D01*
X189142753Y-142163760D01*
X189109500Y-142373713D01*
X189109500Y-142586286D01*
X189140377Y-142781239D01*
X189142754Y-142796243D01*
X189203569Y-142983412D01*
X189208444Y-142998414D01*
X189304951Y-143187820D01*
X189429890Y-143359786D01*
X189580213Y-143510109D01*
X189752182Y-143635050D01*
X189760946Y-143639516D01*
X189811742Y-143687491D01*
X189828536Y-143755312D01*
X189805998Y-143821447D01*
X189760946Y-143860484D01*
X189752182Y-143864949D01*
X189580213Y-143989890D01*
X189429890Y-144140213D01*
X189304951Y-144312179D01*
X189208444Y-144501585D01*
X189142753Y-144703760D01*
X189109500Y-144913713D01*
X189109500Y-145126286D01*
X189140377Y-145321239D01*
X189142754Y-145336243D01*
X189203569Y-145523412D01*
X189208444Y-145538414D01*
X189304951Y-145727820D01*
X189429890Y-145899786D01*
X189580213Y-146050109D01*
X189752182Y-146175050D01*
X189760946Y-146179516D01*
X189811742Y-146227491D01*
X189828536Y-146295312D01*
X189805998Y-146361447D01*
X189760946Y-146400484D01*
X189752182Y-146404949D01*
X189580213Y-146529890D01*
X189429890Y-146680213D01*
X189304951Y-146852179D01*
X189208444Y-147041585D01*
X189142753Y-147243760D01*
X189109500Y-147453713D01*
X189109500Y-147666286D01*
X189140377Y-147861239D01*
X189142754Y-147876243D01*
X189203569Y-148063412D01*
X189208444Y-148078414D01*
X189304951Y-148267820D01*
X189429890Y-148439786D01*
X189580213Y-148590109D01*
X189752182Y-148715050D01*
X189760946Y-148719516D01*
X189811742Y-148767491D01*
X189828536Y-148835312D01*
X189805998Y-148901447D01*
X189760946Y-148940484D01*
X189752182Y-148944949D01*
X189580213Y-149069890D01*
X189429890Y-149220213D01*
X189304951Y-149392179D01*
X189208444Y-149581585D01*
X189142753Y-149783760D01*
X189109500Y-149993713D01*
X189109500Y-150206286D01*
X189140377Y-150401239D01*
X189142754Y-150416243D01*
X189203569Y-150603412D01*
X189208444Y-150618414D01*
X189304951Y-150807820D01*
X189429890Y-150979786D01*
X189580213Y-151130109D01*
X189752179Y-151255048D01*
X189752181Y-151255049D01*
X189752184Y-151255051D01*
X189941588Y-151351557D01*
X190143757Y-151417246D01*
X190353713Y-151450500D01*
X190353714Y-151450500D01*
X190566286Y-151450500D01*
X190566287Y-151450500D01*
X190776243Y-151417246D01*
X190978412Y-151351557D01*
X191167816Y-151255051D01*
X191218246Y-151218412D01*
X191339786Y-151130109D01*
X191339788Y-151130106D01*
X191339792Y-151130104D01*
X191490104Y-150979792D01*
X191490106Y-150979788D01*
X191490109Y-150979786D01*
X191615048Y-150807820D01*
X191615047Y-150807820D01*
X191615051Y-150807816D01*
X191619514Y-150799054D01*
X191667488Y-150748259D01*
X191735308Y-150731463D01*
X191801444Y-150753999D01*
X191840486Y-150799056D01*
X191844951Y-150807820D01*
X191969890Y-150979786D01*
X192120213Y-151130109D01*
X192292179Y-151255048D01*
X192292181Y-151255049D01*
X192292184Y-151255051D01*
X192481588Y-151351557D01*
X192683757Y-151417246D01*
X192893713Y-151450500D01*
X192893714Y-151450500D01*
X193106286Y-151450500D01*
X193106287Y-151450500D01*
X193316243Y-151417246D01*
X193518412Y-151351557D01*
X193707816Y-151255051D01*
X193758246Y-151218412D01*
X193879786Y-151130109D01*
X193879788Y-151130106D01*
X193879792Y-151130104D01*
X194030104Y-150979792D01*
X194030106Y-150979788D01*
X194030109Y-150979786D01*
X194155048Y-150807820D01*
X194155047Y-150807820D01*
X194155051Y-150807816D01*
X194251557Y-150618412D01*
X194317246Y-150416243D01*
X194350500Y-150206287D01*
X194350500Y-149993713D01*
X194317246Y-149783757D01*
X194251557Y-149581588D01*
X194155051Y-149392184D01*
X194155049Y-149392181D01*
X194155048Y-149392179D01*
X194030109Y-149220213D01*
X193879786Y-149069890D01*
X193707820Y-148944951D01*
X193707115Y-148944591D01*
X193699054Y-148940485D01*
X193648259Y-148892512D01*
X193631463Y-148824692D01*
X193653999Y-148758556D01*
X193699054Y-148719515D01*
X193707816Y-148715051D01*
X193729789Y-148699086D01*
X193879786Y-148590109D01*
X193879788Y-148590106D01*
X193879792Y-148590104D01*
X194030104Y-148439792D01*
X194030106Y-148439788D01*
X194030109Y-148439786D01*
X194155048Y-148267820D01*
X194155047Y-148267820D01*
X194155051Y-148267816D01*
X194251557Y-148078412D01*
X194317246Y-147876243D01*
X194350500Y-147666287D01*
X194350500Y-147453713D01*
X194317246Y-147243757D01*
X194251557Y-147041588D01*
X194155051Y-146852184D01*
X194155049Y-146852181D01*
X194155048Y-146852179D01*
X194030109Y-146680213D01*
X193879786Y-146529890D01*
X193707820Y-146404951D01*
X193707115Y-146404591D01*
X193699054Y-146400485D01*
X193648259Y-146352512D01*
X193631463Y-146284692D01*
X193653999Y-146218556D01*
X193699054Y-146179515D01*
X193707816Y-146175051D01*
X193729789Y-146159086D01*
X193879786Y-146050109D01*
X193879788Y-146050106D01*
X193879792Y-146050104D01*
X194030104Y-145899792D01*
X194030106Y-145899788D01*
X194030109Y-145899786D01*
X194155048Y-145727820D01*
X194155047Y-145727820D01*
X194155051Y-145727816D01*
X194251557Y-145538412D01*
X194317246Y-145336243D01*
X194350500Y-145126287D01*
X194350500Y-144913713D01*
X194317246Y-144703757D01*
X194251557Y-144501588D01*
X194155051Y-144312184D01*
X194155049Y-144312181D01*
X194155048Y-144312179D01*
X194030109Y-144140213D01*
X193879786Y-143989890D01*
X193707820Y-143864951D01*
X193707115Y-143864591D01*
X193699054Y-143860485D01*
X193648259Y-143812512D01*
X193631463Y-143744692D01*
X193653999Y-143678556D01*
X193699054Y-143639515D01*
X193707816Y-143635051D01*
X193729789Y-143619086D01*
X193879786Y-143510109D01*
X193879788Y-143510106D01*
X193879792Y-143510104D01*
X194030104Y-143359792D01*
X194030106Y-143359788D01*
X194030109Y-143359786D01*
X194155048Y-143187820D01*
X194155047Y-143187820D01*
X194155051Y-143187816D01*
X194251557Y-142998412D01*
X194317246Y-142796243D01*
X194350500Y-142586287D01*
X194350500Y-142373713D01*
X194317246Y-142163757D01*
X194251557Y-141961588D01*
X194155051Y-141772184D01*
X194155049Y-141772181D01*
X194155048Y-141772179D01*
X194030109Y-141600213D01*
X193879786Y-141449890D01*
X193707820Y-141324951D01*
X193707115Y-141324591D01*
X193699054Y-141320485D01*
X193648259Y-141272512D01*
X193631463Y-141204692D01*
X193653999Y-141138556D01*
X193699054Y-141099515D01*
X193707816Y-141095051D01*
X193729789Y-141079086D01*
X193879786Y-140970109D01*
X193879788Y-140970106D01*
X193879792Y-140970104D01*
X194030104Y-140819792D01*
X194030106Y-140819788D01*
X194030109Y-140819786D01*
X194155048Y-140647820D01*
X194155047Y-140647820D01*
X194155051Y-140647816D01*
X194251557Y-140458412D01*
X194317246Y-140256243D01*
X194350500Y-140046287D01*
X194350500Y-139833713D01*
X194317246Y-139623757D01*
X194251557Y-139421588D01*
X194155051Y-139232184D01*
X194155049Y-139232181D01*
X194155048Y-139232179D01*
X194030109Y-139060213D01*
X193879786Y-138909890D01*
X193707820Y-138784951D01*
X193518414Y-138688444D01*
X193518413Y-138688443D01*
X193518412Y-138688443D01*
X193316243Y-138622754D01*
X193316241Y-138622753D01*
X193316240Y-138622753D01*
X193154957Y-138597208D01*
X193106287Y-138589500D01*
X192893713Y-138589500D01*
X192845042Y-138597208D01*
X192683760Y-138622753D01*
X192481585Y-138688444D01*
X192292179Y-138784951D01*
X192120213Y-138909890D01*
X191969890Y-139060213D01*
X191844949Y-139232182D01*
X191840484Y-139240946D01*
X191792509Y-139291742D01*
X191724688Y-139308536D01*
X191658553Y-139285998D01*
X191619516Y-139240946D01*
X191615050Y-139232182D01*
X191490109Y-139060213D01*
X191339786Y-138909890D01*
X191167820Y-138784951D01*
X190978414Y-138688444D01*
X190978413Y-138688443D01*
X190978412Y-138688443D01*
X190776243Y-138622754D01*
X190776241Y-138622753D01*
X190776240Y-138622753D01*
X190614957Y-138597208D01*
X190566287Y-138589500D01*
X190353713Y-138589500D01*
X190305042Y-138597208D01*
X190143760Y-138622753D01*
X189941585Y-138688444D01*
X189752179Y-138784951D01*
X189580213Y-138909890D01*
X189429890Y-139060213D01*
X189304951Y-139232179D01*
X189208444Y-139421585D01*
X189142753Y-139623760D01*
X189109500Y-139833713D01*
X157200500Y-139833713D01*
X157200500Y-136329881D01*
X167567267Y-136329881D01*
X167567267Y-136534584D01*
X167599289Y-136736767D01*
X167662548Y-136931456D01*
X167755482Y-137113846D01*
X167875795Y-137279446D01*
X168020553Y-137424204D01*
X168175516Y-137536789D01*
X168186157Y-137544520D01*
X168302374Y-137603736D01*
X168368543Y-137637451D01*
X168368545Y-137637451D01*
X168368548Y-137637453D01*
X168472904Y-137671360D01*
X168563232Y-137700710D01*
X168664324Y-137716721D01*
X168765415Y-137732733D01*
X168765416Y-137732733D01*
X168970118Y-137732733D01*
X168970119Y-137732733D01*
X169172301Y-137700710D01*
X169366986Y-137637453D01*
X169549377Y-137544520D01*
X169642357Y-137476965D01*
X169714980Y-137424204D01*
X169714982Y-137424201D01*
X169714986Y-137424199D01*
X169859733Y-137279452D01*
X169859735Y-137279448D01*
X169859738Y-137279446D01*
X169912499Y-137206823D01*
X169980054Y-137113843D01*
X170072987Y-136931452D01*
X170136244Y-136736767D01*
X170168267Y-136534585D01*
X170168267Y-136329881D01*
X170136244Y-136127699D01*
X170072987Y-135933014D01*
X170072985Y-135933011D01*
X170072985Y-135933009D01*
X170039270Y-135866840D01*
X169980054Y-135750623D01*
X169972323Y-135739982D01*
X169859738Y-135585019D01*
X169714980Y-135440261D01*
X169549380Y-135319948D01*
X169549379Y-135319947D01*
X169549377Y-135319946D01*
X169492420Y-135290924D01*
X169366990Y-135227014D01*
X169172301Y-135163755D01*
X168997762Y-135136111D01*
X168970119Y-135131733D01*
X168765415Y-135131733D01*
X168741096Y-135135584D01*
X168563232Y-135163755D01*
X168368543Y-135227014D01*
X168186153Y-135319948D01*
X168020553Y-135440261D01*
X167875795Y-135585019D01*
X167755482Y-135750619D01*
X167662548Y-135933009D01*
X167599289Y-136127698D01*
X167567267Y-136329881D01*
X157200500Y-136329881D01*
X157200500Y-101718713D01*
X158484500Y-101718713D01*
X158484500Y-101931287D01*
X158517754Y-102141243D01*
X158571353Y-102306204D01*
X158583444Y-102343414D01*
X158679951Y-102532820D01*
X158804890Y-102704786D01*
X158955213Y-102855109D01*
X159127182Y-102980050D01*
X159135946Y-102984516D01*
X159186742Y-103032491D01*
X159203536Y-103100312D01*
X159180998Y-103166447D01*
X159135946Y-103205484D01*
X159127182Y-103209949D01*
X158955213Y-103334890D01*
X158804890Y-103485213D01*
X158679951Y-103657179D01*
X158583444Y-103846585D01*
X158517753Y-104048760D01*
X158484500Y-104258713D01*
X158484500Y-104471286D01*
X158517753Y-104681239D01*
X158583444Y-104883414D01*
X158679951Y-105072820D01*
X158804890Y-105244786D01*
X158955213Y-105395109D01*
X159127182Y-105520050D01*
X159135946Y-105524516D01*
X159186742Y-105572491D01*
X159203536Y-105640312D01*
X159180998Y-105706447D01*
X159135946Y-105745484D01*
X159127182Y-105749949D01*
X158955213Y-105874890D01*
X158804890Y-106025213D01*
X158679951Y-106197179D01*
X158583444Y-106386585D01*
X158517753Y-106588760D01*
X158484500Y-106798713D01*
X158484500Y-107011286D01*
X158517753Y-107221239D01*
X158583444Y-107423414D01*
X158679951Y-107612820D01*
X158804890Y-107784786D01*
X158955213Y-107935109D01*
X159127182Y-108060050D01*
X159135946Y-108064516D01*
X159186742Y-108112491D01*
X159203536Y-108180312D01*
X159180998Y-108246447D01*
X159135946Y-108285484D01*
X159127182Y-108289949D01*
X158955213Y-108414890D01*
X158804890Y-108565213D01*
X158679951Y-108737179D01*
X158583444Y-108926585D01*
X158517753Y-109128760D01*
X158484500Y-109338713D01*
X158484500Y-109551286D01*
X158517444Y-109759291D01*
X158517754Y-109761243D01*
X158571383Y-109926296D01*
X158583444Y-109963414D01*
X158679951Y-110152820D01*
X158804890Y-110324786D01*
X158955213Y-110475109D01*
X159127182Y-110600050D01*
X159135946Y-110604516D01*
X159186742Y-110652491D01*
X159203536Y-110720312D01*
X159180998Y-110786447D01*
X159135946Y-110825484D01*
X159127182Y-110829949D01*
X158955213Y-110954890D01*
X158804890Y-111105213D01*
X158679951Y-111277179D01*
X158583444Y-111466585D01*
X158583443Y-111466587D01*
X158583443Y-111466588D01*
X158578570Y-111481585D01*
X158517753Y-111668760D01*
X158484500Y-111878713D01*
X158484500Y-112091286D01*
X158516665Y-112294372D01*
X158517754Y-112301243D01*
X158551241Y-112404306D01*
X158583444Y-112503414D01*
X158679951Y-112692820D01*
X158804890Y-112864786D01*
X158955213Y-113015109D01*
X159127182Y-113140050D01*
X159135946Y-113144516D01*
X159186742Y-113192491D01*
X159203536Y-113260312D01*
X159180998Y-113326447D01*
X159135946Y-113365484D01*
X159127182Y-113369949D01*
X158955213Y-113494890D01*
X158804890Y-113645213D01*
X158679951Y-113817179D01*
X158583444Y-114006585D01*
X158517753Y-114208760D01*
X158494515Y-114355483D01*
X158484500Y-114418713D01*
X158484500Y-114631287D01*
X158517754Y-114841243D01*
X158544644Y-114924003D01*
X158583444Y-115043414D01*
X158679951Y-115232820D01*
X158804890Y-115404786D01*
X158955213Y-115555109D01*
X159127182Y-115680050D01*
X159135946Y-115684516D01*
X159186742Y-115732491D01*
X159203536Y-115800312D01*
X159180998Y-115866447D01*
X159135946Y-115905484D01*
X159127182Y-115909949D01*
X158955213Y-116034890D01*
X158804890Y-116185213D01*
X158679951Y-116357179D01*
X158583444Y-116546585D01*
X158517753Y-116748760D01*
X158484500Y-116958713D01*
X158484500Y-117171286D01*
X158517753Y-117381239D01*
X158583444Y-117583414D01*
X158679951Y-117772820D01*
X158804890Y-117944786D01*
X158955213Y-118095109D01*
X159127182Y-118220050D01*
X159135946Y-118224516D01*
X159186742Y-118272491D01*
X159203536Y-118340312D01*
X159180998Y-118406447D01*
X159135946Y-118445484D01*
X159127182Y-118449949D01*
X158955213Y-118574890D01*
X158804890Y-118725213D01*
X158679951Y-118897179D01*
X158583444Y-119086585D01*
X158517753Y-119288760D01*
X158484500Y-119498713D01*
X158484500Y-119711286D01*
X158517753Y-119921239D01*
X158583444Y-120123414D01*
X158679951Y-120312820D01*
X158804890Y-120484786D01*
X158955213Y-120635109D01*
X159127182Y-120760050D01*
X159135946Y-120764516D01*
X159186742Y-120812491D01*
X159203536Y-120880312D01*
X159180998Y-120946447D01*
X159135946Y-120985484D01*
X159127182Y-120989949D01*
X158955213Y-121114890D01*
X158804890Y-121265213D01*
X158679951Y-121437179D01*
X158583444Y-121626585D01*
X158517753Y-121828760D01*
X158484500Y-122038713D01*
X158484500Y-122251286D01*
X158517753Y-122461239D01*
X158583444Y-122663414D01*
X158679951Y-122852820D01*
X158804890Y-123024786D01*
X158955213Y-123175109D01*
X159127179Y-123300048D01*
X159127181Y-123300049D01*
X159127184Y-123300051D01*
X159316588Y-123396557D01*
X159518757Y-123462246D01*
X159728713Y-123495500D01*
X159728714Y-123495500D01*
X159941286Y-123495500D01*
X159941287Y-123495500D01*
X160151243Y-123462246D01*
X160353412Y-123396557D01*
X160542816Y-123300051D01*
X160564789Y-123284086D01*
X160714786Y-123175109D01*
X160714788Y-123175106D01*
X160714792Y-123175104D01*
X160865104Y-123024792D01*
X160865106Y-123024788D01*
X160865109Y-123024786D01*
X160990048Y-122852820D01*
X160990047Y-122852820D01*
X160990051Y-122852816D01*
X160994514Y-122844054D01*
X161042488Y-122793259D01*
X161110308Y-122776463D01*
X161176444Y-122798999D01*
X161215486Y-122844056D01*
X161219951Y-122852820D01*
X161344890Y-123024786D01*
X161495213Y-123175109D01*
X161667182Y-123300050D01*
X161675946Y-123304516D01*
X161726742Y-123352491D01*
X161743536Y-123420312D01*
X161720998Y-123486447D01*
X161675946Y-123525484D01*
X161667182Y-123529949D01*
X161495213Y-123654890D01*
X161344890Y-123805213D01*
X161219951Y-123977179D01*
X161123444Y-124166585D01*
X161057753Y-124368760D01*
X161024500Y-124578713D01*
X161024500Y-124791286D01*
X161057680Y-125000781D01*
X161057754Y-125001243D01*
X161120861Y-125195466D01*
X161123444Y-125203414D01*
X161219951Y-125392820D01*
X161344890Y-125564786D01*
X161495213Y-125715109D01*
X161667179Y-125840048D01*
X161667181Y-125840049D01*
X161667184Y-125840051D01*
X161856588Y-125936557D01*
X162058757Y-126002246D01*
X162268713Y-126035500D01*
X162268714Y-126035500D01*
X162481286Y-126035500D01*
X162481287Y-126035500D01*
X162691243Y-126002246D01*
X162893412Y-125936557D01*
X163082816Y-125840051D01*
X163155287Y-125787397D01*
X163221090Y-125763919D01*
X163289144Y-125779744D01*
X163337839Y-125829849D01*
X163346098Y-125849394D01*
X163374420Y-125936557D01*
X163394781Y-125999221D01*
X163487715Y-126181613D01*
X163608028Y-126347213D01*
X163752786Y-126491971D01*
X163907749Y-126604556D01*
X163918390Y-126612287D01*
X164034607Y-126671503D01*
X164100776Y-126705218D01*
X164100778Y-126705218D01*
X164100781Y-126705220D01*
X164205137Y-126739127D01*
X164295465Y-126768477D01*
X164396557Y-126784488D01*
X164497648Y-126800500D01*
X164497649Y-126800500D01*
X164702351Y-126800500D01*
X164702352Y-126800500D01*
X164904534Y-126768477D01*
X165099219Y-126705220D01*
X165281610Y-126612287D01*
X165374590Y-126544732D01*
X165447213Y-126491971D01*
X165447215Y-126491968D01*
X165447219Y-126491966D01*
X165591966Y-126347219D01*
X165591968Y-126347215D01*
X165591971Y-126347213D01*
X165644732Y-126274590D01*
X165712287Y-126181610D01*
X165805220Y-125999219D01*
X165868477Y-125804534D01*
X165900500Y-125602352D01*
X165900500Y-125397648D01*
X165868477Y-125195466D01*
X165805220Y-125000781D01*
X165805218Y-125000778D01*
X165805218Y-125000776D01*
X165771503Y-124934607D01*
X165712287Y-124818390D01*
X165692595Y-124791286D01*
X165591971Y-124652786D01*
X165447213Y-124508028D01*
X165281613Y-124387715D01*
X165281612Y-124387714D01*
X165281610Y-124387713D01*
X165216815Y-124354698D01*
X165099223Y-124294781D01*
X164904534Y-124231522D01*
X164729995Y-124203878D01*
X164702352Y-124199500D01*
X164497648Y-124199500D01*
X164473329Y-124203351D01*
X164295465Y-124231522D01*
X164100776Y-124294781D01*
X163918386Y-124387714D01*
X163878492Y-124416699D01*
X163812685Y-124440178D01*
X163744631Y-124424351D01*
X163695937Y-124374245D01*
X163687681Y-124354707D01*
X163626557Y-124166588D01*
X163530051Y-123977184D01*
X163530049Y-123977181D01*
X163530048Y-123977179D01*
X163405109Y-123805213D01*
X163254786Y-123654890D01*
X163082820Y-123529951D01*
X163082115Y-123529591D01*
X163074054Y-123525485D01*
X163023259Y-123477512D01*
X163006463Y-123409692D01*
X163028999Y-123343556D01*
X163074054Y-123304515D01*
X163082816Y-123300051D01*
X163104789Y-123284086D01*
X163254786Y-123175109D01*
X163254788Y-123175106D01*
X163254792Y-123175104D01*
X163405104Y-123024792D01*
X163405106Y-123024788D01*
X163405109Y-123024786D01*
X163530048Y-122852820D01*
X163530047Y-122852820D01*
X163530051Y-122852816D01*
X163626557Y-122663412D01*
X163692246Y-122461243D01*
X163725500Y-122251287D01*
X163725500Y-122038713D01*
X163692246Y-121828757D01*
X163626557Y-121626588D01*
X163530051Y-121437184D01*
X163530049Y-121437181D01*
X163530048Y-121437179D01*
X163405109Y-121265213D01*
X163254786Y-121114890D01*
X163082820Y-120989951D01*
X163082115Y-120989591D01*
X163074054Y-120985485D01*
X163023259Y-120937512D01*
X163006463Y-120869692D01*
X163028999Y-120803556D01*
X163074054Y-120764515D01*
X163082816Y-120760051D01*
X163104789Y-120744086D01*
X163254786Y-120635109D01*
X163254788Y-120635106D01*
X163254792Y-120635104D01*
X163405104Y-120484792D01*
X163405106Y-120484788D01*
X163405109Y-120484786D01*
X163530048Y-120312820D01*
X163530047Y-120312820D01*
X163530051Y-120312816D01*
X163626557Y-120123412D01*
X163692246Y-119921243D01*
X163725500Y-119711287D01*
X163725500Y-119498713D01*
X163692246Y-119288757D01*
X163626557Y-119086588D01*
X163530051Y-118897184D01*
X163530049Y-118897181D01*
X163530048Y-118897179D01*
X163405109Y-118725213D01*
X163254786Y-118574890D01*
X163082820Y-118449951D01*
X163082115Y-118449591D01*
X163074054Y-118445485D01*
X163023259Y-118397512D01*
X163006463Y-118329692D01*
X163028999Y-118263556D01*
X163074054Y-118224515D01*
X163082816Y-118220051D01*
X163104789Y-118204086D01*
X163254786Y-118095109D01*
X163254788Y-118095106D01*
X163254792Y-118095104D01*
X163405104Y-117944792D01*
X163405106Y-117944788D01*
X163405109Y-117944786D01*
X163530048Y-117772820D01*
X163530047Y-117772820D01*
X163530051Y-117772816D01*
X163626557Y-117583412D01*
X163692246Y-117381243D01*
X163725500Y-117171287D01*
X163725500Y-116958713D01*
X163692246Y-116748757D01*
X163626557Y-116546588D01*
X163530051Y-116357184D01*
X163530049Y-116357181D01*
X163530048Y-116357179D01*
X163405109Y-116185213D01*
X163254786Y-116034890D01*
X163082820Y-115909951D01*
X163082115Y-115909591D01*
X163074054Y-115905485D01*
X163023259Y-115857512D01*
X163006463Y-115789692D01*
X163028999Y-115723556D01*
X163074054Y-115684515D01*
X163082816Y-115680051D01*
X163168096Y-115618092D01*
X163254786Y-115555109D01*
X163254788Y-115555106D01*
X163254792Y-115555104D01*
X163405104Y-115404792D01*
X163421734Y-115381902D01*
X175299500Y-115381902D01*
X175299500Y-115618097D01*
X175336446Y-115851368D01*
X175409433Y-116075996D01*
X175516657Y-116286433D01*
X175655483Y-116477510D01*
X175822490Y-116644517D01*
X176013567Y-116783343D01*
X176112991Y-116834002D01*
X176224003Y-116890566D01*
X176224005Y-116890566D01*
X176224008Y-116890568D01*
X176344412Y-116929689D01*
X176448631Y-116963553D01*
X176681903Y-117000500D01*
X176681908Y-117000500D01*
X176918097Y-117000500D01*
X177151368Y-116963553D01*
X177166264Y-116958713D01*
X177375992Y-116890568D01*
X177586433Y-116783343D01*
X177777510Y-116644517D01*
X177944517Y-116477510D01*
X178083343Y-116286433D01*
X178190568Y-116075992D01*
X178263553Y-115851368D01*
X178270946Y-115804692D01*
X178300500Y-115618097D01*
X178300500Y-115381902D01*
X178263553Y-115148631D01*
X178190566Y-114924003D01*
X178083342Y-114713566D01*
X177944517Y-114522490D01*
X177777510Y-114355483D01*
X177586433Y-114216657D01*
X177570934Y-114208760D01*
X177375996Y-114109433D01*
X177151368Y-114036446D01*
X176918097Y-113999500D01*
X176918092Y-113999500D01*
X176681908Y-113999500D01*
X176681903Y-113999500D01*
X176448631Y-114036446D01*
X176224003Y-114109433D01*
X176013566Y-114216657D01*
X175904550Y-114295862D01*
X175822490Y-114355483D01*
X175822488Y-114355485D01*
X175822487Y-114355485D01*
X175655485Y-114522487D01*
X175655485Y-114522488D01*
X175655483Y-114522490D01*
X175595862Y-114604550D01*
X175516657Y-114713566D01*
X175409433Y-114924003D01*
X175336446Y-115148631D01*
X175299500Y-115381902D01*
X163421734Y-115381902D01*
X163530051Y-115232816D01*
X163626557Y-115043412D01*
X163692246Y-114841243D01*
X163725500Y-114631287D01*
X163725500Y-114418713D01*
X163692246Y-114208757D01*
X163626557Y-114006588D01*
X163530051Y-113817184D01*
X163530049Y-113817181D01*
X163530048Y-113817179D01*
X163405109Y-113645213D01*
X163254786Y-113494890D01*
X163082820Y-113369951D01*
X163082115Y-113369591D01*
X163074054Y-113365485D01*
X163023259Y-113317512D01*
X163006463Y-113249692D01*
X163028999Y-113183556D01*
X163074054Y-113144515D01*
X163082816Y-113140051D01*
X163104789Y-113124086D01*
X163254786Y-113015109D01*
X163254788Y-113015106D01*
X163254792Y-113015104D01*
X163405104Y-112864792D01*
X163405106Y-112864788D01*
X163405109Y-112864786D01*
X163530048Y-112692820D01*
X163530047Y-112692820D01*
X163530051Y-112692816D01*
X163626557Y-112503412D01*
X163692246Y-112301243D01*
X163725500Y-112091287D01*
X163725500Y-111878713D01*
X163692246Y-111668757D01*
X163626557Y-111466588D01*
X163530051Y-111277184D01*
X163530049Y-111277181D01*
X163530048Y-111277179D01*
X163405109Y-111105213D01*
X163254790Y-110954894D01*
X163254785Y-110954890D01*
X163154637Y-110882128D01*
X163154595Y-110882099D01*
X163082816Y-110829949D01*
X163066822Y-110821799D01*
X163060134Y-110817205D01*
X163042995Y-110796151D01*
X163031937Y-110785708D01*
X170703305Y-110785708D01*
X170703305Y-111021903D01*
X170740251Y-111255174D01*
X170813238Y-111479802D01*
X170909516Y-111668757D01*
X170920462Y-111690239D01*
X171059288Y-111881316D01*
X171226295Y-112048323D01*
X171417372Y-112187149D01*
X171516796Y-112237808D01*
X171627808Y-112294372D01*
X171627810Y-112294372D01*
X171627813Y-112294374D01*
X171695119Y-112316243D01*
X171852436Y-112367359D01*
X172085708Y-112404306D01*
X172085713Y-112404306D01*
X172321902Y-112404306D01*
X172555173Y-112367359D01*
X172779797Y-112294374D01*
X172990238Y-112187149D01*
X173181315Y-112048323D01*
X173348322Y-111881316D01*
X173487148Y-111690239D01*
X173593461Y-111481588D01*
X173594371Y-111479802D01*
X173594371Y-111479801D01*
X173594373Y-111479798D01*
X173667358Y-111255174D01*
X173688734Y-111120213D01*
X173704305Y-111021903D01*
X173704305Y-110785708D01*
X173667358Y-110552437D01*
X173594371Y-110327809D01*
X173512850Y-110167816D01*
X173487148Y-110117373D01*
X173348322Y-109926296D01*
X173181315Y-109759289D01*
X172990238Y-109620463D01*
X172779801Y-109513239D01*
X172555173Y-109440252D01*
X172321902Y-109403306D01*
X172321897Y-109403306D01*
X172085713Y-109403306D01*
X172085708Y-109403306D01*
X171852436Y-109440252D01*
X171627808Y-109513239D01*
X171417371Y-109620463D01*
X171308355Y-109699668D01*
X171226295Y-109759289D01*
X171226293Y-109759291D01*
X171226292Y-109759291D01*
X171059290Y-109926293D01*
X171059290Y-109926294D01*
X171059288Y-109926296D01*
X171021422Y-109978414D01*
X170920462Y-110117372D01*
X170813238Y-110327809D01*
X170740251Y-110552437D01*
X170703305Y-110785708D01*
X163031937Y-110785708D01*
X163023259Y-110777512D01*
X163021263Y-110769455D01*
X163016024Y-110763019D01*
X163012988Y-110736041D01*
X163006463Y-110709692D01*
X163009140Y-110701835D01*
X163008212Y-110693588D01*
X163020242Y-110669254D01*
X163028999Y-110643556D01*
X163035906Y-110637570D01*
X163039177Y-110630955D01*
X163053370Y-110622438D01*
X163074054Y-110604515D01*
X163082816Y-110600051D01*
X163148352Y-110552437D01*
X163254786Y-110475109D01*
X163254788Y-110475106D01*
X163254792Y-110475104D01*
X163405104Y-110324792D01*
X163405106Y-110324788D01*
X163405109Y-110324786D01*
X163530048Y-110152820D01*
X163530047Y-110152820D01*
X163530051Y-110152816D01*
X163626557Y-109963412D01*
X163692246Y-109761243D01*
X163725500Y-109551287D01*
X163725500Y-109338713D01*
X163692246Y-109128757D01*
X163626557Y-108926588D01*
X163530051Y-108737184D01*
X163530049Y-108737181D01*
X163530048Y-108737179D01*
X163405109Y-108565213D01*
X163254786Y-108414890D01*
X163082820Y-108289951D01*
X163082115Y-108289591D01*
X163074054Y-108285485D01*
X163023259Y-108237512D01*
X163006463Y-108169692D01*
X163028999Y-108103556D01*
X163074054Y-108064515D01*
X163082816Y-108060051D01*
X163104789Y-108044086D01*
X163254786Y-107935109D01*
X163254788Y-107935106D01*
X163254792Y-107935104D01*
X163405104Y-107784792D01*
X163405106Y-107784788D01*
X163405109Y-107784786D01*
X163530048Y-107612820D01*
X163530047Y-107612820D01*
X163530051Y-107612816D01*
X163626557Y-107423412D01*
X163692246Y-107221243D01*
X163725500Y-107011287D01*
X163725500Y-106798713D01*
X163692246Y-106588757D01*
X163626557Y-106386588D01*
X163530051Y-106197184D01*
X163530049Y-106197181D01*
X163530048Y-106197179D01*
X163405109Y-106025213D01*
X163254786Y-105874890D01*
X163082820Y-105749951D01*
X163082115Y-105749591D01*
X163074054Y-105745485D01*
X163023259Y-105697512D01*
X163006463Y-105629692D01*
X163028999Y-105563556D01*
X163074054Y-105524515D01*
X163082816Y-105520051D01*
X163104789Y-105504086D01*
X163254786Y-105395109D01*
X163254788Y-105395106D01*
X163254792Y-105395104D01*
X163405104Y-105244792D01*
X163405106Y-105244788D01*
X163405109Y-105244786D01*
X163530048Y-105072820D01*
X163530047Y-105072820D01*
X163530051Y-105072816D01*
X163626557Y-104883412D01*
X163692246Y-104681243D01*
X163725500Y-104471287D01*
X163725500Y-104258713D01*
X163692246Y-104048757D01*
X163626557Y-103846588D01*
X163530051Y-103657184D01*
X163530049Y-103657181D01*
X163530048Y-103657179D01*
X163405109Y-103485213D01*
X163254786Y-103334890D01*
X163082820Y-103209951D01*
X162893414Y-103113444D01*
X162893413Y-103113443D01*
X162893412Y-103113443D01*
X162691243Y-103047754D01*
X162691241Y-103047753D01*
X162691240Y-103047753D01*
X162529957Y-103022208D01*
X162481287Y-103014500D01*
X162268713Y-103014500D01*
X162220042Y-103022208D01*
X162058760Y-103047753D01*
X161856585Y-103113444D01*
X161667179Y-103209951D01*
X161495213Y-103334890D01*
X161344890Y-103485213D01*
X161219949Y-103657182D01*
X161215484Y-103665946D01*
X161167509Y-103716742D01*
X161099688Y-103733536D01*
X161033553Y-103710998D01*
X160994516Y-103665946D01*
X160990050Y-103657182D01*
X160865109Y-103485213D01*
X160714786Y-103334890D01*
X160542820Y-103209951D01*
X160542115Y-103209591D01*
X160534054Y-103205485D01*
X160483259Y-103157512D01*
X160466463Y-103089692D01*
X160488999Y-103023556D01*
X160534054Y-102984515D01*
X160542816Y-102980051D01*
X160589686Y-102945998D01*
X160714786Y-102855109D01*
X160714788Y-102855106D01*
X160714792Y-102855104D01*
X160865104Y-102704792D01*
X160867034Y-102702135D01*
X168969500Y-102702135D01*
X168969500Y-104497870D01*
X168969501Y-104497876D01*
X168975908Y-104557483D01*
X169026202Y-104692328D01*
X169026206Y-104692335D01*
X169112452Y-104807544D01*
X169112455Y-104807547D01*
X169227664Y-104893793D01*
X169227671Y-104893797D01*
X169362517Y-104944091D01*
X169362516Y-104944091D01*
X169369444Y-104944835D01*
X169422127Y-104950500D01*
X171217872Y-104950499D01*
X171277483Y-104944091D01*
X171412331Y-104893796D01*
X171527546Y-104807546D01*
X171613796Y-104692331D01*
X171662810Y-104560916D01*
X171704681Y-104504984D01*
X171770145Y-104480566D01*
X171838418Y-104495417D01*
X171866673Y-104516569D01*
X171980213Y-104630109D01*
X172152179Y-104755048D01*
X172152181Y-104755049D01*
X172152184Y-104755051D01*
X172341588Y-104851557D01*
X172543757Y-104917246D01*
X172753713Y-104950500D01*
X172753714Y-104950500D01*
X172966286Y-104950500D01*
X172966287Y-104950500D01*
X173176243Y-104917246D01*
X173378412Y-104851557D01*
X173567816Y-104755051D01*
X173648759Y-104696243D01*
X173739786Y-104630109D01*
X173739788Y-104630106D01*
X173739792Y-104630104D01*
X173890104Y-104479792D01*
X173890106Y-104479788D01*
X173890109Y-104479786D01*
X174015048Y-104307820D01*
X174015047Y-104307820D01*
X174015051Y-104307816D01*
X174019514Y-104299054D01*
X174067488Y-104248259D01*
X174135308Y-104231463D01*
X174201444Y-104253999D01*
X174240486Y-104299056D01*
X174244951Y-104307820D01*
X174369890Y-104479786D01*
X174520213Y-104630109D01*
X174692179Y-104755048D01*
X174692181Y-104755049D01*
X174692184Y-104755051D01*
X174881588Y-104851557D01*
X175083757Y-104917246D01*
X175293713Y-104950500D01*
X175293714Y-104950500D01*
X175506286Y-104950500D01*
X175506287Y-104950500D01*
X175716243Y-104917246D01*
X175918412Y-104851557D01*
X176107816Y-104755051D01*
X176188759Y-104696243D01*
X176279786Y-104630109D01*
X176279788Y-104630106D01*
X176279792Y-104630104D01*
X176430104Y-104479792D01*
X176430106Y-104479788D01*
X176430109Y-104479786D01*
X176555048Y-104307820D01*
X176555047Y-104307820D01*
X176555051Y-104307816D01*
X176651557Y-104118412D01*
X176717246Y-103916243D01*
X176750500Y-103706287D01*
X176750500Y-103493713D01*
X179129500Y-103493713D01*
X179129500Y-103706286D01*
X179160711Y-103903349D01*
X179162754Y-103916243D01*
X179210685Y-104063760D01*
X179228444Y-104118414D01*
X179324951Y-104307820D01*
X179449890Y-104479786D01*
X179600213Y-104630109D01*
X179772179Y-104755048D01*
X179772181Y-104755049D01*
X179772184Y-104755051D01*
X179961588Y-104851557D01*
X180163757Y-104917246D01*
X180373713Y-104950500D01*
X180373714Y-104950500D01*
X180586286Y-104950500D01*
X180586287Y-104950500D01*
X180796243Y-104917246D01*
X180998412Y-104851557D01*
X181187816Y-104755051D01*
X181268759Y-104696243D01*
X181359786Y-104630109D01*
X181359788Y-104630106D01*
X181359792Y-104630104D01*
X181510104Y-104479792D01*
X181510106Y-104479788D01*
X181510109Y-104479786D01*
X181635048Y-104307820D01*
X181635047Y-104307820D01*
X181635051Y-104307816D01*
X181731557Y-104118412D01*
X181797246Y-103916243D01*
X181830500Y-103706287D01*
X181830500Y-103493713D01*
X181797246Y-103283757D01*
X181731557Y-103081588D01*
X181635051Y-102892184D01*
X181635049Y-102892181D01*
X181635048Y-102892179D01*
X181510109Y-102720213D01*
X181359786Y-102569890D01*
X181187820Y-102444951D01*
X180998414Y-102348444D01*
X180998413Y-102348443D01*
X180998412Y-102348443D01*
X180796243Y-102282754D01*
X180796241Y-102282753D01*
X180796240Y-102282753D01*
X180634957Y-102257208D01*
X180586287Y-102249500D01*
X180373713Y-102249500D01*
X180325042Y-102257208D01*
X180163760Y-102282753D01*
X179961585Y-102348444D01*
X179772179Y-102444951D01*
X179600213Y-102569890D01*
X179449890Y-102720213D01*
X179324951Y-102892179D01*
X179228444Y-103081585D01*
X179228443Y-103081587D01*
X179228443Y-103081588D01*
X179210000Y-103138349D01*
X179162753Y-103283760D01*
X179129500Y-103493713D01*
X176750500Y-103493713D01*
X176717246Y-103283757D01*
X176651557Y-103081588D01*
X176555051Y-102892184D01*
X176555049Y-102892181D01*
X176555048Y-102892179D01*
X176430109Y-102720213D01*
X176279786Y-102569890D01*
X176107820Y-102444951D01*
X175918414Y-102348444D01*
X175918413Y-102348443D01*
X175918412Y-102348443D01*
X175716243Y-102282754D01*
X175716241Y-102282753D01*
X175716240Y-102282753D01*
X175554957Y-102257208D01*
X175506287Y-102249500D01*
X175293713Y-102249500D01*
X175245042Y-102257208D01*
X175083760Y-102282753D01*
X174881585Y-102348444D01*
X174692179Y-102444951D01*
X174520213Y-102569890D01*
X174369890Y-102720213D01*
X174244949Y-102892182D01*
X174240484Y-102900946D01*
X174192509Y-102951742D01*
X174124688Y-102968536D01*
X174058553Y-102945998D01*
X174019516Y-102900946D01*
X174015050Y-102892182D01*
X173890109Y-102720213D01*
X173739786Y-102569890D01*
X173567820Y-102444951D01*
X173378414Y-102348444D01*
X173378413Y-102348443D01*
X173378412Y-102348443D01*
X173176243Y-102282754D01*
X173176241Y-102282753D01*
X173176240Y-102282753D01*
X173014957Y-102257208D01*
X172966287Y-102249500D01*
X172753713Y-102249500D01*
X172705042Y-102257208D01*
X172543760Y-102282753D01*
X172341585Y-102348444D01*
X172152179Y-102444951D01*
X171980215Y-102569889D01*
X171866673Y-102683431D01*
X171805350Y-102716915D01*
X171735658Y-102711931D01*
X171679725Y-102670059D01*
X171662810Y-102639082D01*
X171613797Y-102507671D01*
X171613793Y-102507664D01*
X171527547Y-102392455D01*
X171527544Y-102392452D01*
X171412335Y-102306206D01*
X171412328Y-102306202D01*
X171277482Y-102255908D01*
X171277483Y-102255908D01*
X171217883Y-102249501D01*
X171217881Y-102249500D01*
X171217873Y-102249500D01*
X171217864Y-102249500D01*
X169422129Y-102249500D01*
X169422123Y-102249501D01*
X169362516Y-102255908D01*
X169227671Y-102306202D01*
X169227664Y-102306206D01*
X169112455Y-102392452D01*
X169112452Y-102392455D01*
X169026206Y-102507664D01*
X169026202Y-102507671D01*
X168975908Y-102642517D01*
X168969501Y-102702116D01*
X168969500Y-102702135D01*
X160867034Y-102702135D01*
X160990051Y-102532816D01*
X161086557Y-102343412D01*
X161152246Y-102141243D01*
X161185500Y-101931287D01*
X161185500Y-101733713D01*
X189109500Y-101733713D01*
X189109500Y-101946286D01*
X189140377Y-102141239D01*
X189142754Y-102156243D01*
X189205204Y-102348444D01*
X189208444Y-102358414D01*
X189304951Y-102547820D01*
X189429890Y-102719786D01*
X189580213Y-102870109D01*
X189752182Y-102995050D01*
X189760946Y-102999516D01*
X189811742Y-103047491D01*
X189828536Y-103115312D01*
X189805998Y-103181447D01*
X189760946Y-103220484D01*
X189752182Y-103224949D01*
X189580213Y-103349890D01*
X189429890Y-103500213D01*
X189304951Y-103672179D01*
X189208444Y-103861585D01*
X189142753Y-104063760D01*
X189109500Y-104273713D01*
X189109500Y-104486286D01*
X189140377Y-104681239D01*
X189142754Y-104696243D01*
X189206943Y-104893797D01*
X189208444Y-104898414D01*
X189304951Y-105087820D01*
X189429890Y-105259786D01*
X189580213Y-105410109D01*
X189752182Y-105535050D01*
X189760946Y-105539516D01*
X189811742Y-105587491D01*
X189828536Y-105655312D01*
X189805998Y-105721447D01*
X189760946Y-105760484D01*
X189752182Y-105764949D01*
X189580213Y-105889890D01*
X189429890Y-106040213D01*
X189304951Y-106212179D01*
X189208444Y-106401585D01*
X189142753Y-106603760D01*
X189109500Y-106813713D01*
X189109500Y-107026286D01*
X189140377Y-107221239D01*
X189142754Y-107236243D01*
X189203569Y-107423412D01*
X189208444Y-107438414D01*
X189304951Y-107627820D01*
X189429890Y-107799786D01*
X189580213Y-107950109D01*
X189752182Y-108075050D01*
X189760946Y-108079516D01*
X189811742Y-108127491D01*
X189828536Y-108195312D01*
X189805998Y-108261447D01*
X189760946Y-108300484D01*
X189752182Y-108304949D01*
X189580213Y-108429890D01*
X189429890Y-108580213D01*
X189304951Y-108752179D01*
X189208444Y-108941585D01*
X189142753Y-109143760D01*
X189109500Y-109353713D01*
X189109500Y-109566286D01*
X189140377Y-109761239D01*
X189142754Y-109776243D01*
X189203569Y-109963412D01*
X189208444Y-109978414D01*
X189304951Y-110167820D01*
X189429890Y-110339786D01*
X189580213Y-110490109D01*
X189752182Y-110615050D01*
X189760946Y-110619516D01*
X189811742Y-110667491D01*
X189828536Y-110735312D01*
X189805998Y-110801447D01*
X189760946Y-110840484D01*
X189752182Y-110844949D01*
X189580213Y-110969890D01*
X189429890Y-111120213D01*
X189304951Y-111292179D01*
X189208444Y-111481585D01*
X189142753Y-111683760D01*
X189109500Y-111893713D01*
X189109500Y-112106286D01*
X189140377Y-112301239D01*
X189142754Y-112316243D01*
X189203569Y-112503412D01*
X189208444Y-112518414D01*
X189304951Y-112707820D01*
X189429890Y-112879786D01*
X189580213Y-113030109D01*
X189752182Y-113155050D01*
X189760946Y-113159516D01*
X189811742Y-113207491D01*
X189828536Y-113275312D01*
X189805998Y-113341447D01*
X189760946Y-113380484D01*
X189752182Y-113384949D01*
X189580213Y-113509890D01*
X189429890Y-113660213D01*
X189304951Y-113832179D01*
X189208444Y-114021585D01*
X189142753Y-114223760D01*
X189109500Y-114433713D01*
X189109500Y-114646286D01*
X189140377Y-114841239D01*
X189142754Y-114856243D01*
X189203569Y-115043412D01*
X189208444Y-115058414D01*
X189304951Y-115247820D01*
X189429890Y-115419786D01*
X189580213Y-115570109D01*
X189752182Y-115695050D01*
X189760946Y-115699516D01*
X189811742Y-115747491D01*
X189828536Y-115815312D01*
X189805998Y-115881447D01*
X189760946Y-115920484D01*
X189752182Y-115924949D01*
X189580213Y-116049890D01*
X189429890Y-116200213D01*
X189304951Y-116372179D01*
X189208444Y-116561585D01*
X189142753Y-116763760D01*
X189109500Y-116973713D01*
X189109500Y-117186286D01*
X189140377Y-117381239D01*
X189142754Y-117396243D01*
X189203569Y-117583412D01*
X189208444Y-117598414D01*
X189304951Y-117787820D01*
X189429890Y-117959786D01*
X189580213Y-118110109D01*
X189752182Y-118235050D01*
X189760946Y-118239516D01*
X189811742Y-118287491D01*
X189828536Y-118355312D01*
X189805998Y-118421447D01*
X189760946Y-118460484D01*
X189752182Y-118464949D01*
X189580213Y-118589890D01*
X189429890Y-118740213D01*
X189304951Y-118912179D01*
X189208444Y-119101585D01*
X189142753Y-119303760D01*
X189109500Y-119513713D01*
X189109500Y-119726286D01*
X189140377Y-119921239D01*
X189142754Y-119936243D01*
X189203569Y-120123412D01*
X189208444Y-120138414D01*
X189304951Y-120327820D01*
X189429890Y-120499786D01*
X189580213Y-120650109D01*
X189752179Y-120775048D01*
X189752181Y-120775049D01*
X189752184Y-120775051D01*
X189941588Y-120871557D01*
X190143757Y-120937246D01*
X190353713Y-120970500D01*
X190353714Y-120970500D01*
X190566286Y-120970500D01*
X190566287Y-120970500D01*
X190776243Y-120937246D01*
X190978412Y-120871557D01*
X191167816Y-120775051D01*
X191189789Y-120759086D01*
X191339786Y-120650109D01*
X191339788Y-120650106D01*
X191339792Y-120650104D01*
X191490104Y-120499792D01*
X191490106Y-120499788D01*
X191490109Y-120499786D01*
X191615048Y-120327820D01*
X191615047Y-120327820D01*
X191615051Y-120327816D01*
X191619514Y-120319054D01*
X191667488Y-120268259D01*
X191735308Y-120251463D01*
X191801444Y-120273999D01*
X191840486Y-120319056D01*
X191844951Y-120327820D01*
X191969890Y-120499786D01*
X192120213Y-120650109D01*
X192292182Y-120775050D01*
X192300946Y-120779516D01*
X192351742Y-120827491D01*
X192368536Y-120895312D01*
X192345998Y-120961447D01*
X192300946Y-121000484D01*
X192292182Y-121004949D01*
X192120213Y-121129890D01*
X191969890Y-121280213D01*
X191844951Y-121452179D01*
X191748444Y-121641585D01*
X191682753Y-121843760D01*
X191649500Y-122053713D01*
X191649500Y-122266286D01*
X191680377Y-122461239D01*
X191682754Y-122476243D01*
X191743569Y-122663412D01*
X191748444Y-122678414D01*
X191844951Y-122867820D01*
X191969890Y-123039786D01*
X192120213Y-123190109D01*
X192292179Y-123315048D01*
X192292181Y-123315049D01*
X192292184Y-123315051D01*
X192481588Y-123411557D01*
X192683757Y-123477246D01*
X192893713Y-123510500D01*
X192893714Y-123510500D01*
X193106286Y-123510500D01*
X193106287Y-123510500D01*
X193316243Y-123477246D01*
X193518412Y-123411557D01*
X193707816Y-123315051D01*
X193729789Y-123299086D01*
X193879786Y-123190109D01*
X193879788Y-123190106D01*
X193879792Y-123190104D01*
X194030104Y-123039792D01*
X194030106Y-123039788D01*
X194030109Y-123039786D01*
X194155048Y-122867820D01*
X194155047Y-122867820D01*
X194155051Y-122867816D01*
X194251557Y-122678412D01*
X194317246Y-122476243D01*
X194350500Y-122266287D01*
X194350500Y-122053713D01*
X194317246Y-121843757D01*
X194251557Y-121641588D01*
X194155051Y-121452184D01*
X194155049Y-121452181D01*
X194155048Y-121452179D01*
X194030109Y-121280213D01*
X193879786Y-121129890D01*
X193707820Y-121004951D01*
X193707115Y-121004591D01*
X193699054Y-121000485D01*
X193648259Y-120952512D01*
X193631463Y-120884692D01*
X193653999Y-120818556D01*
X193699054Y-120779515D01*
X193707816Y-120775051D01*
X193729789Y-120759086D01*
X193879786Y-120650109D01*
X193879788Y-120650106D01*
X193879792Y-120650104D01*
X194030104Y-120499792D01*
X194030106Y-120499788D01*
X194030109Y-120499786D01*
X194155048Y-120327820D01*
X194155047Y-120327820D01*
X194155051Y-120327816D01*
X194251557Y-120138412D01*
X194317246Y-119936243D01*
X194350500Y-119726287D01*
X194350500Y-119513713D01*
X194317246Y-119303757D01*
X194251557Y-119101588D01*
X194155051Y-118912184D01*
X194155049Y-118912181D01*
X194155048Y-118912179D01*
X194030109Y-118740213D01*
X193879786Y-118589890D01*
X193707820Y-118464951D01*
X193707115Y-118464591D01*
X193699054Y-118460485D01*
X193648259Y-118412512D01*
X193631463Y-118344692D01*
X193653999Y-118278556D01*
X193699054Y-118239515D01*
X193707816Y-118235051D01*
X193729789Y-118219086D01*
X193879786Y-118110109D01*
X193879788Y-118110106D01*
X193879792Y-118110104D01*
X194030104Y-117959792D01*
X194030106Y-117959788D01*
X194030109Y-117959786D01*
X194155048Y-117787820D01*
X194155047Y-117787820D01*
X194155051Y-117787816D01*
X194251557Y-117598412D01*
X194317246Y-117396243D01*
X194350500Y-117186287D01*
X194350500Y-116973713D01*
X194317246Y-116763757D01*
X194251557Y-116561588D01*
X194155051Y-116372184D01*
X194155049Y-116372181D01*
X194155048Y-116372179D01*
X194030109Y-116200213D01*
X193879786Y-116049890D01*
X193707820Y-115924951D01*
X193707115Y-115924591D01*
X193699054Y-115920485D01*
X193648259Y-115872512D01*
X193631463Y-115804692D01*
X193653999Y-115738556D01*
X193699054Y-115699515D01*
X193707816Y-115695051D01*
X193813742Y-115618092D01*
X193879786Y-115570109D01*
X193879788Y-115570106D01*
X193879792Y-115570104D01*
X194030104Y-115419792D01*
X194030106Y-115419788D01*
X194030109Y-115419786D01*
X194155048Y-115247820D01*
X194155047Y-115247820D01*
X194155051Y-115247816D01*
X194251557Y-115058412D01*
X194317246Y-114856243D01*
X194350500Y-114646287D01*
X194350500Y-114433713D01*
X194317246Y-114223757D01*
X194251557Y-114021588D01*
X194155051Y-113832184D01*
X194155049Y-113832181D01*
X194155048Y-113832179D01*
X194030109Y-113660213D01*
X193879786Y-113509890D01*
X193707820Y-113384951D01*
X193707115Y-113384591D01*
X193699054Y-113380485D01*
X193648259Y-113332512D01*
X193631463Y-113264692D01*
X193653999Y-113198556D01*
X193699054Y-113159515D01*
X193707816Y-113155051D01*
X193729789Y-113139086D01*
X193879786Y-113030109D01*
X193879788Y-113030106D01*
X193879792Y-113030104D01*
X194030104Y-112879792D01*
X194030106Y-112879788D01*
X194030109Y-112879786D01*
X194155048Y-112707820D01*
X194155047Y-112707820D01*
X194155051Y-112707816D01*
X194251557Y-112518412D01*
X194317246Y-112316243D01*
X194350500Y-112106287D01*
X194350500Y-111893713D01*
X194317246Y-111683757D01*
X194251557Y-111481588D01*
X194155051Y-111292184D01*
X194155049Y-111292181D01*
X194155048Y-111292179D01*
X194030109Y-111120213D01*
X193879786Y-110969890D01*
X193707820Y-110844951D01*
X193707115Y-110844591D01*
X193699054Y-110840485D01*
X193648259Y-110792512D01*
X193631463Y-110724692D01*
X193653999Y-110658556D01*
X193699054Y-110619515D01*
X193707816Y-110615051D01*
X193793996Y-110552438D01*
X193879786Y-110490109D01*
X193879788Y-110490106D01*
X193879792Y-110490104D01*
X194030104Y-110339792D01*
X194030106Y-110339788D01*
X194030109Y-110339786D01*
X194155048Y-110167820D01*
X194155047Y-110167820D01*
X194155051Y-110167816D01*
X194251557Y-109978412D01*
X194317246Y-109776243D01*
X194350500Y-109566287D01*
X194350500Y-109353713D01*
X194317246Y-109143757D01*
X194251557Y-108941588D01*
X194155051Y-108752184D01*
X194155049Y-108752181D01*
X194155048Y-108752179D01*
X194030109Y-108580213D01*
X193879786Y-108429890D01*
X193707820Y-108304951D01*
X193707115Y-108304591D01*
X193699054Y-108300485D01*
X193648259Y-108252512D01*
X193631463Y-108184692D01*
X193653999Y-108118556D01*
X193699054Y-108079515D01*
X193707816Y-108075051D01*
X193729789Y-108059086D01*
X193879786Y-107950109D01*
X193879788Y-107950106D01*
X193879792Y-107950104D01*
X194030104Y-107799792D01*
X194030106Y-107799788D01*
X194030109Y-107799786D01*
X194155048Y-107627820D01*
X194155047Y-107627820D01*
X194155051Y-107627816D01*
X194251557Y-107438412D01*
X194317246Y-107236243D01*
X194350500Y-107026287D01*
X194350500Y-106813713D01*
X194317246Y-106603757D01*
X194251557Y-106401588D01*
X194155051Y-106212184D01*
X194155049Y-106212181D01*
X194155048Y-106212179D01*
X194030109Y-106040213D01*
X193879786Y-105889890D01*
X193707820Y-105764951D01*
X193707115Y-105764591D01*
X193699054Y-105760485D01*
X193648259Y-105712512D01*
X193631463Y-105644692D01*
X193653999Y-105578556D01*
X193699054Y-105539515D01*
X193707816Y-105535051D01*
X193729789Y-105519086D01*
X193879786Y-105410109D01*
X193879788Y-105410106D01*
X193879792Y-105410104D01*
X194030104Y-105259792D01*
X194030106Y-105259788D01*
X194030109Y-105259786D01*
X194155048Y-105087820D01*
X194155047Y-105087820D01*
X194155051Y-105087816D01*
X194251557Y-104898412D01*
X194317246Y-104696243D01*
X194350500Y-104486287D01*
X194350500Y-104273713D01*
X194317246Y-104063757D01*
X194251557Y-103861588D01*
X194155051Y-103672184D01*
X194155049Y-103672181D01*
X194155048Y-103672179D01*
X194030109Y-103500213D01*
X193879786Y-103349890D01*
X193707820Y-103224951D01*
X193518414Y-103128444D01*
X193518413Y-103128443D01*
X193518412Y-103128443D01*
X193316243Y-103062754D01*
X193316241Y-103062753D01*
X193316240Y-103062753D01*
X193125171Y-103032491D01*
X193106287Y-103029500D01*
X192893713Y-103029500D01*
X192874829Y-103032491D01*
X192683760Y-103062753D01*
X192481585Y-103128444D01*
X192292179Y-103224951D01*
X192120213Y-103349890D01*
X191969890Y-103500213D01*
X191844949Y-103672182D01*
X191840484Y-103680946D01*
X191792509Y-103731742D01*
X191724688Y-103748536D01*
X191658553Y-103725998D01*
X191619516Y-103680946D01*
X191615050Y-103672182D01*
X191490109Y-103500213D01*
X191339786Y-103349890D01*
X191167820Y-103224951D01*
X191167115Y-103224591D01*
X191159054Y-103220485D01*
X191108259Y-103172512D01*
X191091463Y-103104692D01*
X191113999Y-103038556D01*
X191159054Y-102999515D01*
X191167816Y-102995051D01*
X191235332Y-102945998D01*
X191339786Y-102870109D01*
X191339788Y-102870106D01*
X191339792Y-102870104D01*
X191490104Y-102719792D01*
X191490106Y-102719788D01*
X191490109Y-102719786D01*
X191615048Y-102547820D01*
X191615047Y-102547820D01*
X191615051Y-102547816D01*
X191711557Y-102358412D01*
X191777246Y-102156243D01*
X191810500Y-101946287D01*
X191810500Y-101733713D01*
X191777246Y-101523757D01*
X191711557Y-101321588D01*
X191615051Y-101132184D01*
X191615049Y-101132181D01*
X191615048Y-101132179D01*
X191490109Y-100960213D01*
X191339786Y-100809890D01*
X191167820Y-100684951D01*
X190978414Y-100588444D01*
X190978413Y-100588443D01*
X190978412Y-100588443D01*
X190776243Y-100522754D01*
X190776241Y-100522753D01*
X190776240Y-100522753D01*
X190614957Y-100497208D01*
X190566287Y-100489500D01*
X190353713Y-100489500D01*
X190305042Y-100497208D01*
X190143760Y-100522753D01*
X189941585Y-100588444D01*
X189752179Y-100684951D01*
X189580213Y-100809890D01*
X189429890Y-100960213D01*
X189304951Y-101132179D01*
X189208444Y-101321585D01*
X189142753Y-101523760D01*
X189109500Y-101733713D01*
X161185500Y-101733713D01*
X161185500Y-101718713D01*
X161152246Y-101508757D01*
X161086557Y-101306588D01*
X160990051Y-101117184D01*
X160990049Y-101117181D01*
X160990048Y-101117179D01*
X160865109Y-100945213D01*
X160714786Y-100794890D01*
X160542820Y-100669951D01*
X160353414Y-100573444D01*
X160353413Y-100573443D01*
X160353412Y-100573443D01*
X160151243Y-100507754D01*
X160151241Y-100507753D01*
X160151240Y-100507753D01*
X159989957Y-100482208D01*
X159941287Y-100474500D01*
X159728713Y-100474500D01*
X159680042Y-100482208D01*
X159518760Y-100507753D01*
X159316585Y-100573444D01*
X159127179Y-100669951D01*
X158955213Y-100794890D01*
X158804890Y-100945213D01*
X158679951Y-101117179D01*
X158583444Y-101306585D01*
X158517753Y-101508760D01*
X158484500Y-101718713D01*
X157200500Y-101718713D01*
X157200500Y-97724500D01*
X157220185Y-97657461D01*
X157272989Y-97611706D01*
X157324500Y-97600500D01*
X195375500Y-97600500D01*
X195442539Y-97620185D01*
G37*
%TD.AperFunction*%
%TD*%
M02*
